<svg id="Layer_1" data-name="Layer 1" xmlns="http://www.w3.org/2000/svg" viewBox="0 0 78.22 67.04"><defs><style>.cls-1{fill:#fff;}</style></defs><title>KaraHealthIcons</title><path class="cls-1" d="M78.22,38.25a14.94,14.94,0,0,1-7.64,13,13.81,13.81,0,0,1-1.64.8,13.41,13.41,0,0,1-2.35.75,12.89,12.89,0,0,1-1.53.28c-.31,0-.61,0-.92.09a9.93,9.93,0,0,0-3,.92,10.4,10.4,0,0,0-1.35.83,8.5,8.5,0,0,0-1.14.94,9.69,9.69,0,0,0-3,6.91,1.93,1.93,0,0,1-1.92,1.92h0a1.94,1.94,0,0,1-1.91-1.94,13.72,13.72,0,0,1,6.34-11.39,13.16,13.16,0,0,1,1.61-.88,13.8,13.8,0,0,1,2.53-.89l.72-.15.06,0c.72-.13,1.39-.1,2.22-.21a10.91,10.91,0,0,0,3.81-1.54,11.08,11.08,0,0,0,1.4-17.77,11.5,11.5,0,0,0-1.43-1.06,11.07,11.07,0,0,0-1.48-.8,13.41,13.41,0,0,0-1.47-.52c-.22-.06-.44-.12-.67-.16a8.92,8.92,0,0,0-1.17-.19,5.85,5.85,0,0,0-.59,0h0a11.08,11.08,0,0,0-2.63.33,10.89,10.89,0,0,0-1.56.5L59.3,28a2.15,2.15,0,0,1-2.79-.83,2.06,2.06,0,0,1,1.06-2.67c.24-.1.49-.18.73-.27a14.13,14.13,0,0,1,1.76-.52,27.17,27.17,0,0,1,2.71-.39h1l.53,0a12.76,12.76,0,0,1,1.66.21c-.1-.34-.22-.67-.35-1s-.16-.42-.25-.61a14.73,14.73,0,0,0-.86-1.56s0,0,0,0a13.31,13.31,0,0,0-11.19-6.17c-.23,0-.47,0-.71,0a4.72,4.72,0,0,0-.57,0,16.31,16.31,0,0,0-1.84.41l-.53.15c.07.23.14.47.2.69a13.13,13.13,0,0,1,.31,1.66,11.43,11.43,0,0,1-.42,4.71c-1.42,4.56-1.19,7.29.86,10.44a13,13,0,0,0,12.69,5.47,2,2,0,0,1,2.14,1.59,1.88,1.88,0,0,1-1.6,2.13,16.7,16.7,0,0,1-2.47.18A16.43,16.43,0,0,1,47.44,34.4c-2.65-4.09-3-8-1.29-13.63a9,9,0,0,0-3.9-9.83,9.26,9.26,0,0,0-7-1.42,9,9,0,0,0-2.81,1.05,6.91,6.91,0,0,0-.92.6,4.33,4.33,0,0,0-.37.27,6.62,6.62,0,0,0-.9.86,1.8,1.8,0,0,0-.18.2,1.49,1.49,0,0,1,.2.15c.32.27.61.56.91.85.14.15.29.27.43.42l.58.69A16.79,16.79,0,0,1,33.81,34a2,2,0,0,1-2.67.7,1.93,1.93,0,0,1-.9-1.16,1.8,1.8,0,0,1,.2-1.42A13.11,13.11,0,0,0,29.2,17.06h0a14.43,14.43,0,0,0-1.07-1.15.86.86,0,0,1-.14-.13,14.17,14.17,0,0,0-1.42-1.14c-.4-.21-1.5-.69-1.94-.86a11.8,11.8,0,0,0-1.37-.49l-.33-.09A10.52,10.52,0,0,0,21.67,13a10.29,10.29,0,0,0-2.6,0,9.14,9.14,0,0,0-1.35.25l-.23.09a10.71,10.71,0,0,0-6.31,5,1.58,1.58,0,0,1-.31.41.24.24,0,0,0,0,.07,7.81,7.81,0,0,0-.42,1.89,1.49,1.49,0,0,0,0,.21,5.3,5.3,0,0,0,0,.69c0,.21,0,.41,0,.62l0,.23a7.33,7.33,0,0,0,.24,1.15c0,.12.06.21.09.31.48-.14,1-.25,1.46-.35.22-.05.44-.07.67-.11s.58-.08.87-.1a16.36,16.36,0,0,1,2.13.12,14,14,0,0,1,2.39.54,13.9,13.9,0,0,1,1.36.5,3.07,3.07,0,0,1,.31.17,2.07,2.07,0,0,1,.75,2.5,1.69,1.69,0,0,1-1.87,1,1.94,1.94,0,0,1-.62-.15,9.74,9.74,0,0,0-1-.37,10.67,10.67,0,0,0-3.11-.52,7.81,7.81,0,0,0-1,.14,5.29,5.29,0,0,0-.79.17c-.38.09-.75.21-1.12.33s-1,.4-1.41.63-.71.41-1,.62a11.47,11.47,0,0,0-4.91,9.23,11.16,11.16,0,0,0,6.79,10.23,10.42,10.42,0,0,0,1.45.52,13,13,0,0,0,1.78.34c.3,0,.6,0,.9.06H25.3c0-.12,0-.23,0-.33s0-.26,0-.38a10.5,10.5,0,0,0-.2-1.12c-.05-.19-.09-.38-.15-.57s-.21-.62-.33-.93a9.83,9.83,0,0,0-9-6,1.93,1.93,0,1,1,0-3.86,13.69,13.69,0,0,1,13,9.92c0,.08,0,.14,0,.21.12.43.21.87.29,1.31,0,.17,0,.31.06.48.05.35.08.69.1,1a2.18,2.18,0,0,0,0,.25s1.67.08,2,.12l.48.07c.44.1.87.19,1.29.31.08,0,1.35.42,1.89.63a13.29,13.29,0,0,1,1.37.66c.45.23.88.48,1.3.75l1.64-2.5L42,45.07a2,2,0,0,1,1.66-.88,2,2,0,0,1,1.91,1.54,1.9,1.9,0,0,1-.28,1.46L42.21,51.9l-.84,1.29-.84,1.27a14.53,14.53,0,0,1,1,1.19A15.44,15.44,0,0,1,42.48,57a16.31,16.31,0,0,1,2.43,7,1.93,1.93,0,0,1-1.73,2.13,1.88,1.88,0,0,1-2.07-1.71,12.43,12.43,0,0,0-1.59-4.88,12.3,12.3,0,0,0-.86-1.31,10.62,10.62,0,0,0-1.37-1.54,12.25,12.25,0,0,0-1.09-.94c-.43-.33-1.59-1-1.76-1.12h0A7.81,7.81,0,0,0,33.1,54a0,0,0,0,0,0,0,5.17,5.17,0,0,0-.51-.18c-.24-.09-.48-.15-.72-.23s-.5-.13-.76-.17a11.55,11.55,0,0,0-1.2-.19l-.65,0H14.83a1.23,1.23,0,0,0-.27,0,17.54,17.54,0,0,1-2.74-.33l-.44-.13c-.46-.1-.91-.25-1.35-.39A15,15,0,0,1,0,38.25,14.79,14.79,0,0,1,4.72,27.42a12.93,12.93,0,0,1,1.2-1c.4-.31.82-.59,1.26-.87a10.8,10.8,0,0,1-.44-1.47,13.24,13.24,0,0,1-.25-1.6c0-.43,0-.85,0-1.27a10.1,10.1,0,0,1,.23-2,11.61,11.61,0,0,1,.45-1.68,11.81,11.81,0,0,1,6.16-6.71c.15-.07,2-.84,2.75-1.09l.71-.23c.34-.1.68-.18,1-.25A14.14,14.14,0,0,1,20.53,9a13.34,13.34,0,0,1,2.28.21c.36.06.72.13,1.07.21l.7.19c.28.08.56.18.83.27.48.19.95.39,1.42.62a11.18,11.18,0,0,1,1-1.14l.07-.07c.37-.35.76-.68,1.16-1a.18.18,0,0,0,.09-.07,13.16,13.16,0,0,1,15.18-.39A13.83,13.83,0,0,1,46.85,10a14.1,14.1,0,0,1,1,1.31l.16.22a14.66,14.66,0,0,1,2.67-1l.23-.05A17.4,17.4,0,0,1,69.85,23.21c.15.61.29,1.23.38,1.85a16.26,16.26,0,0,1,1.5.92A15.49,15.49,0,0,1,73,27,14.88,14.88,0,0,1,78.22,38.25Z"/></svg>