<svg id="Layer_1" data-name="Layer 1" xmlns="http://www.w3.org/2000/svg" viewBox="0 0 78.22 67.04"><defs><style>.cls-1{fill:#fff;}</style></defs><title>KaraHealthIcons</title><path class="cls-1" d="M52,4.79A20.91,20.91,0,0,0,37.8,10.55l-1,.95-1-.95A20.91,20.91,0,0,0,21.52,4.79a21.52,21.52,0,0,0-18.23,33c2.82,4.51,18.25,20.94,26.83,26.85a11.84,11.84,0,0,0,13.32,0c8.43-5.81,24.1-22.47,26.82-26.84A21.52,21.52,0,0,0,52,4.79ZM67.39,35.93c-2.35,3.74-17.32,20-25.87,25.85a8.33,8.33,0,0,1-4.74,1.46,8.22,8.22,0,0,1-4.72-1.46C23.5,55.9,8.51,39.68,6.17,35.93A18.09,18.09,0,0,1,21.52,8.2a17.7,17.7,0,0,1,13.93,7,1.89,1.89,0,0,0,2.66,0A17.67,17.67,0,0,1,52,8.2,18.11,18.11,0,0,1,67.39,35.93Z"/></svg>