<svg id="Layer_1" data-name="Layer 1" xmlns="http://www.w3.org/2000/svg" viewBox="0 0 2500 1125"><defs><style>.cls-1{fill:#08f;}.cls-2{fill:#fff;}</style></defs><title>KaraHealthIconsRow</title><rect class="cls-1" width="2500" height="1125"/><path class="cls-2" d="M477,629.5a13,13,0,0,1-10.27-5.09l-28.26-36.54a13.36,13.36,0,0,1,2.21-18.6A13,13,0,0,1,459,571.54l28.26,36.54a13.35,13.35,0,0,1-2.22,18.6,12.85,12.85,0,0,1-8,2.82"/><path class="cls-2" d="M564.49,548.83a2.38,2.38,0,0,1-.1,1.15,7,7,0,0,1-.47,1.35c.19-.77.38-1.63.57-2.5"/><path class="cls-2" d="M499.18,625.41a153.21,153.21,0,0,1-67.3,40l-15-84.48a11.48,11.48,0,0,0-13.5-9.53A11.84,11.84,0,0,0,394,585.05l15,85.06a154,154,0,0,1-120.92-35.93L507.17,412a158,158,0,0,1,36.12,121.09l-77.85-17.92a11.55,11.55,0,0,0-14,8.86,11.85,11.85,0,0,0,8.84,14.06l78.52,18a156,156,0,0,1-39.64,69.26m25-229.36a22.26,22.26,0,0,0-16.25-7.9c-6.09-1-12.26,2.12-16.54,6.55L271.61,617.41a22.86,22.86,0,0,0,1.23,33.24,175.42,175.42,0,0,0,116.73,44.11,177.24,177.24,0,0,0,34.23-3.27h.09c.76-.19,1.62-.38,2.47-.58.1,0,.19-.09.29-.09a176,176,0,0,0,89-48.75,180.09,180.09,0,0,0,48.29-90.64v-.1c.19-.77.38-1.63.57-2.5a3.79,3.79,0,0,0,.19-1.45c9.6-52.5-3.71-108.56-40.5-151.33"/><path class="cls-2" d="M426.36,690.91a11,11,0,0,1-1.71.49c-.28,0-.57.09-.76.09.76-.19,1.62-.38,2.47-.58"/><path class="cls-2" d="M1125.74,547.11h0Zm-310.88,0c6.47,81.07,74.38,145.17,155.47,145.17,80.79,0,148.48-63.7,154.5-145.17ZM970.33,715.86c-93.28,0-171.36-73.77-177.71-167.92a23,23,0,0,1,6-17.19,22.23,22.23,0,0,1,16.28-7.22h310.88a21.83,21.83,0,0,1,16.22,7.13,23.26,23.26,0,0,1,6.07,17.22c-6.47,94.21-84.48,168-177.7,168"/><path class="cls-2" d="M998.3,538.34a11.56,11.56,0,0,1-7.32-2.62,11.86,11.86,0,0,1-1.7-16.55L1090.16,392.5a11.54,11.54,0,0,1,16.34-1.78,11.88,11.88,0,0,1,1.7,16.56L1007.32,533.94a11.37,11.37,0,0,1-9,4.4"/><path class="cls-2" d="M970.89,537.05a11.69,11.69,0,0,1-4.82-1.07,11.81,11.81,0,0,1-5.73-15.58l44.26-98.66a11.46,11.46,0,0,1,15.37-5.87,11.81,11.81,0,0,1,5.73,15.59l-44.25,98.66a11.57,11.57,0,0,1-10.56,6.93"/><path class="cls-2" d="M1419.68,595.16h-47.77a13.26,13.26,0,0,1,0-26.51h47.77a13.26,13.26,0,0,1,0,26.51"/><path class="cls-2" d="M1594.87,672.92h-223a13.26,13.26,0,0,1,0-26.51h223A11.19,11.19,0,0,0,1606,635.15V445.35l-54.56-59-39.72,19.93,15.75,27.22,3.57.57,26.56-.08a13.19,13.19,0,0,1,13,13.25V581.91a13.19,13.19,0,0,1-13.08,13.25h-50.84a13.26,13.26,0,0,1,0-26.51h37.76V460.44l-15.49,0-11.69-1.7a13.13,13.13,0,0,1-9.27-6.38l-26-44.91a13.52,13.52,0,0,1-1.25-10.49,13.36,13.36,0,0,1,6.72-8.08l61-30.61a13,13,0,0,1,15.35,2.81l64.74,70a13.31,13.31,0,0,1,3.54,9.05v195c0,20.81-16.71,37.77-37.24,37.77"/><path class="cls-2" d="M1506.69,595.16a13.18,13.18,0,0,1-13.08-13.26,30.43,30.43,0,1,0-60.85,0,13.08,13.08,0,1,1-26.16,0c0-31.62,25.4-57.35,56.6-57.35s56.57,25.73,56.57,57.35a13.18,13.18,0,0,1-13.08,13.26"/><path class="cls-2" d="M1999.43,415.9c-37.39,0-67.86,30.82-67.86,68.74a69.66,69.66,0,0,0,10.32,36.51c9.2,14.77,70.47,81.7,104,105.13a28,28,0,0,0,31.6,0c33.7-23.49,94.87-90.38,104-105.16a69.08,69.08,0,0,0,10.33-36.48c0-37.92-30.41-68.74-67.8-68.74-20,0-38.53,9.49-52.09,26.68a12.95,12.95,0,0,1-20.42,0c-13.62-17.22-32.12-26.71-52.09-26.71m62.3,241.77a53.53,53.53,0,0,1-30.64-9.57c-35.46-24.75-99.52-93.86-111.33-112.89a96.4,96.4,0,0,1-14.29-50.57c0-52.52,42.15-95.24,94-95.24,23.26,0,44.94,8.94,62.3,25.47,17.3-16.33,39.37-25.47,62.3-25.47,51.8,0,93.9,42.72,93.9,95.24a95.72,95.72,0,0,1-14.3,50.57c-11.74,19-75.75,88.08-111.26,112.89a53.71,53.71,0,0,1-30.64,9.57"/><path class="cls-2" d="M2053.27,574.79c-5,1.58-9.08-2.61-11.46-6.84l-27.69-50.68L1995.34,543a12.92,12.92,0,0,1-10.49,5.37h-49a13.25,13.25,0,0,1,0-26.5h42.44l27-36.88c2.61-3.66,6.53-5.41,11.35-5.35a13.12,13.12,0,0,1,10.61,6.81l26.33,48.24,8.11-14.11a13,13,0,0,1,11.29-6.62h50.9a13.26,13.26,0,0,1,0,26.51h-43.35l-15.88,27.74a13,13,0,0,1-11.3,6.61"/></svg>