<svg id="Layer_1" data-name="Layer 1" xmlns="http://www.w3.org/2000/svg" viewBox="0 0 78.22 67.04"><defs><style>.cls-1{fill:#fff;}</style></defs><title>KaraHealthIcons</title><path class="cls-1" d="M62,14.71,56.77,9.46,48.13.82A2,2,0,0,0,46.74.23a2,2,0,0,0-1.38.59,1.91,1.91,0,0,0-.57,1.37,2,2,0,0,0,.57,1.4l4.51,4.5,1,1-1,1-2.49,2.48-2.12,2.12L39.48,9a1.91,1.91,0,0,0-2.7,0l-5.32,5.31L30,15.75l-2.72,2.73L25.76,20l-8.48,8.46-1.8,1.81L13.76,32,12,33.77,3.69,42a1.93,1.93,0,0,0-.56,1.35,1.48,1.48,0,0,0,0,.31l1.37,7.69.3,1.69.32,1.81L.59,59.44a2,2,0,0,0,0,2.83,2,2,0,0,0,2.82,0l3.16-3.16,1.2-1.19,1.81.29,1.76.27,7.82,1.21a1.9,1.9,0,0,0,1.65-.54L42.87,37.09l1.49-1.5,2.72-2.71,6.81-6.81a1.93,1.93,0,0,0,0-2.71l-3.68-3.67-2.12-2.12,1.06-1.05,1.06-1.06L52.7,13l1-1,1,1,4.51,4.5a2,2,0,0,0,2.77,0,2,2,0,0,0,.58-1.39A2,2,0,0,0,62,14.71ZM39.51,35.06,18.78,55.78l-6.46-1-1.57-.23L9,54.27l-.07,0,0-.08-.35-2-.29-1.62L7.1,44l6.67-6.66,2.13-2.13,1,1.07,3.55,3.54a2,2,0,0,0,2.84,0,2,2,0,0,0,.6-1.42A2,2,0,0,0,23.35,37l-2.48-2.5-2.12-2.12,2.12-2.11,6.93-6.93,2.12-2.13L40.57,31.86l1.06,1.08ZM49.84,24.73l-5.43,5.42L32.7,18.44l2.12-2.12L38.13,13l2.79,2.79,1.29,1.3,3.54,3.52,1.3,1.29Z"/></svg>