<svg id="Layer_1" data-name="Layer 1" xmlns="http://www.w3.org/2000/svg" xmlns:xlink="http://www.w3.org/1999/xlink" viewBox="0 0 2500 571.83"><defs><style>.cls-1{fill:none;}.cls-2{clip-path:url(#clip-path);}.cls-3{fill:#e9e8e9;}</style><clipPath id="clip-path" transform="translate(0 0)"><rect class="cls-1" width="2500" height="584.78"/></clipPath></defs><title>KaraHealthEmotions</title><g class="cls-2"><path class="cls-3" d="M283.05,26.38A261.11,261.11,0,0,1,467.69,472C365.86,573.78,200.2,573.78,98.41,472A261,261,0,0,1,283.05,26.38M82.8,87.11c-110.39,110.41-110.4,290.07,0,400.48A283.19,283.19,0,0,0,483.29,87.11C372.87-23.31,193.22-23.31,82.8,87.11" transform="translate(0 0)"/><path class="cls-3" d="M239.18,346.2c-2.45,4.25-.28,9.39,4.85,11.45a103.58,103.58,0,0,0,75.81,0c3.69-1.48,5.85-4.56,5.85-7.75a7.41,7.41,0,0,0-1-3.69c-2.43-4.22-8.61-6-13.81-4a78.7,78.7,0,0,1-57.91,0c-5.16-2-11.33-.2-13.78,4" transform="translate(0 0)"/><path class="cls-3" d="M193.92,250.6v0a7.89,7.89,0,0,0,2.89,6,10.94,10.94,0,0,0,13.86,0,14.07,14.07,0,0,1,17.32,0,10.94,10.94,0,0,0,13.86,0,7.93,7.93,0,0,0,2.89-6v0a7.86,7.86,0,0,0-2.86-6c-5.76-5-14-7.87-22.59-7.86s-16.78,2.87-22.51,7.86a7.86,7.86,0,0,0-2.86,6" transform="translate(0 0)"/><path class="cls-3" d="M313.36,256.6a10.93,10.93,0,0,0,13.86,0,14.1,14.1,0,0,1,17.31,0,10.51,10.51,0,0,0,7,2.51,10.65,10.65,0,0,0,6.92-2.47,7.68,7.68,0,0,0,0-12c-5.75-5-14-7.86-22.56-7.86s-16.8,2.86-22.55,7.86a7.68,7.68,0,0,0,0,12" transform="translate(0 0)"/><path class="cls-3" d="M938,22.75A263.53,263.53,0,0,1,1124.34,472.5,263.53,263.53,0,0,1,751.66,99.81,261.73,261.73,0,0,1,938,22.75M735.91,84.06c-111.42,111.43-111.41,292.75,0,404.18A285.8,285.8,0,0,0,1140.09,84.06a286.11,286.11,0,0,0-404.18,0" transform="translate(0 0)"/><path class="cls-3" d="M941.85,340.24a53.9,53.9,0,0,0-43.2.74,10.34,10.34,0,0,0-5.12,14,11.22,11.22,0,0,0,14.63,4.9,30.83,30.83,0,0,1,25.94,0,11.25,11.25,0,0,0,2.34.77,53.78,53.78,0,0,0,43.12-.78,10.49,10.49,0,0,0,6.19-9.48,10,10,0,0,0-1.07-4.51A11.28,11.28,0,0,0,970.05,341a30.81,30.81,0,0,1-25.95,0,11.1,11.1,0,0,0-2.25-.72" transform="translate(0 0)"/><path class="cls-3" d="M846.26,250v.05a10.3,10.3,0,0,0,3.2,7.38,11.05,11.05,0,0,0,15.28-.05,13.81,13.81,0,0,1,19.09,0,11.05,11.05,0,0,0,15.29,0,10.21,10.21,0,0,0,3.2-7.39v0a10.23,10.23,0,0,0-3.15-7.37,35.94,35.94,0,0,0-49.76,0,10.23,10.23,0,0,0-3.15,7.37" transform="translate(0 0)"/><path class="cls-3" d="M962.81,250v0a10.19,10.19,0,0,0,3.2,7.4,11.09,11.09,0,0,0,15.28,0,14.23,14.23,0,0,1,19.09,0,11.07,11.07,0,0,0,15.29.05,10.22,10.22,0,0,0,3.19-7.4v0a10.2,10.2,0,0,0-3.14-7.36,36.73,36.73,0,0,0-49.76,0,10.17,10.17,0,0,0-3.15,7.36" transform="translate(0 0)"/><path class="cls-3" d="M2214.36,22.27a261.73,261.73,0,0,1,186.33,77.05c102.74,102.75,102.73,269.94,0,372.69A263.53,263.53,0,0,1,2028,99.32a261.78,261.78,0,0,1,186.35-77m-202.09,61.3c-111.43,111.44-111.42,292.76,0,404.19A285.8,285.8,0,0,0,2416.44,83.57c-111.45-111.43-292.76-111.43-404.17,0" transform="translate(0 0)"/><path class="cls-3" d="M2100.29,187.62v0a10.23,10.23,0,0,0,3.21,7.43,11.12,11.12,0,0,0,15.36,0,21.21,21.21,0,0,1,29.35,0,10.92,10.92,0,0,0,7.66,3.11,11,11,0,0,0,7.71-3.06,10.29,10.29,0,0,0,0-14.86,43.48,43.48,0,0,0-60.17,0,10.25,10.25,0,0,0-3.16,7.41" transform="translate(0 0)"/><path class="cls-3" d="M2254.24,195.07a11.12,11.12,0,0,0,15.35,0,21.21,21.21,0,0,1,29.36,0,11.14,11.14,0,0,0,15.38,0,10.29,10.29,0,0,0,0-14.87,43.46,43.46,0,0,0-60.17,0,10.3,10.3,0,0,0,0,14.86" transform="translate(0 0)"/><path class="cls-3" d="M2215.24,290a29.84,29.84,0,1,1-29.85,29.85A29.88,29.88,0,0,1,2215.24,290m-51.79,29.85A51.79,51.79,0,1,0,2215.24,268a51.84,51.84,0,0,0-51.79,51.79" transform="translate(0 0)"/><path class="cls-3" d="M1576.08,22.27A263.52,263.52,0,0,1,1762.4,472,263.52,263.52,0,0,1,1389.73,99.32a261.74,261.74,0,0,1,186.35-77M1374,83.58A286.11,286.11,0,1,0,1576.06,0,283.87,283.87,0,0,0,1374,83.58" transform="translate(0 0)"/><path class="cls-3" d="M1529.64,359.76a10.67,10.67,0,0,0,6.22,5.34,11.27,11.27,0,0,0,8.39-.41,73.56,73.56,0,0,1,61.4,0,11.22,11.22,0,0,0,14.61-4.93,10,10,0,0,0,1.07-4.51,10.47,10.47,0,0,0-6.22-9.47,96.14,96.14,0,0,0-80.32,0,10.29,10.29,0,0,0-5.15,14" transform="translate(0 0)"/><path class="cls-3" d="M1484.32,249.56a10.16,10.16,0,0,0,3.19,7.39,11,11,0,0,0,15.28,0,13.82,13.82,0,0,1,19.1,0,11.05,11.05,0,0,0,15.29,0,10.21,10.21,0,0,0,3.18-7.38v0a10.24,10.24,0,0,0-3.14-7.37,35.94,35.94,0,0,0-49.75,0,10,10,0,0,0-3.15,7.4" transform="translate(0 0)"/><path class="cls-3" d="M1600.88,249.53v.05a10.25,10.25,0,0,0,3.19,7.38,11.08,11.08,0,0,0,15.28,0,13.82,13.82,0,0,1,19.1,0,11.08,11.08,0,0,0,15.29,0,10.23,10.23,0,0,0,0-14.79,35.91,35.91,0,0,0-49.75,0,10.23,10.23,0,0,0-3.15,7.37" transform="translate(0 0)"/></g></svg>