<svg id="Layer_1" data-name="Layer 1" xmlns="http://www.w3.org/2000/svg" viewBox="0 0 734.55 622"><defs><style>.cls-1{fill:#fff;}.cls-2{fill:#010101;}</style></defs><title>KaraHealthIconGallery</title><rect class="cls-1" x="79.35" y="77.62" width="576.2" height="468.55"/><path class="cls-2" d="M534.5,227H508.43a9.4,9.4,0,0,1-9.38-9.39V191.57a9.4,9.4,0,0,1,9.38-9.39h21a2.65,2.65,0,0,1,0,5.29h-21a4.11,4.11,0,0,0-4.1,4.1v26.06a4.11,4.11,0,0,0,4.1,4.1H534.5a4.11,4.11,0,0,0,4.1-4.1V203.9a2.64,2.64,0,1,1,5.28,0v13.73A9.4,9.4,0,0,1,534.5,227Z"/><path class="cls-2" d="M228.83,235.88H188.09a2.65,2.65,0,0,1-2.64-2.64V189.89a2.64,2.64,0,0,1,.79-1.89l12.11-11.9a2.6,2.6,0,0,1,1.85-.76h28.63a2.64,2.64,0,0,1,2.64,2.64v55.26A2.64,2.64,0,0,1,228.83,235.88Zm-38.09-5.29h35.44v-50h-24.9L190.74,191Z"/><path class="cls-1" d="M417.27,332.52h2c1.2,0,1.8-1,2.17-2.16l.65-2.62a2.94,2.94,0,0,1,2-2.31"/><path class="cls-2" d="M419.26,334.88h-2a2.36,2.36,0,0,1,0-4.71H419c0-.08.08-.24.16-.5l.62-2.5a5.22,5.22,0,0,1,3.5-4,2.35,2.35,0,0,1,1.51,4.46.59.59,0,0,0-.41.46l-.7,2.8C422.65,334.38,420.47,334.88,419.26,334.88Z"/><path class="cls-1" d="M410.49,325.43a2.92,2.92,0,0,1,2,2.31l.66,2.62c.36,1.19,1,2.16,2.16,2.16h2"/><path class="cls-2" d="M417.27,334.88h-2c-1.21,0-3.39-.5-4.41-3.84l-.69-2.74c-.09-.49-.34-.61-.45-.64a2.36,2.36,0,1,1,1.52-4.46,5.32,5.32,0,0,1,3.53,4.15l.61,2.44a1.48,1.48,0,0,0,.26.54l1.62-.16a2.36,2.36,0,0,1,0,4.71Z"/><path class="cls-1" d="M417.27,286.45h-2c-1.2,0-1.8,1-2.16,2.17l-.66,2.62a2.92,2.92,0,0,1-2,2.3"/><path class="cls-2" d="M410.49,295.89a2.35,2.35,0,0,1-.75-4.58.55.55,0,0,0,.4-.46l.7-2.8c1.05-3.45,3.23-3.95,4.44-3.95h2a2.36,2.36,0,0,1,0,4.71h-1.76a3,3,0,0,1-.15.49l-.62,2.5a5.17,5.17,0,0,1-3.51,4A2.34,2.34,0,0,1,410.49,295.89Z"/><path class="cls-1" d="M424.05,293.54a2.94,2.94,0,0,1-2-2.3l-.65-2.62c-.37-1.2-1-2.17-2.17-2.17h-2"/><path class="cls-2" d="M424.05,295.89a2.39,2.39,0,0,1-.74-.12,5.29,5.29,0,0,1-3.55-4.15l-.61-2.44a1.61,1.61,0,0,0-.26-.54l-1.62.17a2.36,2.36,0,0,1,0-4.71h2c1.21,0,3.39.5,4.41,3.83l.69,2.74c.09.5.36.62.44.65a2.35,2.35,0,0,1-.75,4.57Z"/><path class="cls-2" d="M417.27,319.39a9.91,9.91,0,1,1,9.91-9.9A9.91,9.91,0,0,1,417.27,319.39Zm0-15.11a5.21,5.21,0,1,0,5.21,5.21A5.22,5.22,0,0,0,417.27,304.28Z"/><path class="cls-2" d="M335.2,328H301.87a2.65,2.65,0,0,1,0-5.29H335.2a2.65,2.65,0,1,1,0,5.29Z"/><path class="cls-2" d="M335.2,310.51H301.87a2.65,2.65,0,0,1,0-5.29H335.2a2.65,2.65,0,1,1,0,5.29Z"/><path class="cls-2" d="M335.2,293H301.87a2.65,2.65,0,0,1,0-5.29H335.2a2.65,2.65,0,1,1,0,5.29Z"/><path class="cls-2" d="M129.34,309.75H82.24a2.65,2.65,0,0,1,0-5.29h47.1a2.65,2.65,0,0,1,0,5.29Z"/><path class="cls-2" d="M105.79,333.15a2.64,2.64,0,0,1-2.64-2.64v-47.1a2.64,2.64,0,1,1,5.28,0v47.1A2.64,2.64,0,0,1,105.79,333.15Z"/><path class="cls-2" d="M425.57,103H409.23a2.35,2.35,0,0,1,0-4.7h16.34a2.35,2.35,0,1,1,0,4.7Z"/><path class="cls-2" d="M417.4,111.14a2.35,2.35,0,0,1-2.35-2.35V92.45a2.35,2.35,0,0,1,4.7,0v16.34A2.35,2.35,0,0,1,417.4,111.14Z"/><path class="cls-2" d="M233.15,309.92h-47.8a2.65,2.65,0,0,1,0-5.29h47.8a2.65,2.65,0,1,1,0,5.29Z"/><path class="cls-2" d="M296.59,232.77a2.67,2.67,0,0,1-2.6-3.16l2.58-13a2.67,2.67,0,0,1,.43-1l24.4-34.85a2.64,2.64,0,0,1,3.68-.65l8.33,5.84a2.64,2.64,0,1,1-3,4.33l-6.17-4.32-22.57,32.23-1.3,6.59,5.74-3.48,19.77-28.22a2.64,2.64,0,1,1,4.32,3l-20.08,28.67a2.46,2.46,0,0,1-.79.75L298,232.38A2.64,2.64,0,0,1,296.59,232.77Z"/><path class="cls-2" d="M603.45,229.78a2.64,2.64,0,0,1-2.64-2.64V181.81a2.64,2.64,0,1,1,5.28,0v45.33A2.64,2.64,0,0,1,603.45,229.78Z"/><path class="cls-2" d="M648.78,229.78H603.45a2.64,2.64,0,0,1,0-5.28h45.33a2.64,2.64,0,0,1,0,5.28Z"/><path class="cls-2" d="M292.83,328a2.45,2.45,0,0,1-1.87-.71,2.48,2.48,0,0,1-.83-1.87,2.33,2.33,0,0,1,.83-1.88,2.47,2.47,0,0,1,3.63,0,2.33,2.33,0,0,1,.83,1.88,2.48,2.48,0,0,1-.83,1.87A2.38,2.38,0,0,1,292.83,328Z"/><path class="cls-2" d="M292.83,310.45a2.44,2.44,0,0,1-1.87-.7,2.51,2.51,0,0,1-.83-1.88A2.33,2.33,0,0,1,291,306a2.69,2.69,0,0,1,3.63,0,2.33,2.33,0,0,1,.83,1.88,2.51,2.51,0,0,1-.83,1.88A2.37,2.37,0,0,1,292.83,310.45Z"/><path class="cls-2" d="M292.83,293.07a2.53,2.53,0,0,1-1.87-.83,2.53,2.53,0,0,1,0-3.75,2.69,2.69,0,0,1,3.63,0,2.53,2.53,0,0,1,0,3.75A2.49,2.49,0,0,1,292.83,293.07Z"/><path class="cls-1" d="M401,325.78l1.41,1.4c.85.85,2,.59,3.06,0l2.32-1.39a2.93,2.93,0,0,1,3-.23"/><path class="cls-2" d="M403.65,330.06a4,4,0,0,1-2.92-1.21l-1.41-1.42a2.35,2.35,0,0,1,3.33-3.31l1.23,1.24a2.79,2.79,0,0,1,.47-.25l2.22-1.33a5.23,5.23,0,0,1,5.27-.33,2.35,2.35,0,1,1-2.09,4.21.55.55,0,0,0-.61,0l-2.48,1.49A6.44,6.44,0,0,1,403.65,330.06Z"/><path class="cls-1" d="M401.2,316a2.93,2.93,0,0,1-.23,3l-1.39,2.32c-.59,1.1-.85,2.21,0,3.06l1.4,1.41"/><path class="cls-2" d="M401,328.13a2.32,2.32,0,0,1-1.66-.69L397.92,326c-.86-.86-2.05-2.76-.42-5.82l1.46-2.43a.73.73,0,0,0,.13-.78,2.35,2.35,0,0,1,4.22-2.07,5.31,5.31,0,0,1-.43,5.42l-1.29,2.17a2,2,0,0,0-.21.56l1.26,1a2.36,2.36,0,0,1-1.65,4Z"/><path class="cls-1" d="M433.56,293.2l-1.41-1.41c-.84-.84-2-.58-3.06,0l-2.31,1.39a2.93,2.93,0,0,1-3,.24"/><path class="cls-2" d="M425.12,296.09a5.33,5.33,0,0,1-2.41-.57,2.35,2.35,0,1,1,2.08-4.21.62.62,0,0,0,.62,0l2.47-1.5c3.18-1.7,5.08-.49,5.94.36l1.4,1.4a2.35,2.35,0,1,1-3.32,3.32l-1.25-1.24a3.19,3.19,0,0,1-.46.24l-2.2,1.33A4.87,4.87,0,0,1,425.12,296.09Z"/><path class="cls-1" d="M433.34,303a2.92,2.92,0,0,1,.24-3l1.39-2.31c.58-1.11.84-2.22,0-3.06l-1.41-1.41"/><path class="cls-2" d="M433.34,305.36a2.34,2.34,0,0,1-2.1-1.31,5.3,5.3,0,0,1,.42-5.43l1.29-2.16a1.73,1.73,0,0,0,.21-.57l-1.26-1a2.35,2.35,0,0,1,3.32-3.32l1.41,1.41c.85.84,2.05,2.73.41,5.82l-1.45,2.43a.71.71,0,0,0-.14.77,2.36,2.36,0,0,1-1.07,3.15A2.4,2.4,0,0,1,433.34,305.36Z"/><path class="cls-1" d="M394.24,309.49v2c0,1.19,1,1.8,2.16,2.16l2.62.66a2.92,2.92,0,0,1,2.31,2"/><path class="cls-2" d="M401.33,318.62A2.37,2.37,0,0,1,399.1,317a.57.57,0,0,0-.46-.41l-2.8-.7c-3.46-1.05-4-3.23-4-4.44v-2a2.36,2.36,0,1,1,4.71,0v1.75c.08,0,.24.08.5.16l2.5.62a5.2,5.2,0,0,1,4,3.49,2.36,2.36,0,0,1-1.46,3A2.56,2.56,0,0,1,401.33,318.62Z"/><path class="cls-1" d="M401.33,302.71a3,3,0,0,1-2.31,2l-2.62.65c-1.19.37-2.16,1-2.16,2.17v2"/><path class="cls-2" d="M394.24,311.84a2.36,2.36,0,0,1-2.36-2.35v-2c0-1.22.5-3.41,3.85-4.41l2.73-.69c.49-.09.61-.35.64-.45a2.35,2.35,0,1,1,4.45,1.51,5.28,5.28,0,0,1-4.14,3.54l-2.44.61a1.91,1.91,0,0,0-.54.25l.16,1.63A2.36,2.36,0,0,1,394.24,311.84Z"/><path class="cls-1" d="M440.31,309.49v-2c0-1.2-1-1.8-2.17-2.17l-2.62-.65a2.94,2.94,0,0,1-2.3-2"/><path class="cls-2" d="M440.31,311.84a2.36,2.36,0,0,1-2.36-2.35v-1.76a3,3,0,0,1-.49-.15L435,307a5.2,5.2,0,0,1-4-3.51,2.35,2.35,0,0,1,1.48-3,2.33,2.33,0,0,1,3,1.48.61.61,0,0,0,.47.4l2.8.7c3.45,1,4,3.22,4,4.44v2A2.36,2.36,0,0,1,440.31,311.84Z"/><path class="cls-1" d="M433.22,316.27a2.91,2.91,0,0,1,2.3-2l2.62-.66c1.2-.36,2.17-1,2.17-2.16v-2"/><path class="cls-2" d="M433.22,318.62a2.45,2.45,0,0,1-.75-.12,2.35,2.35,0,0,1-1.48-3,5.26,5.26,0,0,1,4.15-3.55l2.43-.61a1.61,1.61,0,0,0,.55-.26l-.17-1.62a2.36,2.36,0,1,1,4.71,0v2c0,1.21-.5,3.39-3.83,4.41l-2.74.68c-.5.1-.61.34-.64.45A2.36,2.36,0,0,1,433.22,318.62Z"/><path class="cls-1" d="M401,293.2l-1.4,1.41c-.85.84-.59,1.95,0,3.06L401,300a2.94,2.94,0,0,1,.23,3"/><path class="cls-2" d="M401.2,305.36a2.35,2.35,0,0,1-2.11-3.38.62.62,0,0,0,0-.63l-1.5-2.47c-1.69-3.19-.5-5.08.35-5.93l1.41-1.41a2.35,2.35,0,0,1,3.33,3.32l-1.25,1.25a2.69,2.69,0,0,1,.25.47l1.33,2.19a5.23,5.23,0,0,1,.33,5.27A2.33,2.33,0,0,1,401.2,305.36Z"/><path class="cls-1" d="M410.79,293.42a2.91,2.91,0,0,1-3-.24l-2.32-1.39c-1.1-.58-2.21-.84-3.06,0L401,293.2"/><path class="cls-2" d="M409.47,296.08a5.27,5.27,0,0,1-3.07-1l-2.15-1.28a1.73,1.73,0,0,0-.57-.21l-1,1.26a2.35,2.35,0,0,1-3.33-3.32l1.41-1.41c.85-.85,2.74-2.06,5.83-.41l2.41,1.45c.42.27.68.2.78.14a2.35,2.35,0,0,1,2.09,4.21A5.36,5.36,0,0,1,409.47,296.08Z"/><path class="cls-1" d="M433.56,325.78l1.41-1.41c.84-.85.58-2,0-3.06L433.58,319a2.91,2.91,0,0,1-.24-3"/><path class="cls-2" d="M433.56,328.13a2.36,2.36,0,0,1-1.66-4l1.24-1.24c-.05-.06-.12-.22-.25-.46l-1.33-2.21a5.22,5.22,0,0,1-.32-5.28,2.35,2.35,0,1,1,4.21,2.09.58.58,0,0,0,0,.61l1.5,2.48c1.7,3.18.5,5.07-.35,5.93l-1.41,1.41A2.32,2.32,0,0,1,433.56,328.13Z"/><path class="cls-1" d="M423.75,325.56a3,3,0,0,1,3,.23l2.31,1.39c1.1.59,2.22.85,3.06,0l1.41-1.4"/><path class="cls-2" d="M430.88,330.07a6.13,6.13,0,0,1-2.9-.82l-2.41-1.45c-.43-.29-.69-.2-.78-.14a2.35,2.35,0,1,1-2.08-4.21,5.24,5.24,0,0,1,5.43.43l2.16,1.29a1.54,1.54,0,0,0,.57.2l1-1.26a2.35,2.35,0,1,1,3.32,3.33l-1.41,1.41A4.09,4.09,0,0,1,430.88,330.07Z"/><path class="cls-2" d="M417.27,319.39a9.88,9.88,0,1,1,7-2.9A9.84,9.84,0,0,1,417.27,319.39Zm0-15.1a5.2,5.2,0,0,0-3.68,8.87,5.32,5.32,0,0,0,7.36,0,5.2,5.2,0,0,0-3.68-8.88Z"/><path class="cls-2" d="M626.17,438.87a2.61,2.61,0,0,1-1.89-.8c-2.43-2.5-14.63-15.13-16.32-17.82a21.49,21.49,0,1,1,36.43,0c-1.81,2.89-16.28,17.78-16.4,17.9A2.64,2.64,0,0,1,626.17,438.87Zm0-46.23a16.22,16.22,0,0,0-13.74,24.81c.87,1.39,7.41,8.41,13.76,15,4-4.14,12.73-13.4,13.73-15a16.21,16.21,0,0,0-13.75-24.8Z"/><path class="cls-2" d="M611.35,219.75a2.59,2.59,0,0,1-.78-.12,2.63,2.63,0,0,1-1.74-3.31l4.57-14.74a2.64,2.64,0,0,1,4.42-1.06l7.35,7.56,18.62-11.72a2.65,2.65,0,0,1,2.82,4.48L626.18,213.7a2.62,2.62,0,0,1-3.3-.4l-5.75-5.91-3.26,10.5A2.65,2.65,0,0,1,611.35,219.75Z"/><path class="cls-2" d="M607,332.57a2.64,2.64,0,0,1-2.64-2.64V299.67a2.64,2.64,0,1,1,5.28,0v30.26A2.65,2.65,0,0,1,607,332.57Z"/><path class="cls-2" d="M521.69,448.51a2.64,2.64,0,0,1-2.64-2.64v-8.8a2.64,2.64,0,1,1,5.28,0v8.8A2.64,2.64,0,0,1,521.69,448.51Z"/><path class="cls-2" d="M624.34,332.57a2.64,2.64,0,0,1-2.63-2.64V287a2.64,2.64,0,1,1,5.27,0v42.9A2.64,2.64,0,0,1,624.34,332.57Z"/><path class="cls-2" d="M643.22,332.57a2.64,2.64,0,0,1-2.63-2.64V293.27a2.64,2.64,0,1,1,5.27,0v36.66A2.64,2.64,0,0,1,643.22,332.57Z"/><path class="cls-2" d="M626.17,419.21a10.43,10.43,0,0,1-7.44-3.08h0a10.53,10.53,0,0,1,0-14.9,10.8,10.8,0,0,1,14.89,0,10.53,10.53,0,0,1-7.45,18Zm0-16.36a5.83,5.83,0,0,0-4.11,9.95h0a6,6,0,0,0,8.23,0,5.84,5.84,0,0,0-4.12-10Z"/><path class="cls-1" d="M303.94,398.43v-6.86a8.63,8.63,0,0,1,17.26,0v6.86"/><path class="cls-2" d="M321.2,401.08a2.65,2.65,0,0,1-2.64-2.65v-6.86a6,6,0,1,0-12,0v6.86a2.65,2.65,0,1,1-5.29,0v-6.86a11.28,11.28,0,1,1,22.55,0v6.86A2.65,2.65,0,0,1,321.2,401.08Z"/><path class="cls-2" d="M332,440.41h-17.7a2.65,2.65,0,1,1,0-5.29h15.06V398.63H314.26a2.64,2.64,0,1,1,0-5.28H332a2.63,2.63,0,0,1,2.64,2.64v41.77A2.65,2.65,0,0,1,332,440.41Z"/><path class="cls-2" d="M312.41,440.41H294.7a2.65,2.65,0,0,1-2.64-2.63L291.82,396a2.65,2.65,0,0,1,2.65-2.66h17.94a2.64,2.64,0,1,1,0,5.28H297.12l.21,36.49h15.08a2.65,2.65,0,0,1,0,5.29Z"/><path class="cls-2" d="M542.37,329.3H499.93a2.65,2.65,0,0,1-2.64-2.64V289.88a2.64,2.64,0,0,1,2.64-2.64h12.74a2.63,2.63,0,0,1,2.13,1.08l2.34,3.2h25.23a2.65,2.65,0,0,1,2.64,2.65v32.49A2.64,2.64,0,0,1,542.37,329.3ZM502.58,324h37.16v-27.2H515.8a2.65,2.65,0,0,1-2.14-1.08l-2.34-3.2h-8.74Z"/><path class="cls-2" d="M201.43,193.35H188.09a2.65,2.65,0,0,1,0-5.29h10.69V178a2.65,2.65,0,0,1,5.29,0v12.73A2.64,2.64,0,0,1,201.43,193.35Z"/><path class="cls-2" d="M416.58,235.33a30,30,0,1,1,30-30A30.06,30.06,0,0,1,416.58,235.33Zm0-54.76a24.74,24.74,0,1,0,24.74,24.74A24.77,24.77,0,0,0,416.58,180.57Z"/><path class="cls-2" d="M521.18,123.44a23,23,0,1,1,23-23A23,23,0,0,1,521.18,123.44Zm0-40.74a17.73,17.73,0,1,0,17.74,17.73A17.75,17.75,0,0,0,521.18,82.7Z"/><path class="cls-2" d="M423.18,214.54a2.62,2.62,0,0,1-1.87-.77l-6.59-6.6a2.62,2.62,0,0,1-.78-1.86V193.12a2.65,2.65,0,0,1,5.29,0v11.09l5.82,5.82a2.65,2.65,0,0,1,0,3.74A2.62,2.62,0,0,1,423.18,214.54Z"/><path class="cls-2" d="M209.57,103.79a2.65,2.65,0,0,1-2.65-2.64V90.91a2.65,2.65,0,1,1,5.29,0v10.24A2.64,2.64,0,0,1,209.57,103.79Z"/><path class="cls-2" d="M217.48,106.78a2.61,2.61,0,0,1-.94-.18l-7.91-3a2.64,2.64,0,0,1,1.87-4.94l7.91,3a2.65,2.65,0,0,1-.93,5.12Z"/><path class="cls-2" d="M132.51,232.18H80.27a2.64,2.64,0,0,1-2.64-2.64V188.43a2.65,2.65,0,0,1,2.64-2.65h52.24a2.65,2.65,0,0,1,2.64,2.65v41.11A2.64,2.64,0,0,1,132.51,232.18ZM82.92,226.9h46.94V191.07H82.92Z"/><path class="cls-2" d="M125.12,221h-7.05a2.65,2.65,0,0,1-2.65-2.64v-5.55a2.65,2.65,0,0,1,2.65-2.65h7.05a2.65,2.65,0,0,1,2.64,2.65v5.55A2.65,2.65,0,0,1,125.12,221Zm-4.41-5.29,1.76-.26Z"/><path class="cls-2" d="M90.17,190a2.65,2.65,0,0,1-2.65-2.64v-8a2.65,2.65,0,0,1,5.29,0v8A2.65,2.65,0,0,1,90.17,190Z"/><path class="cls-2" d="M132.51,200.62H80.27a2.65,2.65,0,0,1,0-5.29h52.24a2.65,2.65,0,0,1,0,5.29Z"/><path class="cls-2" d="M121.59,190a2.65,2.65,0,0,1-2.64-2.64v-8a2.65,2.65,0,0,1,5.29,0v8A2.65,2.65,0,0,1,121.59,190Z"/><path class="cls-2" d="M224.6,425.21H197.68a8.2,8.2,0,0,1-8.09-7.07s-3.33-24.52-3.52-25.88c-.34-2.37-1.68-2.69-2.94-2.69H180a2.64,2.64,0,0,1,0-5.28h3.09c4.4,0,7.53,2.77,8.17,7.22.2,1.35,3.53,25.92,3.53,25.92a2.89,2.89,0,0,0,2.85,2.49H224.6a2.89,2.89,0,0,0,2.86-2.52l2.31-18.34a2.87,2.87,0,0,0-2.85-3.23h-19.2a2.65,2.65,0,0,1,0-5.29h19.2a8.16,8.16,0,0,1,8.09,9.19l-2.31,18.34A8.17,8.17,0,0,1,224.6,425.21Z"/><path class="cls-2" d="M200.09,440.75a5,5,0,1,1,5-5A5,5,0,0,1,200.09,440.75Zm-.28-5a.29.29,0,0,0,.28.28Z"/><path class="cls-2" d="M222,440.75a5,5,0,1,1,5-5A5,5,0,0,1,222,440.75Zm-.27-5a.28.28,0,0,0,.27.28Z"/><path class="cls-2" d="M121.66,425.33H94.74a8.19,8.19,0,0,1-8.09-7.06s-3.33-24.53-3.52-25.88c-.34-2.37-1.68-2.69-2.94-2.69H77.1a2.65,2.65,0,0,1,0-5.29h3.09c4.4,0,7.53,2.77,8.17,7.22.19,1.35,3.53,25.93,3.53,25.93A2.89,2.89,0,0,0,94.74,420h26.92a2.88,2.88,0,0,0,2.86-2.52l2.31-18.33a2.86,2.86,0,0,0-.69-2.26,2.82,2.82,0,0,0-2.16-1,2.65,2.65,0,0,1,0-5.29,8.15,8.15,0,0,1,8.09,9.18l-2.31,18.34A8.18,8.18,0,0,1,121.66,425.33Z"/><path class="cls-2" d="M97.15,440.88a5,5,0,1,1,5-5A5,5,0,0,1,97.15,440.88Zm-.28-5a.28.28,0,0,0,.28.27Z"/><path class="cls-2" d="M119,440.88a5,5,0,1,1,5-5A5,5,0,0,1,119,440.88Zm-.27-5a.28.28,0,0,0,.27.27Z"/><path class="cls-2" d="M115.32,403.18H101.05a2.35,2.35,0,0,1,0-4.7h14.27a2.35,2.35,0,1,1,0,4.7Z"/><path class="cls-2" d="M108.18,411a2.35,2.35,0,0,1-2.35-2.35V392.94a2.35,2.35,0,1,1,4.7,0v15.68A2.35,2.35,0,0,1,108.18,411Z"/><path class="cls-2" d="M521.69,438a23.06,23.06,0,0,1-23-23,2.35,2.35,0,1,1,4.7,0,18.33,18.33,0,1,0,36.66,0,2.35,2.35,0,0,1,4.7,0A23.06,23.06,0,0,1,521.69,438Z"/><path class="cls-2" d="M423.39,423.25a2.35,2.35,0,1,1,0-4.7,7.46,7.46,0,1,0,0-14.92,2.35,2.35,0,1,1,0-4.7,12.16,12.16,0,1,1,0,24.32Z"/><path class="cls-2" d="M423.39,432.45a2.35,2.35,0,1,1,0-4.7A16.66,16.66,0,0,0,426,394.63a16.25,16.25,0,0,0-2.62-.2,2.35,2.35,0,1,1,0-4.7,21.74,21.74,0,0,1,3.35.25,21.37,21.37,0,0,1-3.35,42.47Z"/><path class="cls-2" d="M423.39,441.59a2.35,2.35,0,0,1,0-4.7,25.8,25.8,0,1,0,0-51.6,2.35,2.35,0,1,1,0-4.7,30.5,30.5,0,0,1,0,61Z"/><path class="cls-2" d="M521.69,429.08a14.18,14.18,0,0,1-14.17-14.16V391.73a14.16,14.16,0,1,1,28.32,0v23.19A14.17,14.17,0,0,1,521.69,429.08Zm0-46.81a9.47,9.47,0,0,0-9.46,9.46v23.19a9.46,9.46,0,1,0,18.91,0V391.73A9.46,9.46,0,0,0,521.69,382.27Z"/><path class="cls-1" d="M407.61,394.79s-9.58,7.1-9.7,7.22h-4.66a5.12,5.12,0,0,0-5.1,5.11v7.94a5.12,5.12,0,0,0,5.1,5.1h4.66c.12.13,9.7,7.23,9.7,7.23a1.89,1.89,0,0,0,2.83-1.63V396.42A1.88,1.88,0,0,0,407.61,394.79Z"/><path class="cls-2" d="M408.56,430.29a4.46,4.46,0,0,1-2.26-.61c-5.66-4.18-8.15-6-9.28-6.88h-3.77a7.76,7.76,0,0,1-7.75-7.75v-7.93a7.76,7.76,0,0,1,7.75-7.75H397c1.1-.84,3.53-2.65,9-6.71a1.67,1.67,0,0,1,.26-.17,4.53,4.53,0,0,1,6.79,3.93v29.34a4.49,4.49,0,0,1-2.26,3.91A4.44,4.44,0,0,1,408.56,430.29Zm-15.31-25.63a2.46,2.46,0,0,0-2.46,2.46v7.93a2.46,2.46,0,0,0,2.46,2.46h4.66a2.66,2.66,0,0,1,1.91.82l8,5.91V397.93c-2.54,1.89-7.74,5.74-8.22,6.12a1.93,1.93,0,0,1-1.67.61Z"/><path class="cls-2" d="M417.4,123.64a23,23,0,1,1,23-23A23.05,23.05,0,0,1,417.4,123.64Zm0-40.75a17.73,17.73,0,1,0,17.72,17.73A17.76,17.76,0,0,0,417.4,82.89Z"/><path class="cls-2" d="M209.57,123.39a23,23,0,1,1,23-23A23,23,0,0,1,209.57,123.39Zm0-40.74a17.73,17.73,0,1,0,17.72,17.72A17.75,17.75,0,0,0,209.57,82.65Z"/><path class="cls-2" d="M313.74,123.18a22.42,22.42,0,1,1,10.9-42,2.64,2.64,0,0,1,1,3.59,2.67,2.67,0,0,1-3.59,1,17.13,17.13,0,1,0,8.81,15,16.88,16.88,0,0,0-.14-2.15,2.65,2.65,0,0,1,2.29-3A2.53,2.53,0,0,1,336,98a21.65,21.65,0,0,1,.16,2.81A22.43,22.43,0,0,1,313.74,123.18Z"/><path class="cls-2" d="M314.09,108.39a2.66,2.66,0,0,1-1.87-.77l-7.38-7.38a2.64,2.64,0,0,1,3.74-3.74l5.51,5.51,17.56-17.57a2.64,2.64,0,0,1,3.74,3.74L316,107.62A2.68,2.68,0,0,1,314.09,108.39Z"/><path class="cls-2" d="M521.81,212.23a2.66,2.66,0,0,1-1.87-.77l-7.38-7.37a2.64,2.64,0,0,1,3.74-3.74l5.51,5.5,17.56-17.57a2.64,2.64,0,0,1,3.74,3.74l-19.43,19.44A2.66,2.66,0,0,1,521.81,212.23Z"/><path class="cls-2" d="M230.56,87.86a3,3,0,0,1-2.08-.86l-3.61-3.61A2.94,2.94,0,1,1,229,79.23l3.61,3.62a2.94,2.94,0,0,1-2.07,5Z"/><path class="cls-2" d="M188.12,88.29a2.94,2.94,0,0,1-2.08-5l4.48-4.48A2.94,2.94,0,1,1,194.67,83l-4.48,4.47A2.92,2.92,0,0,1,188.12,88.29Z"/><path class="cls-2" d="M105.7,104.31a2.65,2.65,0,0,1-2.65-2.64V91.42a2.65,2.65,0,0,1,5.29,0v10.25A2.65,2.65,0,0,1,105.7,104.31Z"/><path class="cls-2" d="M113.61,107.3a2.77,2.77,0,0,1-.93-.17l-7.92-3a2.64,2.64,0,0,1,1.87-4.94l7.92,3a2.65,2.65,0,0,1-.94,5.12Z"/><path class="cls-2" d="M105.7,123.91a23,23,0,1,1,23-23A23.05,23.05,0,0,1,105.7,123.91Zm0-40.74a17.73,17.73,0,1,0,17.73,17.72A17.75,17.75,0,0,0,105.7,83.17Z"/><path class="cls-2" d="M111.64,76.79H99.76a2.94,2.94,0,1,1,0-5.87h11.88a2.94,2.94,0,1,1,0,5.87Z"/><path class="cls-2" d="M521.18,112.77a2.64,2.64,0,0,1-2.63-2.64V99.2a2.64,2.64,0,1,1,5.27,0v10.93A2.64,2.64,0,0,1,521.18,112.77Z"/><path class="cls-2" d="M521.18,94.58A2.76,2.76,0,1,1,524,91.82,2.85,2.85,0,0,1,521.18,94.58Zm2.53-2.76h0Zm-2.53,0h0Z"/><path class="cls-2" d="M626.44,123.75a23,23,0,1,1,23-23A23,23,0,0,1,626.44,123.75Zm0-40.75a17.73,17.73,0,1,0,17.73,17.73A17.76,17.76,0,0,0,626.44,83Z"/><path class="cls-2" d="M626.44,104.6A2.64,2.64,0,0,1,623.8,102V91a2.64,2.64,0,1,1,5.28,0V102A2.64,2.64,0,0,1,626.44,104.6Z"/><path class="cls-2" d="M626.44,112.1a2.76,2.76,0,1,1,2.75-2.76A2.84,2.84,0,0,1,626.44,112.1Z"/></svg>