<svg id="Layer_1" data-name="Layer 1" xmlns="http://www.w3.org/2000/svg" viewBox="0 0 78.22 67.04"><defs><style>.cls-1{fill:#fff;}</style></defs><title>KaraHealthIcons</title><path class="cls-1" d="M32.57.94A32.58,32.58,0,1,0,65.14,33.52,32.61,32.61,0,0,0,32.57.94Zm0,60.33A27.75,27.75,0,1,1,60.33,33.52,27.79,27.79,0,0,1,32.57,61.27Z"/><path class="cls-1" d="M35.19,35.49V19.09a2.62,2.62,0,0,0-5.24,0v16.4a2.63,2.63,0,0,0,5.24,0Z"/><path class="cls-1" d="M32.57,43.38a2.8,2.8,0,1,0,2.79,2.8A2.95,2.95,0,0,0,32.57,43.38Z"/></svg>