<?xml version="1.0" encoding="utf-8"?>
<!-- Generator: Adobe Illustrator 23.0.1, SVG Export Plug-In . SVG Version: 6.00 Build 0)  -->
<svg version="1.1" id="Layer_1" xmlns="http://www.w3.org/2000/svg" xmlns:xlink="http://www.w3.org/1999/xlink" x="0px" y="0px"
	 viewBox="0 0 734.5 417.1" style="enable-background:new 0 0 734.5 417.1;" xml:space="preserve">
<style type="text/css">
	.st0{fill:#010101;}
	.st1{fill:#FFFFFF;}
</style>
<title>KaraHealthIconGallery</title>
<path class="st0" d="M625.5,128.8c-2.2,0-4.4-0.7-6.2-1.9c-7.2-4.9-20.1-18.7-22.5-22.5c-5.6-8.9-2.9-20.6,6-26.2
	c3-1.9,6.5-2.9,10.1-2.9c4.7,0,9.2,1.8,12.6,5.1c3.4-3.2,7.9-5,12.6-5.1c10.5,0,19,8.5,19,19c0,3.6-1,7-2.9,10.1
	c-2.4,3.8-15.3,17.6-22.5,22.5C629.9,128.1,627.7,128.8,625.5,128.8z M612.9,80.6c-7.6,0-13.7,6.1-13.7,13.6c0,2.6,0.7,5.2,2.1,7.4
	c1.8,3,14.2,16.3,21,21c1.9,1.3,4.5,1.3,6.4,0c6.8-4.7,19.2-18,21-21c4-6.4,2.1-14.9-4.3-18.9c-2.2-1.4-4.7-2.1-7.3-2.1
	c-4.1,0-8,2-10.5,5.3c-1,1.1-2.7,1.3-3.9,0.3c-0.1-0.1-0.2-0.2-0.3-0.3C620.9,82.6,617,80.6,612.9,80.6z"/>
<path class="st0" d="M419.1,128.6c-2.2,0-4.4-0.7-6.2-1.9c-7.2-4.9-20.1-18.7-22.5-22.5c-5.6-8.9-2.9-20.6,6-26.2
	c3-1.9,6.5-2.9,10.1-2.9c4.7,0,9.2,1.8,12.6,5.1c3.4-3.2,7.9-5,12.6-5.1c10.5,0,19,8.5,19,19c0,3.6-1,7.1-2.9,10.1
	c-2.4,3.8-15.3,17.6-22.5,22.5C423.5,127.9,421.3,128.5,419.1,128.6z M406.5,80.3c-7.6,0-13.7,6.1-13.7,13.7c0,2.6,0.7,5.1,2.1,7.3
	c1.9,3,14.2,16.3,21,21c1.9,1.3,4.5,1.3,6.4,0c6.8-4.7,19.2-18,21-21c4-6.4,2.1-14.9-4.3-18.9c-2.2-1.4-4.7-2.1-7.3-2.1
	c-4.1,0-8,2-10.5,5.3c-1,1.1-2.7,1.3-3.8,0.3c-0.1-0.1-0.2-0.2-0.3-0.3C414.5,82.3,410.6,80.4,406.5,80.3L406.5,80.3z"/>
<path class="st0" d="M521.2,129c-2.2,0-4.4-0.7-6.2-1.9c-7.2-4.9-20.1-18.7-22.5-22.5c-5.6-8.9-2.9-20.6,6-26.2
	c3-1.9,6.5-2.9,10.1-2.9c4.7,0,9.2,1.8,12.6,5.1c3.4-3.2,7.9-5,12.6-5.1c10.5,0,19,8.5,19,19c0,3.6-1,7.1-2.9,10.1
	c-2.4,3.8-15.3,17.6-22.5,22.5C525.6,128.4,523.4,129,521.2,129z M508.6,80.8c-7.6,0-13.7,6.1-13.7,13.7c0,2.6,0.7,5.1,2.1,7.3
	c1.9,3,14.2,16.3,21,21c1.9,1.3,4.5,1.3,6.4,0c6.8-4.7,19.2-18,21-21c4-6.4,2.1-14.9-4.3-18.9c-2.2-1.4-4.7-2.1-7.3-2.1
	c-4.1,0-8,2-10.5,5.3c-0.5,0.6-1.3,1-2.1,1l0,0c-0.8,0-1.6-0.4-2.1-1C516.6,82.8,512.7,80.9,508.6,80.8z"/>
<path class="st0" d="M121.6,328.6c-1.3,0-2.3-1.1-2.3-2.4c0-0.6,0.2-1.2,0.7-1.6l10.2-10.2c3.4-3.4,3.4-8.9,0-12.3
	c-3.4-3.3-8.8-3.3-12.3,0l-10.2,10.2c-0.9,0.9-2.4,0.9-3.3,0s-0.9-2.4,0-3.3l10.2-10.2c5.3-5,13.6-5,18.9,0c5.2,5.2,5.2,13.7,0,18.9
	l-10.2,10.2C122.8,328.3,122.2,328.6,121.6,328.6z"/>
<path class="st0" d="M103.2,343.9c-8.2,0-14.9-6.7-14.9-14.9c0-4,1.6-7.8,4.4-10.6l10.6-10.6c0.9-0.9,2.4-0.9,3.3,0c0,0,0,0,0,0
	l17.8,17.8c0.9,0.9,0.9,2.4,0,3.3l-10.6,10.6C110.9,342.4,107.1,343.9,103.2,343.9z M104.9,312.8l-9,9c-4,4-4,10.5,0,14.5
	c4,4,10.5,4,14.5,0l8.9-9L104.9,312.8z"/>
<path class="st0" d="M90.3,306.8c-8.8,0-15.9-7.1-15.9-15.9c0-8.8,7.1-15.9,15.9-16s15.9,7.1,15.9,15.9c0,0,0,0,0,0
	C106.2,299.6,99.1,306.7,90.3,306.8z M90.3,279.6c-6.2,0-11.2,5-11.2,11.2c0,6.2,5,11.2,11.2,11.2s11.2-5,11.2-11.2
	C101.5,284.6,96.5,279.6,90.3,279.6z"/>
<path class="st0" d="M96.2,293.2H84.3c-1.3-0.1-2.3-1.2-2.2-2.5c0.1-1.2,1-2.1,2.2-2.2h11.9c1.3-0.1,2.4,0.9,2.5,2.2
	c0.1,1.3-0.9,2.4-2.2,2.5C96.4,293.2,96.3,293.2,96.2,293.2z"/>
<path class="st0" d="M199,336.1c-8.2,0-14.9-6.7-14.9-14.9c0-4,1.6-7.8,4.4-10.6L199,300c0.9-0.9,2.4-0.9,3.3,0c0,0,0,0,0,0
	l17.8,17.8c0.9,0.9,0.9,2.4,0,3.3c0,0,0,0,0,0l-10.6,10.6C206.7,334.5,202.9,336.1,199,336.1z M200.7,305l-9,9c-4,4-4,10.5,0,14.5
	c4,4,10.5,4,14.5,0l8.9-9L200.7,305z"/>
<path class="st0" d="M218.6,321.6c-0.6,0-1.2-0.2-1.7-0.7l-17.8-17.8c-0.9-0.9-0.9-2.4,0-3.3c0,0,0,0,0,0l10.6-10.6
	c5.9-5.6,15.2-5.6,21.1,0c5.8,5.8,5.8,15.3,0,21.1c0,0,0,0,0,0L220.3,321C219.8,321.4,219.2,321.7,218.6,321.6z M204.2,301.5
	l14.4,14.5l9-9c4-4,4-10.4,0.1-14.4c0,0,0,0-0.1-0.1c-4-4-10.5-4-14.4,0L204.2,301.5z"/>
<path class="st0" d="M439.5,230.1c-0.6,0-1.2-0.3-1.7-0.7l-4.5-4.5c-0.9-0.9-0.9-2.4,0-3.3c0.9-0.9,2.4-0.9,3.3,0l4.5,4.5
	c0.9,0.9,0.9,2.4-0.1,3.3C440.7,229.9,440.1,230.1,439.5,230.1L439.5,230.1z"/>
<path class="st0" d="M408.2,198.8c-0.6,0-1.2-0.3-1.7-0.7l-5-5c-0.9-0.9-0.9-2.4,0-3.3c0.9-0.9,2.4-0.9,3.3,0l5,5
	c0.9,0.9,0.9,2.4,0,3.3C409.4,198.6,408.8,198.8,408.2,198.8L408.2,198.8z"/>
<path class="st0" d="M397.2,197.3c-1.3,0-2.3-1.1-2.3-2.4c0-0.6,0.2-1.2,0.7-1.6l9.5-9.5c0.9-0.9,2.4-0.9,3.3,0
	c0.9,0.9,0.9,2.4,0,3.3l0,0l-9.5,9.4C398.5,197.1,397.9,197.3,397.2,197.3z"/>
<path class="st0" d="M409.8,209.3c-1.3,0-2.3-1.1-2.3-2.4c0-0.6,0.2-1.2,0.7-1.6l8.9-8.9c0.9-0.9,2.4-0.9,3.3,0
	c0.9,0.9,0.9,2.4,0,3.3l0,0l-8.9,8.9C411,209,410.4,209.3,409.8,209.3z"/>
<path class="st0" d="M419.7,218.8c-1.3,0-2.3-1.1-2.3-2.4c0-0.6,0.2-1.2,0.7-1.6l3.3-3.3c0.9-0.9,2.4-0.9,3.3,0
	c0.9,0.9,0.9,2.4,0,3.3l0,0l-3.3,3.3C420.9,218.6,420.3,218.8,419.7,218.8z"/>
<path class="st0" d="M426.5,227c-0.6,0-1.2-0.2-1.7-0.7L402,203.5c-0.9-0.9-0.9-2.4,0-3.3c0,0,0,0,0,0l9.9-9.9
	c0.9-0.9,2.4-0.9,3.3,0l22.8,22.8c0.5,0.5,0.8,1.3,0.7,2l-1.3,8.4c-0.1,1-0.9,1.8-1.9,2l-8.6,1.5C426.8,227,426.6,227,426.5,227z
	 M407,201.9l20.3,20.3l5.8-1l0.9-5.6l-20.3-20.3L407,201.9z"/>
<path class="st0" d="M516.5,210.3h-4.7c-1.3,0-2.4-1-2.4-2.3c0-1.3,1-2.4,2.3-2.4c0,0,0,0,0,0h4.7c1.3,0,2.4,1,2.4,2.3
	C518.8,209.2,517.8,210.3,516.5,210.3C516.5,210.3,516.5,210.3,516.5,210.3z"/>
<path class="st0" d="M516.5,197h-4.7c-1.3-0.1-2.3-1.2-2.2-2.5c0.1-1.2,1-2.1,2.2-2.2h4.7c1.3,0.1,2.3,1.2,2.2,2.5
	C518.6,196,517.7,196.9,516.5,197z"/>
<path class="st0" d="M101.3,101.8H87.7c-1.3,0-2.3-1.1-2.3-2.3V78.1c0.1-1.3,1.2-2.3,2.5-2.2c1.2,0.1,2.1,1,2.2,2.2v19h8.8v-19
	c0-1.3,1-2.4,2.3-2.4s2.4,1,2.4,2.3c0,0,0,0,0,0v21.4C103.6,100.7,102.6,101.8,101.3,101.8z"/>
<path class="st0" d="M120,103.3h-1.9c-1.3,0-2.4-1-2.4-2.3c0-1.1,0.8-2.1,1.9-2.3V86.6c0-3.4-2.8-6.2-6.2-6.2c-1.3,0-2.4-1-2.4-2.3
	s1-2.4,2.3-2.4c0,0,0,0,0,0c6,0,10.9,4.9,10.9,10.9V101C122.3,102.3,121.3,103.3,120,103.3z"/>
<path class="st0" d="M94.4,128.6c-1.3,0-2.3-1.1-2.3-2.3V89c0-1.3,1.1-2.3,2.4-2.3c1.3,0,2.3,1.1,2.3,2.3v37.2
	C96.8,127.5,95.7,128.6,94.4,128.6z"/>
<path class="st0" d="M94.4,90.1c-1.3,0-2.3-1.1-2.3-2.3v-9.7c0-1.3,1-2.4,2.3-2.4s2.4,1,2.4,2.3c0,0,0,0,0,0v9.7
	C96.8,89.1,95.7,90.1,94.4,90.1z"/>
<path class="st0" d="M111.5,129.4c-1.3,0-2.3-1.1-2.3-2.3v-49c0-1.3,1-2.4,2.3-2.4s2.4,1,2.4,2.3c0,0,0,0,0,0v49
	C113.8,128.4,112.8,129.4,111.5,129.4z"/>
<rect x="90.1" y="76" class="st1" width="1.9" height="20.9"/>
<rect x="96.8" y="76" class="st1" width="1.9" height="20.9"/>
<path class="st0" d="M212.8,222.8c-0.6,0-1.2-0.2-1.7-0.7l-17.8-17.8c-0.9-0.9-0.9-2.4,0-3.3l14.1-14.1c0.9-0.9,2.4-0.9,3.3,0
	l17.8,17.8c0.9,0.9,0.9,2.4,0,3.3c0,0,0,0,0,0l-14.1,14.1C214,222.5,213.4,222.8,212.8,222.8z M198.3,202.6l14.5,14.5l10.8-10.8
	l-14.5-14.5L198.3,202.6z"/>
<path class="st0" d="M634.7,193.9c-1.3,0-2.4-1.1-2.4-2.4v-7.2h-13.7v7.2c0,1.3-1.1,2.4-2.3,2.4c-1.3,0-2.4-1.1-2.4-2.4V182
	c0-1.3,1.1-2.3,2.3-2.4h18.4c1.3,0,2.3,1.1,2.3,2.4v9.5C637,192.8,636,193.9,634.7,193.9L634.7,193.9z"/>
<path class="st0" d="M632.3,235.6h-14.7c-5.9,0-10.7-4.8-10.7-10.7v-23c0-5.9,4.8-10.7,10.7-10.7h14.7c5.9,0,10.6,4.7,10.7,10.6v23
	C643,230.7,638.2,235.5,632.3,235.6z M617.7,195.9c-3.3,0-6,2.7-6,6v23c0,3.3,2.7,6,6,6l0,0h14.7c3.3,0,6-2.7,6-6v-23
	c0-3.3-2.7-6-6-6H617.7z"/>
<path class="st0" d="M632.6,215.7h-14.3c-1.3,0-2.3-1.1-2.3-2.4c0-1.3,1.1-2.3,2.3-2.3h14.3c1.3,0,2.4,1,2.4,2.3
	C634.9,214.7,633.9,215.7,632.6,215.7C632.6,215.7,632.6,215.7,632.6,215.7z"/>
<path class="st0" d="M625.5,223.5c-1.3,0-2.4-1.1-2.4-2.4v-15.7c0.1-1.3,1.2-2.3,2.5-2.2c1.2,0.1,2.1,1,2.2,2.2v15.7
	C627.8,222.4,626.8,223.5,625.5,223.5z"/>
<path class="st0" d="M323.9,295.8c-1.3,0-2.4-1.1-2.4-2.4l0,0v-7.2h-13.7v7.2c0,1.3-1.1,2.4-2.4,2.4s-2.4-1.1-2.4-2.4v-9.5
	c0-1.3,1.1-2.4,2.4-2.4l0,0h18.4c1.3,0,2.4,1.1,2.4,2.4l0,0v9.5C326.2,294.7,325.2,295.8,323.9,295.8L323.9,295.8z"/>
<path class="st0" d="M321.6,337.5h-14.7c-5.9,0-10.7-4.8-10.7-10.7v-23c0-5.9,4.8-10.7,10.7-10.7h14.6c5.9,0,10.7,4.8,10.7,10.7v23
	C332.2,332.7,327.5,337.5,321.6,337.5z M306.9,297.8c-3.3,0-6,2.7-6,6v23c0,3.3,2.7,6,6,6h14.7c3.3,0,5.9-2.7,6-6v-23
	c0-3.3-2.7-6-6-6H306.9z"/>
<path class="st0" d="M329.9,308.9h-31.3c-1.3,0-2.4-1.1-2.4-2.4s1.1-2.4,2.4-2.4h31.3c1.3,0,2.4,1.1,2.4,2.4
	S331.2,308.9,329.9,308.9L329.9,308.9z"/>
<path class="st0" d="M329.9,326.7h-31.3c-1.3,0.1-2.4-0.9-2.5-2.2s0.9-2.4,2.2-2.5c0.1,0,0.2,0,0.3,0h31.3c1.3,0.1,2.3,1.2,2.2,2.5
	C332,325.7,331.1,326.7,329.9,326.7L329.9,326.7z"/>
<path class="st0" d="M331,196.2h-33.9c-1.3,0-2.4-1.1-2.4-2.3v0v-9.1c0-1.3,1.1-2.4,2.4-2.4l0,0H331c1.3,0,2.4,1.1,2.4,2.3v0v9.1
	C333.4,195.1,332.3,196.2,331,196.2z M299.5,191.5h29.2v-4.4h-29.2L299.5,191.5z"/>
<path class="st0" d="M325.6,229.6h-23.2c-1.3,0-2.4-1.1-2.4-2.3v0v-33.3c0.1-1.3,1.2-2.3,2.5-2.2c1.2,0.1,2.1,1,2.2,2.2v31h18.5v-31
	c0.1-1.3,1.2-2.3,2.5-2.2c1.2,0.1,2.1,1,2.2,2.2v33.3C328,228.5,326.9,229.5,325.6,229.6z"/>
<path class="st0" d="M547.1,289.8h-14.8c-1.3-0.1-2.3-1.2-2.2-2.5c0.1-1.2,1-2.1,2.2-2.2h14.8c1.3,0.1,2.3,1.2,2.2,2.5
	C549.2,288.7,548.3,289.7,547.1,289.8z"/>
<path class="st0" d="M539.8,297.1c-1.3,0-2.3-1.1-2.3-2.4V280c0-1.3,1.1-2.4,2.3-2.4c1.3,0,2.4,1.1,2.4,2.4v14.8
	C542.1,296,541,297.1,539.8,297.1z"/>
<path class="st0" d="M519.6,339.9c-11.9,0-21.5-9.6-21.5-21.5c0-4,1.1-8,3.3-11.4c1.2-2,15.5-20.7,16.4-21.6c0.5-0.5,1.3-0.8,2-0.7
	c0.7,0.1,1.4,0.4,1.9,1c1.5,1.9,14.5,18.6,16.1,21.2l0,0c6.3,10.1,3.2,23.3-6.8,29.6C527.6,338.8,523.6,339.9,519.6,339.9
	L519.6,339.9z M519.6,291.7c-3.9,5-12.6,16.5-13.7,18.2c-4.7,7.6-2.4,17.6,5.2,22.3c7.6,4.7,17.6,2.4,22.3-5.2
	c3.3-5.3,3.3-11.9,0-17.2l0,0C532.3,308.2,525.2,298.9,519.6,291.7L519.6,291.7z"/>
<path class="st0" d="M624,339.9c-11.9,0-21.5-9.6-21.5-21.4c0-4.1,1.1-8,3.3-11.5c1.2-2,15.5-20.7,16.4-21.6c0.5-0.5,1.3-0.8,2-0.7
	c0.7,0.1,1.4,0.4,1.9,1c1.5,1.9,14.5,18.6,16.1,21.2l0,0c6.3,10,3.3,23.3-6.8,29.6C632,338.8,628,339.9,624,339.9z M624,291.7
	c-3.9,5-12.6,16.5-13.7,18.2c-4.8,7.6-2.5,17.6,5.1,22.3c7.6,4.8,17.6,2.5,22.3-5.1c3.3-5.3,3.3-12,0-17.2l0,0
	C636.7,308.2,629.5,298.9,624,291.7L624,291.7z"/>
<path class="st0" d="M441.5,289.8H428c-1.3-0.1-2.3-1.2-2.2-2.5c0.1-1.2,1-2.1,2.2-2.2h13.5c1.3,0.1,2.3,1.2,2.2,2.5
	C443.6,288.7,442.7,289.7,441.5,289.8L441.5,289.8z"/>
<path class="st0" d="M414.6,339.9c-11.9,0-21.5-9.6-21.5-21.5c0-4,1.1-8,3.3-11.4c1.5-2.5,14.6-19.7,16.1-21.6
	c1-1.2,2.7-1.3,3.8-0.4c0.1,0.1,0.3,0.2,0.4,0.4c1.5,1.9,14.5,19,16.1,21.6l0,0c6.3,10.1,3.2,23.3-6.8,29.6
	C422.6,338.8,418.6,339.9,414.6,339.9L414.6,339.9z M414.6,291.4c-5.6,7.4-12.8,16.9-13.7,18.5c-4.7,7.6-2.4,17.6,5.2,22.3
	s17.6,2.4,22.3-5.2c3.3-5.2,3.3-11.9,0-17.1C427.2,308,419.4,297.6,414.6,291.4z"/>
<path class="st0" d="M519.5,112.5c-1,0.3-1.8-0.5-2.3-1.4l-5.6-10.1l-3.8,5.1c-0.5,0.7-1.3,1.1-2.1,1.1h-9.9
	c-1.5-0.1-2.6-1.3-2.5-2.8c0.1-1.3,1.1-2.4,2.5-2.5h8.6l5.5-7.4c0.5-0.7,1.4-1.1,2.3-1.1c0.9,0.1,1.7,0.6,2.2,1.4l5.3,9.6l1.6-2.8
	c0.5-0.8,1.3-1.3,2.3-1.3h10.3c1.5,0.1,2.6,1.3,2.5,2.8c-0.1,1.3-1.1,2.4-2.5,2.5H525l-3.2,5.5C521.3,112,520.4,112.5,519.5,112.5z"
	/>
<path class="st0" d="M521.1,243h-6.7c-1.3,0-2.4-1.1-2.4-2.4v-12.1l-2.9-2.9c-0.4-0.4-0.7-1-0.7-1.7v-43.6c0-1.3,1.1-2.4,2.4-2.4
	l0,0h14.1c1.3,0,2.3,1.1,2.3,2.4V224c0,0.6-0.2,1.2-0.7,1.7l-3.1,3.1v11.9C523.4,242,522.3,243,521.1,243L521.1,243z M516.7,238.3h2
	v-10.5c0-0.6,0.2-1.2,0.7-1.7l3.1-3.1v-40.2h-9.3V223l2.9,2.9c0.4,0.4,0.7,1,0.7,1.7L516.7,238.3z"/>
<path class="st0" d="M221.3,305.6c-0.6,0-1.2-0.2-1.7-0.7l-5.4-5.4c-0.9-0.9-0.9-2.4,0-3.3c0.9-0.9,2.4-0.9,3.3,0l5.4,5.4
	c0.9,0.9,0.9,2.4,0,3.3C222.5,305.4,222,305.6,221.3,305.6L221.3,305.6z"/>
<path class="st0" d="M213.5,209.4c-0.6,0-1.2-0.3-1.7-0.7l-5.4-5.4c-0.9-0.9-0.9-2.4,0-3.3s2.4-0.9,3.3,0l0,0l5.4,5.4
	c0.9,0.9,0.9,2.4,0,3.3C214.8,209.2,214.2,209.4,213.5,209.4z"/>
<path class="st0" d="M203.3,323.6c-0.6,0-1.2-0.2-1.7-0.7l-5.4-5.4c-1-0.9-1-2.4-0.2-3.3c0.9-1,2.4-1,3.3-0.2c0.1,0,0.1,0.1,0.2,0.2
	l5.4,5.4c0.9,0.9,0.9,2.4-0.1,3.3C204.5,323.3,203.9,323.6,203.3,323.6L203.3,323.6z"/>
<path class="st0" d="M198.8,231.5c-8.2,0-14.9-6.7-14.9-14.9c0-4,1.6-7.8,4.4-10.6l10.6-10.6c0.9-0.9,2.4-0.9,3.3,0
	c0.9,0.9,0.9,2.4,0,3.3l-10.6,10.6c-4.1,3.9-4.2,10.4-0.3,14.5c3.9,4.1,10.4,4.2,14.5,0.3c0.1-0.1,0.2-0.2,0.3-0.3l10.6-10.6
	c0.9-0.9,2.4-0.9,3.3,0c0.9,0.9,0.9,2.4,0,3.3l0,0l-10.6,10.6C206.6,229.9,202.8,231.5,198.8,231.5z"/>
<path class="st0" d="M218.5,217.1c-1.3,0-2.3-1.1-2.3-2.4c0-0.6,0.2-1.2,0.7-1.6l10.6-10.6c4-4,4-10.4,0.1-14.4c0,0,0,0-0.1-0.1
	c-4-3.9-10.4-3.9-14.4,0l-10.6,10.6c-0.9,0.9-2.4,0.9-3.3,0s-0.9-2.4,0-3.3l10.6-10.6c5.9-5.6,15.2-5.6,21.1,0
	c5.8,5.8,5.8,15.2,0,21c0,0,0,0,0,0l-10.6,10.6C219.7,216.8,219.1,217.1,218.5,217.1z"/>
<path class="st0" d="M216.5,115.4c-1,0-1.9-0.6-2.2-1.5l-4.5-12.2l-11.8-4.1c-1.2-0.5-1.8-1.8-1.3-3c0.4-1.1,1.7-1.7,2.9-1.4
	l12.9,4.5c0.7,0.2,1.2,0.8,1.4,1.5l4.9,13.3c0.4,1.2-0.2,2.6-1.4,3C217,115.4,216.8,115.5,216.5,115.4L216.5,115.4z"/>
<path class="st0" d="M198.6,128.1c-8.2,0-14.9-6.6-14.9-14.9c0-4,1.6-7.8,4.4-10.6L198.6,92c0.9-0.9,2.4-0.9,3.3,0s0.9,2.4,0,3.3
	L191.4,106c-4,4-4,10.5,0,14.5c4,4,10.5,4,14.5,0l10.6-10.6c1-0.9,2.4-0.8,3.3,0.2c0.8,0.9,0.8,2.3,0,3.2l-10.6,10.6
	C206.3,126.6,202.5,128.1,198.6,128.1z"/>
<path class="st0" d="M218.2,113.7c-1.3,0-2.3-1.1-2.3-2.4c0-0.6,0.2-1.2,0.7-1.6L227.2,99c4-4,4-10.4,0.1-14.4c0,0,0,0-0.1-0.1
	c-4-3.9-10.4-3.9-14.4,0l-10.6,10.6c-0.9,0.9-2.4,0.9-3.3,0c-0.9-0.9-0.9-2.4,0-3.3l10.6-10.6c5.9-5.6,15.2-5.6,21.1,0
	c5.8,5.8,5.8,15.2,0,21.1c0,0,0,0,0,0L219.9,113C219.4,113.4,218.8,113.7,218.2,113.7z"/>
<path class="st0" d="M642.4,298.3c-0.4,0-0.8-0.1-1.1-0.3c-1.1-0.6-1.5-2-0.9-3.2c0,0,0,0,0,0l1.2-2.2h-2.3c-0.8,0-1.6-0.5-2-1.2
	c-0.4-0.8-0.4-1.7,0.1-2.4l3.5-5.6c0.7-1.1,2.2-1.4,3.3-0.7s1.4,2.2,0.7,3.3l0,0l-1.3,2h2c1.3,0,2.4,1.1,2.3,2.4
	c0,0.4-0.1,0.8-0.3,1.1l-3.2,5.7C644.1,297.9,643.3,298.3,642.4,298.3z"/>
<path class="st0" d="M106.2,209.4c-1.2,0-2.2-0.7-2.7-1.8l-4.8-11l-4.8,11c-0.5,1.1-1.5,1.7-2.7,1.8h-4.6c-1.6,0.1-3-1.1-3.1-2.8
	s1.1-3,2.8-3.1c0.1,0,0.2,0,0.3,0h2.7l6.7-15.3c0.8-1.5,2.7-2,4.2-1.2c0.5,0.3,0.9,0.7,1.2,1.2l7.5,17.1c0.7,1.5,0,3.2-1.5,3.9
	c0,0,0,0,0,0C107,209.4,106.6,209.4,106.2,209.4z"/>
<path class="st0" d="M113.7,226.5L113.7,226.5c-1.2,0-2.2-0.7-2.7-1.8l-7.5-17.1c-0.7-1.5,0-3.2,1.5-3.9c1.5-0.7,3.2,0,3.9,1.5
	l4.8,10.9l4.8-10.9c0.5-1.1,1.5-1.7,2.7-1.8h4.6c1.6,0.1,2.9,1.5,2.8,3.1c-0.1,1.5-1.3,2.7-2.8,2.8h-2.7l-6.8,15.3
	C115.9,225.8,114.9,226.5,113.7,226.5z"/>
<path class="st0" d="M321.8,105.2c-1.9,0-3.5-1.6-3.5-3.5s1.6-3.5,3.5-3.5c1.9,0,3.5,1.6,3.5,3.5c0,0,0,0,0,0
	C325.3,103.6,323.7,105.2,321.8,105.2z M321.8,99.9c-1,0-1.8,0.8-1.8,1.8c0,0,0,0,0,0c0,2,3.5,2,3.5,0
	C323.5,100.7,322.7,99.9,321.8,99.9z"/>
<path class="st0" d="M321.8,93.3c-1.9,0-3.5-1.6-3.5-3.5s1.6-3.5,3.5-3.5c1.9,0,3.5,1.6,3.5,3.5c0,0,0,0,0,0
	C325.3,91.7,323.7,93.3,321.8,93.3z M321.8,88c-1,0-1.8,0.8-1.8,1.8c0,0,0,0,0,0c0,1.9,3.5,1.9,3.5,0C323.5,88.8,322.7,88,321.8,88
	C321.8,88,321.8,88,321.8,88L321.8,88z"/>
<path class="st0" d="M321.8,117.1c-1.9,0-3.5-1.6-3.5-3.5s1.6-3.5,3.5-3.5c1.9,0,3.5,1.6,3.5,3.5c0,0,0,0,0,0
	C325.3,115.6,323.7,117.1,321.8,117.1z M321.8,111.8c-1,0-1.8,0.8-1.8,1.7c0,0,0,0,0,0c0,2,3.5,2,3.5,0
	C323.5,112.6,322.7,111.8,321.8,111.8C321.8,111.8,321.8,111.8,321.8,111.8z"/>
<path class="st0" d="M308.4,105.2c-1.9,0-3.5-1.6-3.5-3.5s1.6-3.5,3.5-3.5c1.9,0,3.5,1.6,3.5,3.5c0,0,0,0,0,0
	C311.9,103.6,310.4,105.2,308.4,105.2z M308.4,99.9c-1,0-1.8,0.8-1.8,1.8c0,0,0,0,0,0c0,2,3.5,2,3.5,0
	C310.2,100.7,309.4,99.9,308.4,99.9z"/>
<path class="st0" d="M308.4,93.3c-1.9,0-3.5-1.6-3.5-3.5s1.6-3.5,3.5-3.5c1.9,0,3.5,1.6,3.5,3.5c0,0,0,0,0,0
	C311.9,91.7,310.4,93.3,308.4,93.3z M308.4,88c-1,0-1.8,0.8-1.8,1.8c0,0,0,0,0,0c0,1.9,3.5,1.9,3.5,0C310.2,88.8,309.4,88,308.4,88
	C308.4,88,308.4,88,308.4,88L308.4,88z"/>
<path class="st0" d="M308.4,117.1c-1.9,0-3.5-1.6-3.5-3.5s1.6-3.5,3.5-3.5c1.9,0,3.5,1.6,3.5,3.5c0,0,0,0,0,0
	C311.9,115.6,310.4,117.1,308.4,117.1z M308.4,111.8c-1,0-1.8,0.8-1.8,1.7c0,0,0,0,0,0c0,2,3.5,2,3.5,0
	C310.2,112.6,309.4,111.8,308.4,111.8C308.4,111.8,308.4,111.8,308.4,111.8z"/>
<path class="st0" d="M324.9,127.9h-20.1c-5.1,0-9.2-4.1-9.2-9.2V84.3c0-5.1,4.1-9.2,9.2-9.2h20.1c5.1,0,9.2,4.1,9.2,9.2v34.3
	C334.1,123.7,330,127.9,324.9,127.9z M304.8,80.4c-2.2,0-3.9,1.7-3.9,3.9v34.3c0,2.2,1.8,3.9,3.9,3.9h20.1c2.1,0,3.9-1.7,3.9-3.9
	V84.3c0-2.2-1.7-3.9-3.9-3.9H304.8z"/>
<path class="st0" d="M427.3,104.9h-16.3c-1.3,0-2.3-1.1-2.3-2.4c0-1.3,1.1-2.3,2.3-2.3h16.3c1.3,0,2.4,1,2.4,2.3
	S428.6,104.9,427.3,104.9C427.3,104.9,427.3,104.9,427.3,104.9z"/>
<path class="st0" d="M419.1,113.1c-1.3,0-2.4-1.1-2.4-2.4V94.4c0-1.3,1.1-2.4,2.4-2.4s2.4,1.1,2.4,2.4v16.3
	C421.5,112,420.4,113.1,419.1,113.1z"/>
</svg>
