<?xml version="1.0" encoding="utf-8"?>
<!-- Generator: Adobe Illustrator 22.1.0, SVG Export Plug-In . SVG Version: 6.00 Build 0)  -->
<svg version="1.1" id="Layer_1" xmlns="http://www.w3.org/2000/svg" xmlns:xlink="http://www.w3.org/1999/xlink" x="0px" y="0px"
	 viewBox="0 0 167 56.1" style="enable-background:new 0 0 167 56.1;" xml:space="preserve">
<style type="text/css">
	.st0{fill:#99A1A6;}
</style>
<g>
	<g>
		<path class="st0" d="M58,39.9c0.3,0.3,0.8,0.3,1.1,0l8.2-8.2c2.3-2.3,3.6-5.4,3.6-8.8c0-3.3-1.3-6.4-3.6-8.8
			c-4.8-4.8-12.7-4.8-17.5,0s-4.8,12.7,0,17.5L58,39.9z M58.6,41.2c-0.5,0-0.9-0.2-1.3-0.5l0,0l-8.2-8.2c-5.2-5.2-5.2-13.7,0-19
			c5.2-5.2,13.7-5.2,19,0C70.6,16,72,19.4,72,23s-1.4,7-3.9,9.5l-8.2,8.2C59.5,41,59.1,41.2,58.6,41.2"/>
	</g>
	<g>
		<path class="st0" d="M58.6,17.9c-2.8,0-5.1,2.3-5.1,5.1s2.3,5.1,5.1,5.1s5.1-2.3,5.1-5.1C63.7,20.1,61.4,17.9,58.6,17.9
			 M58.6,29.1c-3.4,0-6.1-2.7-6.1-6.1s2.7-6.1,6.1-6.1c3.4,0,6.1,2.7,6.1,6.1C64.7,26.3,62,29.1,58.6,29.1"/>
	</g>
</g>
</svg>
