<?xml version="1.0" encoding="utf-8"?>
<!-- Generator: Adobe Illustrator 23.0.1, SVG Export Plug-In . SVG Version: 6.00 Build 0)  -->
<svg version="1.1" id="Layer_1" xmlns="http://www.w3.org/2000/svg" xmlns:xlink="http://www.w3.org/1999/xlink" x="0px" y="0px"
	 viewBox="0 0 123 56.1" style="enable-background:new 0 0 123 56.1;" xml:space="preserve">
<style type="text/css">
	.st0{stroke:#FFFFFF;stroke-width:0.25;stroke-miterlimit:10;}
</style>
<path class="st0" d="M60.7,3.5L60.7,3.5h-1l0,0h-16V28h15.9l0,0h1l0,0h15.9V3.5H60.7z M44.8,27V4.5h15V27H44.8z M75.7,27h-15V4.5h15
	V27z"/>
<rect x="64.3" y="21.1" class="st0" width="9.2" height="1"/>
<rect x="64.3" y="16.9" class="st0" width="9.2" height="1"/>
<rect x="64.3" y="12.5" class="st0" width="9.2" height="1"/>
<rect x="64.3" y="8.3" class="st0" width="9.2" height="1"/>
<rect x="47.7" y="21.1" class="st0" width="9.2" height="1"/>
<rect x="47.7" y="16.9" class="st0" width="9.2" height="1"/>
<g>
	<path class="st0" d="M56.8,12.5V9.3l0,0v-1h-9.1v1l0,0v3.1l0,0v1h9.2L56.8,12.5L56.8,12.5z M55.8,12.5h-2.1h-3.1h-2V9.3h7.2V12.5z"
		/>
</g>
</svg>
