<svg id="Layer_1" data-name="Layer 1" xmlns="http://www.w3.org/2000/svg" viewBox="0 0 734.55 622"><defs><style>.cls-1{fill:#fff;}.cls-2{fill:#010101;}</style></defs><title>KaraHealthIconGallery</title><rect class="cls-1" x="79.74" y="77.53" width="576.2" height="468.55"/><path class="cls-2" d="M118.37,205.86a10,10,0,1,1,10-10A10,10,0,0,1,118.37,205.86Zm0-15.26a5.28,5.28,0,1,0,5.28,5.28A5.29,5.29,0,0,0,118.37,190.6Z"/><path class="cls-2" d="M95.09,205.86a10,10,0,1,1,10-10A10,10,0,0,1,95.09,205.86Zm0-15.26a5.28,5.28,0,1,0,5.28,5.28A5.28,5.28,0,0,0,95.09,190.6Z"/><path class="cls-1" d="M297.57,404.45a18.24,18.24,0,0,0-5.23,15.07l-7.15,7.15,16.41,16.4"/><path class="cls-2" d="M301.6,445.43a2.36,2.36,0,0,1-1.67-.69l-16.4-16.41a2.35,2.35,0,0,1,0-3.33l6.37-6.36a20.55,20.55,0,0,1,6-15.85,2.35,2.35,0,0,1,3.33,3.33,15.79,15.79,0,0,0-4.55,13.12,2.37,2.37,0,0,1-.68,1.94l-5.49,5.49,14.75,14.74a2.36,2.36,0,0,1-1.66,4Z"/><path class="cls-1" d="M325.74,428a14.91,14.91,0,0,1-11.16,4.38,14.1,14.1,0,0,1-2.05-.21"/><path class="cls-2" d="M315.13,434.71h-.64a15.75,15.75,0,0,1-2.37-.25,2.35,2.35,0,0,1-1.9-2.73,2.26,2.26,0,0,1,2.72-1.89,14.12,14.12,0,0,0,1.72.18,12.5,12.5,0,0,0,9.42-3.7,2.35,2.35,0,0,1,3.33,3.33A17.47,17.47,0,0,1,315.13,434.71Z"/><path class="cls-2" d="M404.22,94.23H392.41a2.65,2.65,0,1,1,0-5.29h11.81a2.65,2.65,0,0,1,0,5.29Z"/><path class="cls-2" d="M411.12,87.32a2.64,2.64,0,0,1-2.64-2.64V72.87a2.64,2.64,0,1,1,5.28,0V84.68A2.64,2.64,0,0,1,411.12,87.32Z"/><path class="cls-2" d="M404.22,87.32a2.64,2.64,0,0,1-1.87-.77L394,78.2a2.64,2.64,0,0,1,3.74-3.74l8.35,8.35a2.65,2.65,0,0,1,0,3.74A2.68,2.68,0,0,1,404.22,87.32Z"/><line class="cls-1" x1="517.64" y1="117.44" x2="541.22" y2="93.86"/><path class="cls-2" d="M517.64,120.09a2.65,2.65,0,0,1-1.87-4.52L539.35,92a2.64,2.64,0,0,1,3.74,3.74l-23.58,23.58A2.64,2.64,0,0,1,517.64,120.09Z"/><line class="cls-1" x1="533.37" y1="86.01" x2="509.79" y2="109.6"/><path class="cls-2" d="M509.79,112.24a2.64,2.64,0,0,1-1.87-4.51L531.5,84.14a2.64,2.64,0,1,1,3.74,3.74l-23.58,23.59A2.66,2.66,0,0,1,509.79,112.24Z"/><path class="cls-1" d="M541.22,93.86a7.23,7.23,0,1,0,10.22-10.22,7.06,7.06,0,0,0-5.87-2,7.16,7.16,0,0,0-2-5.88A7.23,7.23,0,0,0,533.37,86"/><path class="cls-2" d="M546.34,98.62a9.85,9.85,0,0,1-7-2.89A2.64,2.64,0,0,1,543.09,92a4.55,4.55,0,0,0,3.25,1.34h0A4.55,4.55,0,0,0,549.58,92a4.6,4.6,0,0,0,0-6.48,4.53,4.53,0,0,0-3.73-1.21,2.65,2.65,0,0,1-2.91-2.91,4.53,4.53,0,1,0-7.7,2.75,2.64,2.64,0,0,1-3.74,3.74,9.87,9.87,0,0,1,0-14,9.91,9.91,0,0,1,14,0,9.58,9.58,0,0,1,2.64,5.2,9.53,9.53,0,0,1,5.2,2.65,9.87,9.87,0,0,1-7,16.85Z"/><path class="cls-1" d="M509.79,109.6a7.23,7.23,0,0,0-10.23,10.22,7.11,7.11,0,0,0,5.88,2,7.1,7.1,0,0,0,2,5.87,7.23,7.23,0,0,0,10.23-10.22"/><path class="cls-2" d="M512.52,132.43h0a9.81,9.81,0,0,1-7-2.9,9.45,9.45,0,0,1-2.64-5.19,9.59,9.59,0,0,1-5.2-2.65,9.87,9.87,0,0,1,14-14,2.64,2.64,0,0,1-3.73,3.74,4.59,4.59,0,0,0-6.5,6.48,4.53,4.53,0,0,0,3.73,1.22,2.53,2.53,0,0,1,2.15.75,2.62,2.62,0,0,1,.76,2.15,4.43,4.43,0,0,0,4.45,5.07h0a4.59,4.59,0,0,0,4.59-4.59,4.59,4.59,0,0,0-1.34-3.24,2.64,2.64,0,0,1,3.74-3.74,9.88,9.88,0,0,1-7,16.86Z"/><line class="cls-1" x1="428.1" y1="104" x2="436.35" y2="95.75"/><path class="cls-2" d="M428.1,106.64a2.64,2.64,0,0,1-1.87-4.51l8.25-8.25a2.64,2.64,0,0,1,3.74,3.74L430,105.87A2.6,2.6,0,0,1,428.1,106.64Z"/><line class="cls-1" x1="412.77" y1="119.34" x2="428.1" y2="104"/><path class="cls-2" d="M412.77,122a2.65,2.65,0,0,1-1.87-4.51l15.33-15.34a2.64,2.64,0,0,1,3.74,3.74L414.64,121.2A2.64,2.64,0,0,1,412.77,122Z"/><line class="cls-1" x1="411.84" y1="104.57" x2="404.92" y2="111.49"/><path class="cls-2" d="M404.92,114.13a2.62,2.62,0,0,1-1.87-.77,2.65,2.65,0,0,1,0-3.74L410,102.7a2.64,2.64,0,1,1,3.74,3.74l-6.92,6.92A2.62,2.62,0,0,1,404.92,114.13Z"/><line class="cls-1" x1="428.51" y1="87.9" x2="421.54" y2="94.87"/><path class="cls-2" d="M421.54,97.51a2.68,2.68,0,0,1-1.87-.77,2.65,2.65,0,0,1,0-3.74l7-7a2.64,2.64,0,0,1,3.74,3.74l-7,7A2.64,2.64,0,0,1,421.54,97.51Z"/><path class="cls-1" d="M436.35,95.75a7.23,7.23,0,1,0,10.23-10.22,7.1,7.1,0,0,0-5.88-2,7.13,7.13,0,0,0-2-5.88A7.23,7.23,0,0,0,428.51,87.9"/><path class="cls-2" d="M441.47,100.51a9.85,9.85,0,0,1-7-2.89,2.64,2.64,0,0,1,3.74-3.74,4.55,4.55,0,0,0,3.25,1.34h0a4.58,4.58,0,0,0,3.24-7.82A4.47,4.47,0,0,0,441,86.19a2.65,2.65,0,0,1-2.91-2.91,4.53,4.53,0,1,0-7.7,2.75,2.64,2.64,0,1,1-3.74,3.74,9.87,9.87,0,0,1,0-14,9.91,9.91,0,0,1,14,0,9.58,9.58,0,0,1,2.64,5.2,9.59,9.59,0,0,1,5.21,2.65,9.87,9.87,0,0,1-7,16.85Z"/><path class="cls-1" d="M404.92,111.49a7.23,7.23,0,0,0-10.22,10.22,7.1,7.1,0,0,0,5.88,2,7.09,7.09,0,0,0,2,5.88,7.23,7.23,0,0,0,10.23-10.22"/><path class="cls-2" d="M407.65,134.32h0a9.8,9.8,0,0,1-7-2.9,9.45,9.45,0,0,1-2.64-5.19,9.59,9.59,0,0,1-5.2-2.65,9.87,9.87,0,1,1,14-14,2.64,2.64,0,1,1-3.73,3.74,4.59,4.59,0,1,0-6.49,6.48,4.54,4.54,0,0,0,3.72,1.22,2.49,2.49,0,0,1,2.15.75,2.62,2.62,0,0,1,.76,2.15,4.43,4.43,0,0,0,4.45,5.07h0a4.59,4.59,0,0,0,3.25-7.83,2.64,2.64,0,0,1,3.74-3.73,9.88,9.88,0,0,1-7,16.85Z"/><path class="cls-2" d="M632.72,104.57a2.65,2.65,0,0,1-1.87-4.52,5.23,5.23,0,0,0,0-7.39,5.35,5.35,0,0,0-7.4,0,2.64,2.64,0,0,1-3.74-3.74,10.52,10.52,0,1,1,14.88,14.87A2.64,2.64,0,0,1,632.72,104.57Z"/><path class="cls-2" d="M640.75,112.6a2.65,2.65,0,0,1-1.87-4.52,16.57,16.57,0,0,0,0-23.45,17,17,0,0,0-23.46,0,16.52,16.52,0,0,0-4.78,10.14,2.59,2.59,0,0,1-2.89,2.38,2.65,2.65,0,0,1-2.38-2.89,21.9,21.9,0,0,1,6.31-13.37c8.26-8.26,22.68-8.26,30.93,0a21.86,21.86,0,0,1,0,30.93A2.61,2.61,0,0,1,640.75,112.6Z"/><path class="cls-2" d="M622.64,132.22c-2.76,0-8.57-1.1-11.25-9.83a2.65,2.65,0,1,1,5.06-1.55c.87,2.85,2.57,6.15,6.38,6.09,2.81-.1,5.44-2.21,5.83-4,.74-3.34,6-11,10.3-15a2.64,2.64,0,1,1,3.57,3.89c-3.82,3.52-8.28,10.29-8.71,12.23-1,4.27-5.8,7.89-10.79,8.09Z"/><path class="cls-2" d="M306.66,410a2.36,2.36,0,0,1-1.66-4l5.57-5.56a2.61,2.61,0,0,0,0-3.68,2.35,2.35,0,0,1,3.32-3.33,7.31,7.31,0,0,1,0,10.33l-5.57,5.57A2.32,2.32,0,0,1,306.66,410Z"/><path class="cls-2" d="M296.2,408.18a2.36,2.36,0,0,1-1.66-4l13.36-13.37a2.34,2.34,0,0,1,3.32,0l3.51,3.5a2.35,2.35,0,0,1-3.32,3.33l-1.85-1.84-11.7,11.71A2.32,2.32,0,0,1,296.2,408.18Z"/><path class="cls-2" d="M309.39,421.34a2.72,2.72,0,0,1-.63-.08,2.36,2.36,0,0,1-1.64-2.9,9,9,0,0,0-2.32-8.82,2.35,2.35,0,0,1,3.33-3.33,13.78,13.78,0,0,1,3.52,13.41A2.36,2.36,0,0,1,309.39,421.34Z"/><line class="cls-1" x1="325.27" y1="428.44" x2="337.76" y2="415.95"/><path class="cls-2" d="M325.27,430.79a2.34,2.34,0,0,1-1.67-.68,2.37,2.37,0,0,1,0-3.33l12.49-12.5a2.35,2.35,0,0,1,3.33,3.33l-12.49,12.5A2.33,2.33,0,0,1,325.27,430.79Z"/><path class="cls-1" d="M337.9,415.82a3.73,3.73,0,0,0-5.27-5.28"/><path class="cls-2" d="M337.9,418.17a2.36,2.36,0,0,1-1.67-4,1.36,1.36,0,0,0,0-1.94,1.32,1.32,0,0,0-1-.41h0a1.34,1.34,0,0,0-1,.41,2.35,2.35,0,0,1-3.33-3.33,6,6,0,0,1,4.3-1.78h0a6,6,0,0,1,4.29,1.79,6.08,6.08,0,0,1,0,8.59A2.34,2.34,0,0,1,337.9,418.17Z"/><line class="cls-1" x1="325.74" y1="417.43" x2="337.7" y2="405.47"/><path class="cls-2" d="M325.74,419.78a2.35,2.35,0,0,1-1.66-4l12-12a2.35,2.35,0,0,1,3.33,3.32l-12,12A2.4,2.4,0,0,1,325.74,419.78Z"/><path class="cls-1" d="M337.84,405.33a3.73,3.73,0,0,0-5.27-5.27"/><path class="cls-2" d="M337.84,407.68a2.35,2.35,0,0,1-1.67-4,1.38,1.38,0,0,0,0-1.95,1.33,1.33,0,0,0-1-.4h0a1.38,1.38,0,0,0-1,.4,2.35,2.35,0,0,1-3.33-3.32,6.07,6.07,0,0,1,4.31-1.78h0A6.08,6.08,0,0,1,339.5,407,2.34,2.34,0,0,1,337.84,407.68Z"/><line class="cls-1" x1="330.27" y1="391.81" x2="318.31" y2="403.78"/><path class="cls-2" d="M318.3,406.13a2.36,2.36,0,0,1-1.66-4l12-12a2.35,2.35,0,0,1,3.33,3.33l-12,12A2.35,2.35,0,0,1,318.3,406.13Z"/><line class="cls-1" x1="322.19" y1="410.43" x2="334.16" y2="398.47"/><path class="cls-2" d="M322.19,412.79a2.36,2.36,0,0,1-1.66-4l12-12a2.35,2.35,0,0,1,3.33,3.33l-12,12A2.36,2.36,0,0,1,322.19,412.79Z"/><path class="cls-1" d="M335.68,397a3.73,3.73,0,0,0-5.27-5.27"/><path class="cls-2" d="M335.68,399.3a2.35,2.35,0,0,1-1.66-4,1.41,1.41,0,0,0,0-2,1.38,1.38,0,0,0-1.95,0,2.35,2.35,0,0,1-3.33-3.33,6.08,6.08,0,0,1,8.6,8.59A2.33,2.33,0,0,1,335.68,399.3Z"/><line class="cls-1" x1="323.81" y1="387.73" x2="313.96" y2="397.58"/><path class="cls-2" d="M314,399.93a2.35,2.35,0,0,1-1.67-4l9.86-9.85a2.35,2.35,0,0,1,3.32,3.32l-9.85,9.86A2.37,2.37,0,0,1,314,399.93Z"/><line class="cls-1" x1="317.23" y1="404.85" x2="328.89" y2="393.2"/><path class="cls-2" d="M317.23,407.2a2.35,2.35,0,0,1-1.66-4l11.65-11.66a2.35,2.35,0,0,1,3.33,3.33l-11.66,11.65A2.32,2.32,0,0,1,317.23,407.2Z"/><path class="cls-1" d="M329,393.06a3.73,3.73,0,0,0-5.27-5.27"/><path class="cls-2" d="M329,395.41a2.33,2.33,0,0,1-1.66-.68,2.35,2.35,0,0,1,0-3.33,1.38,1.38,0,1,0-2-1.95,2.35,2.35,0,1,1-3.31-3.33,6.08,6.08,0,0,1,8.6,8.61A2.34,2.34,0,0,1,329,395.41Z"/><line class="cls-1" x1="312.53" y1="432.14" x2="301.78" y2="442.89"/><path class="cls-2" d="M301.78,445.24a2.35,2.35,0,0,1-1.67-4l10.76-10.76a2.35,2.35,0,0,1,3.32,3.33l-10.75,10.75A2.34,2.34,0,0,1,301.78,445.24Z"/><path class="cls-2" d="M307.38,439.64a2.34,2.34,0,0,1-1.66-.69l-16.41-16.41a2.35,2.35,0,0,1,3.33-3.32l16.41,16.4a2.36,2.36,0,0,1-1.67,4Z"/><path class="cls-2" d="M626.35,215.07a8.18,8.18,0,0,1-8.18-8.16,2.36,2.36,0,1,1,4.71,0,3.47,3.47,0,1,0,3.47-3.47,2.36,2.36,0,0,1,0-4.71,8.17,8.17,0,0,1,0,16.34Z"/><path class="cls-2" d="M626.35,225.07a18.17,18.17,0,1,1,18.17-18.16A18.2,18.2,0,0,1,626.35,225.07Zm0-31.64a13.47,13.47,0,1,0,13.46,13.48A13.49,13.49,0,0,0,626.35,193.43Z"/><path class="cls-2" d="M626.35,225.07c-17.84,0-33.83-14-33.83-18.16s16-18.18,33.83-18.18,33.82,14,33.82,18.18S643.79,225.07,626.35,225.07Zm-28.91-18.15c2.24,3.18,14.41,13.45,28.91,13.45,14.24,0,26.26-10.38,28.81-13.52-2.41-3.1-14.14-13.42-28.81-13.42C612,193.43,599.73,203.73,597.44,206.92Zm60.26.37h0Z"/><path class="cls-2" d="M521.48,209.16a93.57,93.57,0,0,1-10.29-.63,49.24,49.24,0,0,0-5.05-.37H492.69a2.65,2.65,0,0,1-1.76-4.63c2.51-2.22,15.38-13.34,22-13.34,8.08,0,11.12,5.6,11.59,8.57a2.64,2.64,0,0,1-5.22.83c-.12-.65-1.06-4.12-6.37-4.12-2.41,0-7.88,3.55-12.86,7.4h6.1a54.7,54.7,0,0,1,5.6.4,85.67,85.67,0,0,0,9.74.61,2.64,2.64,0,0,1,0,5.28Z"/><path class="cls-2" d="M522.29,209.16a2.64,2.64,0,1,1,0-5.28,85.67,85.67,0,0,0,9.74-.61,54.71,54.71,0,0,1,5.59-.4h6.1c-5-3.85-10.45-7.4-12.85-7.4-5.32,0-6.25,3.47-6.38,4.16a2.68,2.68,0,0,1-3.06,2.12,2.63,2.63,0,0,1-2.16-3c.48-3,3.52-8.57,11.6-8.57,6.59,0,19.45,11.12,22,13.34a2.65,2.65,0,0,1-1.76,4.63H537.62a49.26,49.26,0,0,0-5,.37A93.74,93.74,0,0,1,522.29,209.16Z"/><path class="cls-2" d="M521.88,220.55c-10.74,0-17.6-5.2-22.6-9-2.65-2-4.94-3.74-6.59-3.74a2.65,2.65,0,1,1,0-5.29c3.43,0,6.37,2.23,9.78,4.82,4.66,3.53,10.45,7.93,19.41,7.93s14.22-4.12,19-7.76c3.51-2.68,6.53-5,10.23-5a2.65,2.65,0,1,1,0,5.29c-1.91,0-4.28,1.8-7,3.9C539.18,215.44,532.49,220.55,521.88,220.55Z"/><path class="cls-2" d="M224.82,440.87c-7.17,0-12.95-5.11-12.95-11.38a68.15,68.15,0,0,1,.35-9.21l2.18-15.49c.56-4,3.51-8.23,7.89-8.23,12.47,0,13.91,18.79,13.91,32.93A11.27,11.27,0,0,1,224.82,440.87Zm-2.53-39.61c-1.71,0-3,2.47-3.23,4.17L216.86,421l0,.1a63.31,63.31,0,0,0-.27,8.35c0,3.74,3.67,6.73,8.17,6.73a6.62,6.62,0,0,0,6.76-6.67C231.5,410.76,228.4,401.26,222.29,401.26Zm-7.76,19.39h0Z"/><path class="cls-2" d="M224,418a2,2,0,0,1-.64-.09l-11.51-3.31a7.37,7.37,0,0,1-5.31-7.06V388.51a2.35,2.35,0,0,1,4.7,0v19.07a2.64,2.64,0,0,0,1.91,2.54l11.5,3.31A2.35,2.35,0,0,1,224,418Z"/><path class="cls-2" d="M193,440.87a11.28,11.28,0,0,1-11.46-11.38c0-14.14,1.44-32.93,13.9-32.93,4.37,0,7.33,4.23,7.9,8.23l2.18,15.49a66.64,66.64,0,0,1,.34,9.26C205.86,435.76,200.08,440.87,193,440.87Zm2.44-39.61c-6.1,0-9.2,9.5-9.2,28.23a6.6,6.6,0,0,0,6.68,6.67c4.58,0,8.24-3,8.24-6.67a62.21,62.21,0,0,0-.27-8.41V421l-2.19-15.54C198.43,403.73,197.14,401.26,195.43,401.26Z"/><path class="cls-2" d="M193.74,418a2.35,2.35,0,0,1-.65-4.61l11.51-3.31a2.65,2.65,0,0,0,1.92-2.54V388.51a2.35,2.35,0,0,1,4.7,0v19.07a7.38,7.38,0,0,1-5.32,7.06L194.39,418A2.08,2.08,0,0,1,193.74,418Z"/><path class="cls-2" d="M90.19,427.6H80.54a2.65,2.65,0,1,1,0-5.29h9.65a2.65,2.65,0,1,1,0,5.29Z"/><path class="cls-2" d="M125.61,443.11H80.54a2.65,2.65,0,1,1,0-5.29h45.07a2.24,2.24,0,0,0,2.24-2.25V397.71l-11-11.77-8,4,3.19,5.43.72.11h5.37a2.64,2.64,0,0,1,2.63,2.64V425a2.65,2.65,0,0,1-2.64,2.65H107.78a2.65,2.65,0,0,1,0-5.29h7.64V400.72h-3.13l-2.37-.34a2.64,2.64,0,0,1-1.87-1.27l-5.25-9a2.65,2.65,0,0,1,1.11-3.71l12.32-6.11a2.65,2.65,0,0,1,3.1.57l13.09,14a2.65,2.65,0,0,1,.72,1.81v38.9A7.54,7.54,0,0,1,125.61,443.11Z"/><path class="cls-2" d="M107.78,427.6a2.65,2.65,0,0,1-2.64-2.65,6.15,6.15,0,0,0-12.3,0,2.65,2.65,0,1,1-5.29,0,11.44,11.44,0,0,1,22.88,0A2.65,2.65,0,0,1,107.78,427.6Z"/><path class="cls-2" d="M410.44,216.82h-3.73a15.2,15.2,0,0,1-15.18-15.19V185.75a2.64,2.64,0,0,1,2.64-2.64h4.38a2.65,2.65,0,0,1,0,5.29h-1.74v13.23a9.91,9.91,0,0,0,9.9,9.9h3.73a9.91,9.91,0,0,0,9.89-9.9V188.4h-.63a2.65,2.65,0,1,1,0-5.29H423a2.64,2.64,0,0,1,2.64,2.64v15.88A15.2,15.2,0,0,1,410.44,216.82Z"/><path class="cls-2" d="M430.05,234.08H417.12a11.2,11.2,0,0,1-11.19-11.19v-8.71a2.65,2.65,0,1,1,5.29,0v8.71a5.9,5.9,0,0,0,5.9,5.9h12.93a5.91,5.91,0,0,0,5.91-5.9v-8.71a2.64,2.64,0,1,1,5.28,0v8.71A11.2,11.2,0,0,1,430.05,234.08Z"/><path class="cls-2" d="M438.26,216.64a6.91,6.91,0,1,1,6.9-6.91,2.65,2.65,0,0,1-5.29,0c0-1.79-3.24-1.79-3.24,0a1.62,1.62,0,0,0,1.63,1.62,2.65,2.65,0,0,1,0,5.29Z"/><path class="cls-2" d="M399.57,193.47a2.65,2.65,0,0,1-2.64-2.64v-8a2.65,2.65,0,1,1,5.29,0v8A2.65,2.65,0,0,1,399.57,193.47Z"/><path class="cls-2" d="M417.71,193.47a2.65,2.65,0,0,1-2.65-2.64v-8a2.65,2.65,0,1,1,5.29,0v8A2.65,2.65,0,0,1,417.71,193.47Z"/><path class="cls-2" d="M216.67,119.4a2.65,2.65,0,0,1-2.1-1l-4.61-6c-1.45,1.71-4.57,5.32-4.57,5.32a2.57,2.57,0,0,1-2.45.87,2.62,2.62,0,0,1-2-1.63s-3.52-9-4.48-11a13.68,13.68,0,0,0-.79-1.62,10.38,10.38,0,0,1-1.56-5,11.51,11.51,0,0,1,11.5-11.49,11.28,11.28,0,0,1,4.42.91,11.33,11.33,0,0,1,4.43-.91,11,11,0,0,1,9.71,17.08c-.2.36-.4.72-.57,1.07-.46,1-3,7.72-4.44,11.74a2.64,2.64,0,0,1-2.08,1.7A2.85,2.85,0,0,1,216.67,119.4ZM210,106.59h0a4.56,4.56,0,0,1,3.55,1.82l2.26,2.93c1.15-3.1,2.54-6.79,3-7.69.21-.43.44-.87.69-1.33a7,7,0,0,0,1.15-3.06,6.26,6.26,0,0,0-9.3-5.34,2.64,2.64,0,0,1-2.66,0,6.27,6.27,0,0,0-9.31,5.34,5.71,5.71,0,0,0,.94,2.53,18.81,18.81,0,0,1,1,2c.52,1.1,1.85,4.39,2.94,7.12,1-1.13,1.87-2.2,2.18-2.59A4.59,4.59,0,0,1,210,106.59Z"/><path class="cls-2" d="M320.19,128.63a2.65,2.65,0,0,1-2.64-2.65V78.51a2.65,2.65,0,0,1,5.29,0V126A2.65,2.65,0,0,1,320.19,128.63Z"/><path class="cls-2" d="M320.19,96.6h-6.34a2.65,2.65,0,1,1,0-5.29h6.34a2.65,2.65,0,1,1,0,5.29Z"/><path class="cls-2" d="M328.52,106.37h-8.33a2.65,2.65,0,0,1,0-5.29h8.33a2.65,2.65,0,0,1,0,5.29Z"/><path class="cls-2" d="M305.49,128.63a2.65,2.65,0,0,1-2.64-2.65V78.51a2.64,2.64,0,1,1,5.28,0V126A2.65,2.65,0,0,1,305.49,128.63Z"/><path class="cls-2" d="M126.47,98.84a2.35,2.35,0,0,1-2.32-2,8.18,8.18,0,0,0-9.27-7,2.46,2.46,0,0,1-2.65-2,2.35,2.35,0,0,1,2-2.65,12.91,12.91,0,0,1,14.58,11,2.37,2.37,0,0,1-2,2.66Z"/><path class="cls-2" d="M97.61,116h0a2.35,2.35,0,0,1-2.33-2.37,5.7,5.7,0,0,0-5.65-5.76,2.36,2.36,0,0,1,0-4.71h0A10.41,10.41,0,0,1,100,113.7,2.35,2.35,0,0,1,97.61,116Z"/><path class="cls-2" d="M108,125.83a2.33,2.33,0,0,1-2.32-2.1,7.63,7.63,0,0,0-7.5-6.79,2.35,2.35,0,0,1,0-4.7h0a12.3,12.3,0,0,1,12.11,11,2.33,2.33,0,0,1-2.08,2.58A1.1,1.1,0,0,1,108,125.83Z"/><path class="cls-2" d="M116.45,125h0a2.35,2.35,0,0,1-2.32-2.37,10.42,10.42,0,0,1,10.4-10.31h.11a2.35,2.35,0,0,1,0,4.7h-.08a5.7,5.7,0,0,0-5.7,5.65A2.36,2.36,0,0,1,116.45,125Z"/><path class="cls-2" d="M89.07,116.94a11.4,11.4,0,1,1,0-22.8,2.35,2.35,0,1,1,0,4.7,6.7,6.7,0,0,0,0,13.4,2.35,2.35,0,0,1,0,4.7Z"/><path class="cls-2" d="M91.77,99.55a2.41,2.41,0,0,1-.9-.18,6.81,6.81,0,0,0-2.62-.53,2.35,2.35,0,1,1,0-4.7,11.49,11.49,0,0,1,4.43.89,2.35,2.35,0,0,1-.91,4.52Z"/><path class="cls-2" d="M121.55,108.87A12.54,12.54,0,0,1,111,103.32c-2-3.09-2.31-6.18-1-10.33a5.18,5.18,0,0,0-2.3-5.66,5.46,5.46,0,0,0-7.57,1.47,2.35,2.35,0,1,1-3.9-2.62,10.19,10.19,0,0,1,14.1-2.74,9.89,9.89,0,0,1,4.15,10.94c-.89,2.86-.77,4.47.48,6.38a8,8,0,0,0,7.81,3.33,2.44,2.44,0,0,1,2.65,2,2.36,2.36,0,0,1-2,2.66A14.48,14.48,0,0,1,121.55,108.87Z"/><path class="cls-2" d="M123,116.94a2.35,2.35,0,0,1,0-4.7,6.7,6.7,0,0,0,0-13.4,2.35,2.35,0,1,1,0-4.7,11.4,11.4,0,1,1,0,22.8Z"/><path class="cls-2" d="M119.6,99.54a2.35,2.35,0,0,1-.91-4.52,11.43,11.43,0,0,1,4.39-.88,2.35,2.35,0,1,1,0,4.7,6.57,6.57,0,0,0-2.58.52A2.41,2.41,0,0,1,119.6,99.54Z"/><path class="cls-2" d="M101.09,104.16a2.41,2.41,0,0,1-1.18-.32,2.35,2.35,0,0,1-.85-3.21,8.12,8.12,0,0,0-2.94-11.11,2.36,2.36,0,0,1-.85-3.22,2.34,2.34,0,0,1,3.21-.84A12.8,12.8,0,0,1,103.12,103,2.34,2.34,0,0,1,101.09,104.16Z"/><path class="cls-2" d="M85.38,93.15a2.3,2.3,0,0,1-1.18-.32,2.35,2.35,0,0,1-.85-3.21,11.08,11.08,0,0,1,15.15-4,2.35,2.35,0,0,1-2.36,4.07A6.37,6.37,0,0,0,87.41,92,2.35,2.35,0,0,1,85.38,93.15Z"/><path class="cls-2" d="M85.18,99a2.33,2.33,0,0,1-2.12-1.36,9.11,9.11,0,0,1,4.37-12.12,2.35,2.35,0,1,1,2,4.25,4.43,4.43,0,0,0-2.12,5.88A2.36,2.36,0,0,1,85.18,99Z"/><path class="cls-2" d="M97.61,116.94H89.07a2.35,2.35,0,0,1,0-4.7h8.54a2.35,2.35,0,0,1,0,4.7Z"/><path class="cls-2" d="M104.59,119.28a2.34,2.34,0,0,1-2-3.63l3.87-5.94a2.36,2.36,0,0,1,3.25-.68,2.33,2.33,0,0,1,.68,3.25l-3.87,5.93A2.33,2.33,0,0,1,104.59,119.28Z"/><path class="cls-2" d="M637.21,308.7a9.56,9.56,0,0,1,0-19.11,2.36,2.36,0,0,1,0,4.71,4.85,4.85,0,0,0,0,9.7,2.35,2.35,0,0,1,0,4.7Z"/><path class="cls-2" d="M637.21,331.16a9.56,9.56,0,0,1,0-19.11,2.35,2.35,0,0,1,0,4.7,4.85,4.85,0,0,0,0,9.7,2.36,2.36,0,0,1,0,4.71Z"/><path class="cls-2" d="M637.7,316.82a6.45,6.45,0,0,1,0-12.89,2.36,2.36,0,1,1,0,4.71,1.74,1.74,0,1,0,0,3.48,2.35,2.35,0,1,1,0,4.7Z"/><path class="cls-2" d="M636.15,331.16a2.36,2.36,0,0,1,0-4.71,16.08,16.08,0,1,0,0-32.15,2.36,2.36,0,0,1,0-4.71,20.79,20.79,0,0,1,0,41.57Z"/><path class="cls-2" d="M615.23,331.16a2.36,2.36,0,0,1,0-4.71,4.85,4.85,0,1,0,0-9.7,2.35,2.35,0,0,1,0-4.7,9.56,9.56,0,1,1,0,19.11Z"/><path class="cls-2" d="M615.23,308.7a2.35,2.35,0,0,1,0-4.7,4.85,4.85,0,1,0,0-9.7,2.36,2.36,0,0,1,0-4.71,9.56,9.56,0,1,1,0,19.11Z"/><path class="cls-2" d="M614.75,316.82a2.35,2.35,0,1,1,0-4.7,1.74,1.74,0,0,0,0-3.48,2.36,2.36,0,1,1,0-4.71,6.45,6.45,0,0,1,0,12.89Z"/><path class="cls-2" d="M616.29,331.16a20.79,20.79,0,0,1,0-41.57,2.36,2.36,0,1,1,0,4.71,16.08,16.08,0,0,0,0,32.15,2.36,2.36,0,1,1,0,4.71Z"/><path class="cls-2" d="M521.56,323.79a18.41,18.41,0,0,1-18.39-18.39c0-8.62,0-18.39,18.39-18.39C537.77,287,540,296.3,540,305.4A18.41,18.41,0,0,1,521.56,323.79Zm0-32.08c-13.69,0-13.69,4.86-13.69,13.69a13.69,13.69,0,0,0,27.38,0C535.25,296.52,533.07,291.71,521.56,291.71Z"/><path class="cls-2" d="M521.56,334a2.35,2.35,0,0,1-2.35-2.35V321.44a2.35,2.35,0,1,1,4.7,0v10.17A2.35,2.35,0,0,1,521.56,334Z"/><path class="cls-2" d="M424.61,311.35a7.19,7.19,0,0,1-5.09-12.29,8.58,8.58,0,0,1,6-2.21h0a6.85,6.85,0,0,1,4.74,1.61h0c2.37,2.38,2.06,8.12-.59,10.78A7.21,7.21,0,0,1,424.61,311.35Zm1-9.81a4.17,4.17,0,0,0-2.74.84,2.5,2.5,0,0,0,0,3.55,2.53,2.53,0,0,0,3.55,0c.92-.93,1-3.41.57-4.15A3.16,3.16,0,0,0,425.58,301.54Zm1.35.19Z"/><path class="cls-2" d="M406.8,324.31a2.35,2.35,0,0,1-.75-4.57c3.17-1.07,4.65-3.62,6.37-6.56s3.81-6.54,8.07-7.84a2.35,2.35,0,0,1,1.37,4.5c-2.38.72-3.6,2.64-5.38,5.7-1.92,3.29-4.09,7-8.93,8.65A2.5,2.5,0,0,1,406.8,324.31Z"/><path class="cls-2" d="M316,330.71a19.79,19.79,0,1,1,19.79-19.78A19.81,19.81,0,0,1,316,330.71Zm0-34.87a15.09,15.09,0,1,0,15.08,15.09A15.1,15.1,0,0,0,316,295.84Z"/><path class="cls-2" d="M210.53,326a19.79,19.79,0,1,1,19.78-19.79A19.82,19.82,0,0,1,210.53,326Zm0-34.87a15.09,15.09,0,1,0,15.08,15.08A15.11,15.11,0,0,0,210.53,291.16Z"/><path class="cls-2" d="M309,231a17.56,17.56,0,0,1-8.92-2.54c-6.29-3.7-10.53-10.65-10.53-17.31a21.22,21.22,0,0,1,21.2-21.2c19,0,29.69,3.11,31.72,9.23,1,3.12-.46,6.47-4.09,9.17a25.05,25.05,0,0,0-5.57,6.28,41.38,41.38,0,0,1-15.54,14.15A16.91,16.91,0,0,1,309,231Zm1.75-36.34a16.51,16.51,0,0,0-16.49,16.49c0,5,3.37,10.42,8.2,13.26a12.2,12.2,0,0,0,12.52.26c8.29-4.62,11.18-8.75,14-12.73a29.39,29.39,0,0,1,6.61-7.37h0c.7-.52,2.95-2.34,2.43-3.91C337.79,200.07,335.3,194.69,310.74,194.69Z"/><rect class="cls-1" x="98.27" y="187.53" width="16.24" height="44.18" rx="0.52"/><path class="cls-2" d="M106.39,234.07A10.49,10.49,0,0,1,95.92,223.6V195.66a10.47,10.47,0,1,1,20.94,0V223.6A10.49,10.49,0,0,1,106.39,234.07Zm0-44.18a5.77,5.77,0,0,0-5.77,5.77V223.6a5.77,5.77,0,1,0,11.54,0V195.66A5.77,5.77,0,0,0,106.39,189.89Z"/><path class="cls-2" d="M214.51,236.31a2.35,2.35,0,0,1-1.58-4.09,24.94,24.94,0,0,0,8.39-19c0-10.73-5.94-23.2-9.49-29.67a2.35,2.35,0,0,1,4.12-2.26c4.59,8.39,10.08,20.74,10.08,31.93a29.59,29.59,0,0,1-9.94,22.46A2.4,2.4,0,0,1,214.51,236.31Z"/><path class="cls-2" d="M206,236.78a2.35,2.35,0,0,1-1.53-.57,29.92,29.92,0,0,1-10.51-23c0-11.11,5.43-23.4,10-31.76a2.35,2.35,0,1,1,4.13,2.24c-3.52,6.46-9.41,18.87-9.41,29.52a24.94,24.94,0,0,0,8.87,19.4,2.35,2.35,0,0,1-1.53,4.13Z"/><path class="cls-2" d="M210,230.53a2.37,2.37,0,0,1-1.88-.93A33,33,0,0,1,202.41,211c0-10.71,5.26-20.66,5.49-21.07a2.43,2.43,0,0,1,4.14,0c.22.41,5.49,10.36,5.49,21.07a32.94,32.94,0,0,1-5.69,18.57A2.36,2.36,0,0,1,210,230.53Zm0-33.6a41.69,41.69,0,0,0-2.86,14.1A29.12,29.12,0,0,0,210,223.5,29.15,29.15,0,0,0,212.82,211,41.54,41.54,0,0,0,210,196.93Z"/><path class="cls-2" d="M106.66,234.12a2.35,2.35,0,0,1-2.35-2.35v-7.43a2.35,2.35,0,0,1,4.7,0v7.43A2.35,2.35,0,0,1,106.66,234.12Z"/><path class="cls-2" d="M307.67,318.52a3.08,3.08,0,1,1,3.08-3.08A3.09,3.09,0,0,1,307.67,318.52Zm0-4.7a1.62,1.62,0,0,0-1.62,1.62c0,1.79,3.25,1.79,3.25,0A1.62,1.62,0,0,0,307.67,313.82Z"/><path class="cls-2" d="M530.22,313.8A40.94,40.94,0,0,1,520,312c-4.93-1.32-9.58-2.55-13-.81a2.35,2.35,0,0,1-2.15-4.18c5-2.55,10.75-1,16.31.45s10.92,2.9,14.44-.14a2.35,2.35,0,1,1,3.07,3.57A12.52,12.52,0,0,1,530.22,313.8Z"/><path class="cls-2" d="M210.53,341a2.36,2.36,0,0,1-2.35-2.36v-15a2.35,2.35,0,1,1,4.7,0v15A2.36,2.36,0,0,1,210.53,341Z"/><path class="cls-2" d="M215.42,335.44h-9.78a2.36,2.36,0,1,1,0-4.71h9.78a2.36,2.36,0,0,1,0,4.71Z"/><path class="cls-2" d="M104.36,334.54a19.79,19.79,0,1,1,14-5.79A19.65,19.65,0,0,1,104.36,334.54Zm0-34.86A15.08,15.08,0,0,0,93.7,325.42a15.41,15.41,0,0,0,21.33,0,15.08,15.08,0,0,0-10.67-25.74Z"/><path class="cls-2" d="M116.69,304.78a2.36,2.36,0,0,1-1.66-4l10.59-10.59A2.35,2.35,0,0,1,129,293.5l-10.6,10.59A2.34,2.34,0,0,1,116.69,304.78Z"/><path class="cls-2" d="M126.79,301.59a2.34,2.34,0,0,1-1.66-.69L118.22,294a2.35,2.35,0,0,1,3.32-3.33l6.92,6.92a2.35,2.35,0,0,1-1.67,4Z"/></svg>