<svg id="Layer_1" data-name="Layer 1" xmlns="http://www.w3.org/2000/svg" viewBox="0 0 734.55 622"><defs><style>.cls-1{fill:#010101;}.cls-2{fill:#fff;}</style></defs><title>KaraHealthIconGallery</title><path class="cls-1" d="M653.38,439.33H595.85a2.35,2.35,0,0,1,0-4.7h57.53a2.35,2.35,0,1,1,0,4.7Z"/><path class="cls-1" d="M651.58,430.83H599.66a4.15,4.15,0,0,1-4.13-4.47,30.16,30.16,0,0,1,60.18,0,4.14,4.14,0,0,1-4.13,4.46Zm0-4.7Zm-51.33,0H651a25.48,25.48,0,0,0-50.74,0Z"/><path class="cls-1" d="M631.11,403.76h-11a3.08,3.08,0,0,1-2-.85,3.19,3.19,0,0,1-.76-2,8.24,8.24,0,0,1,16.44,0,2.72,2.72,0,0,1-2.72,2.91Zm-8.13-4.7h5.26A3.71,3.71,0,0,0,623,399.06Z"/><circle class="cls-2" cx="425.94" cy="300.35" r="20.5"/><path class="cls-1" d="M425.93,323.21a22.86,22.86,0,0,1-16.15-39c8.63-8.63,23.69-8.63,32.32,0h0a22.86,22.86,0,0,1-16.17,39Zm0-41a18.14,18.14,0,0,0-12.82,31,18.57,18.57,0,0,0,25.66,0,18.13,18.13,0,0,0,0-25.66h0A18,18,0,0,0,425.93,282.21Z"/><circle class="cls-2" cx="425.94" cy="300.35" r="10.56"/><path class="cls-1" d="M425.93,313.27a12.92,12.92,0,0,1,0-25.83h0a12.92,12.92,0,0,1,0,25.83Zm0-21.13a8.21,8.21,0,0,0-5.8,14,8.4,8.4,0,0,0,11.61,0,8.21,8.21,0,0,0,0-11.62h0a8.13,8.13,0,0,0-5.79-2.41Z"/><circle class="cls-2" cx="105.02" cy="116.24" r="6.78"/><path class="cls-1" d="M105,125.36a9.13,9.13,0,1,1,8-4.62A9.09,9.09,0,0,1,105,125.36Zm0-13.55a4.45,4.45,0,0,0-3.86,2.24,4.44,4.44,0,1,0,7.72,4.37h0a4.41,4.41,0,0,0,.41-3.37,4.46,4.46,0,0,0-4.27-3.24Z"/><path class="cls-1" d="M116.73,326.22a2.6,2.6,0,0,1-2.07-1L109,317.91a2.64,2.64,0,1,1,4.15-3.26l5.71,7.29a2.65,2.65,0,0,1-2.08,4.28Z"/><path class="cls-1" d="M209,449.94a2.64,2.64,0,0,1-2.64-2.64V420.12a2.64,2.64,0,0,1,5.28,0V447.3A2.64,2.64,0,0,1,209,449.94Z"/><path class="cls-1" d="M99.06,339.24a35.81,35.81,0,0,1-23.6-8.8,4.53,4.53,0,0,1-.25-6.63l44.44-44.43a4,4,0,0,1,3.35-1.32,4.54,4.54,0,0,1,3.28,1.58,36,36,0,0,1-27.22,59.6Zm23.78-56.4-44.3,44.3a31.42,31.42,0,0,0,44.3-44.3Zm-.11-.13ZM121.31,281h0Z"/><path class="cls-1" d="M132.11,312.19a2.25,2.25,0,0,1-.52-.07L113.36,308a2.36,2.36,0,0,1-1.78-2.81,2.33,2.33,0,0,1,2.81-1.77l18.23,4.13a2.35,2.35,0,0,1-.51,4.64Z"/><path class="cls-1" d="M105.73,338.6a2.34,2.34,0,0,1-2.31-1.93L100,317.35a2.35,2.35,0,0,1,1.91-2.72,2.3,2.3,0,0,1,2.73,1.89l3.46,19.32a2.35,2.35,0,0,1-1.9,2.72A2,2,0,0,1,105.73,338.6Z"/><path class="cls-1" d="M209.37,342.07a36.09,36.09,0,0,1-35.92-33.5,4.52,4.52,0,0,1,4.5-4.87h62.84a4.43,4.43,0,0,1,3.28,1.42,4.62,4.62,0,0,1,1.23,3.44A36.12,36.12,0,0,1,209.37,342.07ZM178,308.4a31.43,31.43,0,0,0,62.66,0Zm62.84,0h0Z"/><path class="cls-1" d="M215,306.65a2.37,2.37,0,0,1-1.48-.52,2.34,2.34,0,0,1-.34-3.3l20.39-25.27a2.35,2.35,0,1,1,3.65,2.95l-20.4,25.26A2.31,2.31,0,0,1,215,306.65Z"/><path class="cls-1" d="M209.49,306.39a2.34,2.34,0,0,1-2.13-3.32l8.94-19.68a2.35,2.35,0,1,1,4.27,1.94L211.62,305A2.33,2.33,0,0,1,209.49,306.39Z"/><path class="cls-1" d="M521.32,434.11A30.24,30.24,0,0,1,491.22,406a4.22,4.22,0,0,1,1.11-3.15,4.16,4.16,0,0,1,3-1.31h51.94a4.17,4.17,0,0,1,3,1.33,4.12,4.12,0,0,1,1.09,3.14A30.23,30.23,0,0,1,521.32,434.11Zm-25.38-27.83a25.48,25.48,0,0,0,50.75,0Zm51.35,0h0Z"/><path class="cls-1" d="M521,307a24.53,24.53,0,0,1-24.41-22.77,3.78,3.78,0,0,1,3.77-4.06h41.29a3.78,3.78,0,0,1,2.75,1.2,3.82,3.82,0,0,1,1,2.86A24.53,24.53,0,0,1,521,307Zm-19.64-22.12a19.78,19.78,0,0,0,39.28,0Zm40.29,0h0Z"/><path class="cls-1" d="M334.91,410.32H289.67a3.94,3.94,0,0,1-2.87-1.25,4,4,0,0,1-1-3,26.58,26.58,0,0,1,53,0,3.91,3.91,0,0,1-3.9,4.2Zm-44.46-3.89h0Zm.08-.81h43.52a21.89,21.89,0,0,0-43.52,0Z"/><path class="cls-1" d="M321.24,440.44c-1.34,0-2.7,0-4.05-.06-3.18-.08-6.65-.08-9.81,0-10.19.2-20.71.46-21.61-12.69a3.9,3.9,0,0,1,3.9-4.2h45.24a3.91,3.91,0,0,1,3.9,4.19C338,439.11,330,440.44,321.24,440.44Zm-8.95-4.83c1.72,0,3.4,0,5,.08,10.88.23,15.9,0,16.75-7.5H290.53c.85,7.53,5.89,7.71,16.75,7.5C308.9,435.65,310.57,435.61,312.29,435.61Zm22.62-7.42h0Zm-44.46-.84v0Z"/><path class="cls-1" d="M231.22,205.31a2.35,2.35,0,0,1-2.35-2.35v-6.65l-30.93-.09a2.36,2.36,0,0,1,0-4.71h0l33.26.11a2.35,2.35,0,0,1,2.34,2.35v9A2.35,2.35,0,0,1,231.22,205.31Z"/><path class="cls-1" d="M202.17,186.82a2.36,2.36,0,0,1-2.36-2.35v-9.93a2.36,2.36,0,0,1,4.71,0v9.93A2.36,2.36,0,0,1,202.17,186.82Z"/><path class="cls-1" d="M211.1,186.82a2.36,2.36,0,0,1-2.35-2.35v-9.93a2.35,2.35,0,0,1,4.7,0v9.93A2.35,2.35,0,0,1,211.1,186.82Z"/><path class="cls-1" d="M231.22,232.29H191a2.36,2.36,0,0,1,0-4.71h40.24a2.36,2.36,0,0,1,0,4.71Z"/><path class="cls-1" d="M220.15,186.82a2.36,2.36,0,0,1-2.35-2.35v-9.93a2.35,2.35,0,0,1,4.7,0v9.93A2.35,2.35,0,0,1,220.15,186.82Z"/><path class="cls-1" d="M183.15,206.29a2.35,2.35,0,0,1-2.35-2.35v-4.72a7.55,7.55,0,0,1,7.54-7.55H192a2.36,2.36,0,0,1,2.35,2.36v9.18a2.35,2.35,0,0,1-4.7,0v-6.83h-1.31a2.84,2.84,0,0,0-2.84,2.84v4.72A2.35,2.35,0,0,1,183.15,206.29Z"/><path class="cls-1" d="M287.64,204.58a2.35,2.35,0,0,1-2.35-2.35v-4.72a7.56,7.56,0,0,1,7.55-7.55h3.66a2.35,2.35,0,0,1,2.35,2.35v9.18a2.36,2.36,0,0,1-4.71,0v-6.83h-1.3a2.85,2.85,0,0,0-2.85,2.85v4.72A2.35,2.35,0,0,1,287.64,204.58Z"/><path class="cls-1" d="M211.61,225.17a22,22,0,0,1-22-22,2.35,2.35,0,0,1,4.7,0,17.26,17.26,0,1,0,34.52,0,2.35,2.35,0,0,1,4.7,0A22,22,0,0,1,211.61,225.17Z"/><path class="cls-1" d="M335.73,203.77a2.36,2.36,0,0,1-2.35-2.35v-6.65l-30.91-.09a2.36,2.36,0,0,1,0-4.71h0l33.25.11a2.35,2.35,0,0,1,2.34,2.35v9A2.35,2.35,0,0,1,335.73,203.77Z"/><path class="cls-1" d="M335.73,230.75H295.5a2.36,2.36,0,1,1,0-4.71h40.23a2.36,2.36,0,0,1,0,4.71Z"/><path class="cls-1" d="M316.13,223.63a22,22,0,0,1-22-22,2.36,2.36,0,0,1,4.71,0,17.26,17.26,0,0,0,34.51,0,2.35,2.35,0,1,1,4.7,0A22,22,0,0,1,316.13,223.63Z"/><path class="cls-1" d="M121.78,219.63a2.28,2.28,0,0,1-1.25-.37,2.34,2.34,0,0,1-.74-3.24c2.12-3.34,3.33-5.9,3.33-9.11a14.05,14.05,0,0,0-14-14,13.91,13.91,0,0,0-3.92.56,2.35,2.35,0,1,1-1.31-4.51,18.42,18.42,0,0,1,5.23-.75,18.75,18.75,0,0,1,18.73,18.73c0,4.8-2,8.37-4.06,11.62A2.32,2.32,0,0,1,121.78,219.63Z"/><path class="cls-1" d="M109.67,229.92a12.43,12.43,0,0,1-6.35-1.9,2.35,2.35,0,0,1,2.39-4.05c6.2,3.65,9.76-1.3,13.61-7.24l.5-.74a2.34,2.34,0,1,1,3.92,2.57l-.47.74C119.86,224.51,116.35,229.92,109.67,229.92Z"/><path class="cls-1" d="M99.38,229.92c-6.71,0-10.57-5.94-13.68-10.71l-.41-.65A2.34,2.34,0,1,1,89.21,216l.44.66c3.54,5.48,7.41,11,13.67,7.32a2.35,2.35,0,0,1,2.39,4.05A12.37,12.37,0,0,1,99.38,229.92Z"/><path class="cls-1" d="M87.25,219.63a2.36,2.36,0,0,1-2-1.08c-2-3.12-4.07-7-4.07-11.64a18.75,18.75,0,0,1,18.73-18.73,7,7,0,0,1,2.35.52c.6-5.93,3.33-11.27,8-11.27a2.36,2.36,0,0,1,0,4.71c-1.38,0-3.46,3.6-3.46,9a3.47,3.47,0,0,1-1.22,2.4c-1.41.94-3,.33-4.33-.22a9.13,9.13,0,0,0-1.42-.48,14,14,0,0,0-14,14c0,3.47,1.6,6.42,3.32,9.09a2.35,2.35,0,0,1-.7,3.25A2.3,2.3,0,0,1,87.25,219.63Z"/><path class="cls-1" d="M104.76,539.47a4.6,4.6,0,0,1-2.84-1L88,527.61c-4.49-3.3-6.54-9.29-6.54-13.73a18.76,18.76,0,0,1,18.74-18.73,7,7,0,0,1,2.35.52c.59-5.93,3.32-11.27,8-11.27a2.36,2.36,0,0,1,0,4.71c-1.12,0-2.7,2.36-3.26,6.15a19.38,19.38,0,0,1,2-.11,18.75,18.75,0,0,1,18.73,18.73,19.43,19.43,0,0,1-5.85,13.18l-14.61,11.43A4.67,4.67,0,0,1,104.76,539.47Zm-4.61-39.62a14,14,0,0,0-14,14c0,3.15,1.45,7.62,4.67,10l14,10.92,14.35-11.29a14.6,14.6,0,0,0,4.21-9.62,14,14,0,0,0-14-14,13.58,13.58,0,0,0-3,.34,2.16,2.16,0,0,1-.39.36c-1.41.94-3,.32-4.34-.22A9.06,9.06,0,0,0,100.15,499.85Z"/><path class="cls-1" d="M519,182.9c.59-5.93,3.32-11.27,8-11.27a2.36,2.36,0,0,1,0,4.71c-1.12,0-2.7,2.36-3.26,6.15"/><path class="cls-1" d="M428.74,504.6a2.35,2.35,0,0,1-2.35-2.35c0-6.66,2.87-13.75,8.17-13.75a2.36,2.36,0,0,1,0,4.71c-1.4,0-3.47,3.79-3.47,9A2.35,2.35,0,0,1,428.74,504.6Z"/><path class="cls-1" d="M521.09,232.89h0c-2.09,0-3.86-1.55-4.51-3.94l-9.66-35a9.29,9.29,0,0,1,1.84-7.67c1.71-2.24,5.19-4.91,12.13-4.91,7.1,0,10.7,2.77,12.48,5.09a9.22,9.22,0,0,1,1.92,7.48l-9.67,35C524.94,231.35,523.16,232.89,521.09,232.89Zm.27-4.62h0Zm-.48-42.17c-4,0-6.87,1.06-8.39,3.05a4.89,4.89,0,0,0-1.06,3.58l9.66,35,9.66-35a4.86,4.86,0,0,0-1.13-3.38C528,187.22,525,186.1,520.88,186.1Z"/><path class="cls-1" d="M518.5,200.48h-7.72a2.65,2.65,0,0,1,0-5.29h7.72a2.65,2.65,0,0,1,0,5.29Z"/><path class="cls-1" d="M526.86,214.47H523a2.65,2.65,0,0,1,0-5.29h3.88a2.65,2.65,0,0,1,0,5.29Z"/><path class="cls-1" d="M521.07,547.66a8,8,0,0,1-7.17-3.76l-21.83-40.08c-1.21-3.37-1-6,.51-8.11,3.12-4.4,11.75-6.36,28-6.36,17.19,0,26.57,2.21,29.51,6.95.94,1.5,1.69,4,0,7.44L528.23,543.9A8,8,0,0,1,521.07,547.66Zm-.48-53.61c-17.42,0-22.76,2.38-24.18,4.38-.4.56-.77,1.47-.06,3.49L518,541.65c.85,1.57,5.22,1.59,6.07,0l21.81-40.07c.86-1.74.38-2.51.2-2.8C545.23,497.35,541,494.05,520.59,494.05Z"/><path class="cls-1" d="M105.79,101a2.36,2.36,0,0,1-2.35-2.35c0-1.23,0-2.46-.07-3.66-.16-5.09-.3-9.89,2.45-12.72a7.53,7.53,0,0,1,5.65-2.13,2.35,2.35,0,1,1,0,4.7c-1.6,0-2.12.53-2.28.7-1.37,1.4-1.24,5.42-1.13,9.31,0,1.25.08,2.52.08,3.8A2.35,2.35,0,0,1,105.79,101Z"/><path class="cls-1" d="M105.64,101a2.36,2.36,0,0,1-2.35-2.35c0-4.53,0-16.55-3.52-19a2.35,2.35,0,0,1,2.71-3.85C107.05,79,108,87.2,108,98.6A2.36,2.36,0,0,1,105.64,101Z"/><path class="cls-1" d="M98.27,115.85a6.74,6.74,0,0,1-.77,0,9.12,9.12,0,0,1-5.14-16.06,2.35,2.35,0,0,1,3,3.58,4.43,4.43,0,1,0,5.73,6.77,2.37,2.37,0,0,1,3.31.27,2.34,2.34,0,0,1-.28,3.31A9,9,0,0,1,98.27,115.85Z"/><path class="cls-1" d="M113.81,116.06a9.1,9.1,0,0,1-5.73-2,2.35,2.35,0,1,1,3-3.66,4.44,4.44,0,0,0,6.24-.66,4.46,4.46,0,0,0-.68-6.24,2.35,2.35,0,1,1,3-3.65,9.13,9.13,0,0,1-5.75,16.23Z"/><circle class="cls-2" cx="113.08" cy="97.7" r="6.78"/><path class="cls-1" d="M113.07,106.83a9.13,9.13,0,0,1-2.42-17.93,8.89,8.89,0,0,1,6.93.85,9.13,9.13,0,0,1-2.06,16.75A9.38,9.38,0,0,1,113.07,106.83Zm0-13.57a4.79,4.79,0,0,0-1.18.16,4.46,4.46,0,0,0-2.69,2.1,4.38,4.38,0,0,0-.41,3.36,4.46,4.46,0,0,0,2.09,2.68,4.44,4.44,0,0,0,6-1.68,4.34,4.34,0,0,0,.42-3.36,4.45,4.45,0,0,0-4.27-3.26Z"/><circle class="cls-2" cx="98.62" cy="97.3" r="6.78"/><path class="cls-1" d="M98.6,106.44a8.9,8.9,0,0,1-4.48-1.2,9.13,9.13,0,1,1,12.44-3.44h0a9.07,9.07,0,0,1-5.5,4.31A9.46,9.46,0,0,1,98.6,106.44Zm0-13.57a4.43,4.43,0,1,0,3.86,6.62h0a4.43,4.43,0,0,0-3.86-6.62Zm5.9,7.78h0Z"/><circle class="cls-2" cx="105.4" cy="104.48" r="6.78"/><path class="cls-1" d="M105.38,113.62a9,9,0,0,1-4.48-1.19A9.13,9.13,0,0,1,103,95.68a9,9,0,0,1,6.94.86A9.14,9.14,0,0,1,113.34,109h0a9.06,9.06,0,0,1-5.51,4.31A9.38,9.38,0,0,1,105.38,113.62Zm0-13.57a4.44,4.44,0,0,0-3.86,2.25,4.44,4.44,0,0,0,7.72,4.37h0a4.46,4.46,0,0,0-1.68-6A4.41,4.41,0,0,0,105.4,100.05Zm5.9,7.78h0Z"/><path class="cls-1" d="M411.35,533.91a25.87,25.87,0,0,1-18.43-7.74,2.32,2.32,0,0,1-.66-1.46l-.44-5.65a2.35,2.35,0,0,1,3.56-2.19,17.83,17.83,0,0,0,8.19,2.53c10,.58,19.43-7.24,20-16.7a17.51,17.51,0,0,0-1.45-8.07,2.38,2.38,0,0,1,.22-2.28l2.33-3.38a2.36,2.36,0,0,1,1.63-1,2.46,2.46,0,0,1,1.83.55,25.77,25.77,0,0,1-12.24,45A25.47,25.47,0,0,1,411.35,533.91Zm-14.48-10.45A21.1,21.1,0,0,0,427,493.92l-.05.06a22.45,22.45,0,0,1,1.32,9c-.69,12.18-12,21.76-24.93,21.13a23.16,23.16,0,0,1-6.48-1.34Z"/><path class="cls-2" d="M427.93,493.91a23.44,23.44,0,1,1-20.43,42.14l-2.09-5.26a19.9,19.9,0,0,0,9.7,0c10.79-2.68,18.53-13.9,15.85-24.7a20.12,20.12,0,0,0-4.26-8.25Z"/><path class="cls-1" d="M418.64,541.22a25.78,25.78,0,0,1-12.26-3.1,2.32,2.32,0,0,1-1.07-1.2l-2.09-5.26a2.33,2.33,0,0,1,.42-2.42,2.29,2.29,0,0,1,2.33-.73,17.67,17.67,0,0,0,8.58,0c9.81-2.44,16.42-12.65,14.13-21.85a17.61,17.61,0,0,0-3.77-7.29,2.33,2.33,0,0,1-.45-2.23l1.22-3.92a2.31,2.31,0,0,1,1.27-1.43,2.25,2.25,0,0,1,1.9,0,25.79,25.79,0,0,1-10.21,49.47Zm-9.29-6.86a21.09,21.09,0,0,0,20-37.11l0,.08a22.24,22.24,0,0,1,3.93,8.18c2.94,11.83-5.1,24.45-17.56,27.55a21.56,21.56,0,0,1-6.59.64Z"/><path class="cls-1" d="M434.49,500.52a2.32,2.32,0,0,1-1.57-.61c-6.31-5.7-10.45-14.13-10.62-14.49a2.35,2.35,0,1,1,4.22-2.05c.05.08,3.92,8,9.54,13.05a2.35,2.35,0,0,1,.18,3.32A2.37,2.37,0,0,1,434.49,500.52Z"/><path class="cls-1" d="M634.8,219.46c-15.61,0-33.8-12.52-34.56-13.05a2.34,2.34,0,0,1,0-3.85c.76-.54,19-13.06,34.56-13.06,16.32,0,23.09,13.38,23.38,13.95a2.35,2.35,0,0,1,0,2.07C657.89,206.09,651.12,219.46,634.8,219.46Zm-28.86-15c5.66,3.45,18.24,10.28,28.86,10.28a22,22,0,0,0,18.56-10.28,21.79,21.79,0,0,0-18.56-10.27C624.18,194.21,611.6,201,605.94,204.48Z"/><path class="cls-1" d="M634.8,219.46a2.36,2.36,0,0,1-2.35-2.35V191.86a2.35,2.35,0,1,1,4.7,0v25.25A2.35,2.35,0,0,1,634.8,219.46Z"/><path class="cls-1" d="M592.49,215.25a2.35,2.35,0,0,1-1.59-4.08l6.86-6.36-6.55-4.24a2.35,2.35,0,0,1,2.56-3.95l9.09,5.89a2.41,2.41,0,0,1,1.06,1.77,2.33,2.33,0,0,1-.75,1.93l-9.08,8.41A2.33,2.33,0,0,1,592.49,215.25Z"/><path class="cls-1" d="M220.65,127.82a19.13,19.13,0,0,1-8.37-2c-7.55-3.71-11.34-11-8.62-16.5s10.78-7,18.33-3.28,11.34,11,8.62,16.51h0c-1.37,2.8-4.15,4.63-7.81,5.16A15.22,15.22,0,0,1,220.65,127.82Zm-7.07-19.16c-2.65,0-4.84.92-5.7,2.69-1.51,3.07,1.46,7.75,6.47,10.21a13.72,13.72,0,0,0,7.79,1.46c1.2-.18,3.35-.74,4.25-2.58h0c1.52-3.08-1.45-7.76-6.47-10.22A14.67,14.67,0,0,0,213.58,108.66Zm14.92,12.82h0Z"/><path class="cls-1" d="M218.18,102.68a13.93,13.93,0,0,1-4.73-.77A8.89,8.89,0,0,1,207.88,90c1.34-3.72,4.73-7.16,9.06-9.19,7.61-3.57,15.66-2,18.27,3.58h0c2.63,5.6-1.28,12.79-8.9,16.37A19.27,19.27,0,0,1,218.18,102.68Zm6.93-19a14.7,14.7,0,0,0-6.17,1.45c-3.24,1.52-5.72,4-6.64,6.53a4.21,4.21,0,0,0,2.75,5.86c2.58.94,6.06.58,9.27-.95,5.06-2.37,8.09-7,6.65-10.11C230.1,84.61,227.85,83.65,225.11,83.65Z"/><path class="cls-1" d="M189.44,111.74a8.63,8.63,0,0,1-4.75-1.36c-2.63-1.67-4.14-4.62-4.26-8.32a18.39,18.39,0,0,1,3-10.25c4.54-7.11,12.19-10,17.38-6.72h0a9.21,9.21,0,0,1,4,6c.85,3.86-.19,8.58-2.78,12.61a18.25,18.25,0,0,1-8,7.08A11.92,11.92,0,0,1,189.44,111.74Zm6.63-23.31c-2.8,0-6.31,2.27-8.64,5.91a13.89,13.89,0,0,0-2.31,7.57c0,1.21.37,3.42,2.09,4.52s3.85.46,5,0a13.6,13.6,0,0,0,5.89-5.28c1.94-3,2.73-6.4,2.15-9.07a4.66,4.66,0,0,0-1.91-3h0A4.14,4.14,0,0,0,196.07,88.43Z"/><path class="cls-1" d="M427.39,229.58H407.23a2.35,2.35,0,0,1-2.34-2.21l-2.75-45.6a2.34,2.34,0,1,1,4.68-.29l2.63,43.4h15.76l3.22-43.43a2.29,2.29,0,0,1,2.51-2.16,2.34,2.34,0,0,1,2.17,2.51l-3.38,45.6A2.35,2.35,0,0,1,427.39,229.58Z"/><path class="cls-1" d="M421.39,221.15a1.94,1.94,0,0,1-1.64-.71,2.32,2.32,0,0,1-.71-1.65,2.13,2.13,0,0,1,.71-1.64,2.26,2.26,0,0,1,3.28,0,2.13,2.13,0,0,1,.71,1.64,2.43,2.43,0,0,1-2.35,2.36Z"/><path class="cls-1" d="M418.21,214.8a3,3,0,0,1-1.64-.7,2.39,2.39,0,0,1-.7-1.76,2.32,2.32,0,0,1,.7-1.65,2.51,2.51,0,0,1,3.29,0,2.32,2.32,0,0,1,.7,1.65,2.39,2.39,0,0,1-2.35,2.46Z"/><path class="cls-1" d="M421.74,207.88a2.33,2.33,0,0,1-1.65-.71,2.42,2.42,0,0,1,0-3.41,2.67,2.67,0,0,1,3.41,0,2.4,2.4,0,0,1,0,3.41A2.4,2.4,0,0,1,421.74,207.88Z"/><path class="cls-1" d="M322.32,103.87a2.43,2.43,0,0,1-2.35-2.35,2.38,2.38,0,0,1,.71-1.76,2.47,2.47,0,0,1,3.28,0,2.35,2.35,0,0,1,.72,1.76,2.3,2.3,0,0,1-.72,1.64A2,2,0,0,1,322.32,103.87Z"/><path class="cls-1" d="M313.4,106.57a2.33,2.33,0,0,1-1.65-4,2.39,2.39,0,0,1,3.29,0,2.36,2.36,0,0,1-1.64,4Z"/><path class="cls-1" d="M319.15,110.56a2.3,2.3,0,0,1-1.64-.7,2.34,2.34,0,0,1-.7-1.65,2.3,2.3,0,0,1,.7-1.64,2.48,2.48,0,0,1,3.29,0,2.3,2.3,0,0,1,.7,1.64,2.34,2.34,0,0,1-.7,1.65A2,2,0,0,1,319.15,110.56Z"/><path class="cls-1" d="M423.66,199.87a31.62,31.62,0,0,1-8-1.45c-2.9-.79-5.93-1.61-7.47-.94a2.35,2.35,0,0,1-1.85-4.32c3.1-1.31,6.88-.27,10.56.72,3.52,1,7.15,1.93,9.39.74a2.35,2.35,0,1,1,2.25,4.12A9.87,9.87,0,0,1,423.66,199.87Z"/><path class="cls-1" d="M313.15,544.94a2.35,2.35,0,1,1,0-4.7c14.75,0,15.89-12.94,15.89-16.91,0-4.88-2.35-7.69-4.62-10.4-1.64-2-3.19-3.81-3.54-6.22a21.65,21.65,0,0,1,0-4.76c.06-.75.11-1.46.11-2.06,0-5.41-4.23-7.34-7.85-7.34a2.35,2.35,0,1,1,0-4.7c7.39,0,12.56,5,12.56,12,0,.7-.06,1.54-.13,2.41a19.53,19.53,0,0,0-.07,3.7c.17,1.12,1.26,2.41,2.51,3.91,2.42,2.88,5.73,6.83,5.73,13.42C333.75,533.3,328.34,544.94,313.15,544.94Z"/><path class="cls-1" d="M313.15,544.94c-15.2,0-20.59-11.64-20.59-21.61,0-6.59,3.3-10.54,5.71-13.42,1.26-1.5,2.35-2.79,2.52-3.9a19.62,19.62,0,0,0-.07-3.71c-.06-.87-.12-1.71-.12-2.41,0-7.08,5.16-12,12.55-12a2.35,2.35,0,1,1,0,4.7c-3.63,0-7.85,1.93-7.85,7.34,0,.6.06,1.31.11,2.06a21.66,21.66,0,0,1,0,4.76c-.36,2.41-1.91,4.26-3.55,6.22-2.27,2.71-4.62,5.52-4.62,10.4,0,4,1.14,16.91,15.89,16.91a2.35,2.35,0,0,1,0,4.7Z"/><path class="cls-1" d="M313.41,127.43a8,8,0,0,1-4.54-1.4c-4.79-3.31-12.55-15.38-14.8-19a13.2,13.2,0,0,1,11.2-20.22,34,34,0,0,1,8.13,1.39,34.31,34.31,0,0,1,8.14-1.39A13.22,13.22,0,0,1,334.75,100a13.09,13.09,0,0,1-2,7c-3.65,5.81-10.43,16-14.8,19A8,8,0,0,1,313.41,127.43Zm-8.14-35.34a7.91,7.91,0,0,0-6.72,12.13c4.5,7.23,10.38,15.43,13.33,17.46a2.68,2.68,0,0,0,3.06,0c2.56-1.75,7.66-8.45,13.33-17.46a7.93,7.93,0,0,0-6.73-12.13,30.61,30.61,0,0,0-7.35,1.39,2.66,2.66,0,0,1-1.58,0A30.71,30.71,0,0,0,305.27,92.09Z"/><path class="cls-1" d="M313.4,86.84a2.35,2.35,0,0,1-2.35-2.35V74.57a2.35,2.35,0,0,1,4.7,0v9.92A2.35,2.35,0,0,1,313.4,86.84Z"/><path class="cls-1" d="M313.4,86.84a2.35,2.35,0,0,1-1.61-.64l-8.41-7.87a2.35,2.35,0,1,1,3.21-3.43L315,82.77a2.35,2.35,0,0,1-1.61,4.07Z"/><path class="cls-1" d="M313.4,86.84a2.39,2.39,0,0,1-1.7-.72,2.36,2.36,0,0,1,.07-3.32l8.2-7.88a2.35,2.35,0,1,1,3.26,3.39L315,86.18A2.34,2.34,0,0,1,313.4,86.84Z"/><line class="cls-2" x1="302.18" y1="326.32" x2="321.61" y2="306.88"/><path class="cls-1" d="M302.17,329a2.65,2.65,0,0,1-1.87-4.52L319.74,305a2.64,2.64,0,0,1,3.74,3.74L304,328.19A2.63,2.63,0,0,1,302.17,329Z"/><line class="cls-2" x1="315.15" y1="300.41" x2="295.71" y2="319.85"/><path class="cls-1" d="M295.71,322.5a2.65,2.65,0,0,1-1.87-4.52l19.43-19.44a2.64,2.64,0,1,1,3.74,3.74l-19.43,19.44A2.61,2.61,0,0,1,295.71,322.5Z"/><path class="cls-2" d="M295.71,319.85a6,6,0,0,0-8.43,8.43,5.83,5.83,0,0,0,4.84,1.62,5.89,5.89,0,0,0,1.63,4.85,6,6,0,0,0,8.43-8.43"/><path class="cls-1" d="M298,339.13h0a8.52,8.52,0,0,1-6.07-2.52,8.24,8.24,0,0,1-2.26-4.21,8.38,8.38,0,0,1-4.21-2.25,8.61,8.61,0,0,1,0-12.17,8.63,8.63,0,0,1,12.17,0,2.65,2.65,0,0,1-3.74,3.75,3.31,3.31,0,0,0-5.66,2.34,3.18,3.18,0,0,0,3.66,3.2A2.54,2.54,0,0,1,294,328a2.66,2.66,0,0,1,.76,2.15,3.21,3.21,0,0,0,3.2,3.67h0a3.31,3.31,0,0,0,2.34-5.66,2.64,2.64,0,0,1,3.74-3.74A8.6,8.6,0,0,1,298,339.13Z"/><path class="cls-2" d="M333.35,310.54c-6.14,6.14-20.74,10.78-26.88,4.64s-1.5-20.74,4.64-26.88a15.73,15.73,0,0,1,22.24,22.24Z"/><path class="cls-1" d="M314.75,320.72c-4.22,0-7.73-1.25-10.15-3.67-3.45-3.45-4.51-9.09-3-15.89,1.26-5.64,4.18-11.28,7.64-14.73a18.8,18.8,0,0,1,26,0,18.37,18.37,0,0,1,0,26h0A31.67,31.67,0,0,1,320.49,320,26,26,0,0,1,314.75,320.72Zm7.48-34.38a13,13,0,0,0-9.24,3.83,26.34,26.34,0,0,0-6.22,12.15c-1.1,4.89-.53,8.9,1.57,11s6.11,2.68,11,1.58c4.65-1,9.42-3.48,12.15-6.22h0a13.08,13.08,0,0,0-9.25-22.33Z"/><path class="cls-1" d="M224.06,431.79H194a2.36,2.36,0,0,1-2.35-2.35V394.31a17.4,17.4,0,0,1,34.8,0v35.13A2.35,2.35,0,0,1,224.06,431.79Zm-27.75-4.7h25.4V394.31a12.7,12.7,0,0,0-25.4,0Z"/><path class="cls-1" d="M106.5,444.4A21.46,21.46,0,0,1,85.08,423c0-15.74,9-39.09,21.42-39.09,13.09,0,21.44,25.67,21.44,39.09A21.46,21.46,0,0,1,106.5,444.4Zm0-55.25c-8,0-16.15,19.67-16.15,33.81a16.16,16.16,0,0,0,32.32,0C122.67,409,114.3,389.15,106.5,389.15Z"/><path class="cls-1" d="M528.05,517.47a5.08,5.08,0,1,1,5.07-5.08A5.09,5.09,0,0,1,528.05,517.47Zm0-5.45v.75l.37-.38A.37.37,0,0,0,528.05,512Z"/><path class="cls-1" d="M516.58,529.72a5.08,5.08,0,1,1,5.09-5.07A5.07,5.07,0,0,1,516.58,529.72Zm0-5.45V525l.38-.37A.37.37,0,0,0,516.58,524.27Z"/><path class="cls-1" d="M494.14,505.05a2.35,2.35,0,0,1-.42-4.66l2.61-.47a135.8,135.8,0,0,1,46.6-.43l5.43.89a2.36,2.36,0,0,1,1.94,2.7,2.3,2.3,0,0,1-2.7,1.94l-5.43-.89a131.59,131.59,0,0,0-45,.41l-2.61.47A2,2,0,0,1,494.14,505.05Z"/><path class="cls-1" d="M336.47,420.08H288.1a2.35,2.35,0,0,1,0-4.7h48.37a2.35,2.35,0,0,1,0,4.7Z"/><path class="cls-1" d="M318.32,393.53a2.86,2.86,0,0,1-1.65-.59,2.32,2.32,0,0,1-.7-1.64,2.4,2.4,0,0,1,.7-1.77,2.52,2.52,0,0,1,3.3,0,2.4,2.4,0,0,1,.71,1.77,2.33,2.33,0,0,1-.71,1.64A2.37,2.37,0,0,1,318.32,393.53Z"/><path class="cls-1" d="M321.85,399.17a2.31,2.31,0,0,1-1.64-.71,2.41,2.41,0,0,1-.72-1.76,2.34,2.34,0,0,1,.72-1.65,2.49,2.49,0,0,1,3.28,0,2.33,2.33,0,0,1,.71,1.65,2.4,2.4,0,0,1-.71,1.76A2,2,0,0,1,321.85,399.17Z"/><path class="cls-1" d="M416.89,415.32a19.2,19.2,0,1,1,13.57-32.77h0a19.2,19.2,0,0,1-13.57,32.77Zm0-33.68a14.49,14.49,0,0,0-10.25,24.74,14.83,14.83,0,0,0,20.49,0,14.46,14.46,0,0,0,0-20.5h0A14.39,14.39,0,0,0,416.89,381.64Z"/><path class="cls-1" d="M416.89,407.16a11,11,0,0,1-7.8-18.83,11.3,11.3,0,0,1,15.6,0h0a11,11,0,0,1-7.8,18.83Zm0-17.36a6.32,6.32,0,0,0-4.47,10.8,6.46,6.46,0,0,0,8.94,0,6.33,6.33,0,0,0-4.47-10.8Z"/><circle class="cls-2" cx="405.59" cy="302.94" r="16.84"/><path class="cls-1" d="M405.59,322.12a19.19,19.19,0,1,1,13.58-32.76h0a19.19,19.19,0,0,1-13.58,32.76Zm0-33.67a14.49,14.49,0,1,0,10.25,4.24A14.43,14.43,0,0,0,405.59,288.45Z"/><circle class="cls-2" cx="405.59" cy="302.94" r="8.68"/><path class="cls-1" d="M405.59,314a11,11,0,1,1,7.81-18.81h0A11,11,0,0,1,405.59,314Zm0-17.34a6.33,6.33,0,1,0,4.48,1.85A6.33,6.33,0,0,0,405.59,296.61Z"/><path class="cls-1" d="M416.66,446h0a2.36,2.36,0,0,1-2.34-2.36l.23-47.52a2.35,2.35,0,0,1,2.35-2.34h0a2.35,2.35,0,0,1,2.34,2.36L419,443.66A2.35,2.35,0,0,1,416.66,446Z"/><path class="cls-1" d="M626,544.35c-13.65,0-24.26-8.18-26.4-20.37l-.73-.81a5.93,5.93,0,0,1-2-3.86,6.1,6.1,0,0,1,2-3.93,7.74,7.74,0,0,0,.79-1c2.2-12.12,13-20.66,26.34-20.66,13.62,0,24.42,8.73,26.45,21.3l.84.54c1.33.83,3,1.87,3,3.77s-1.64,3-3,3.85c-.26.18-.64.42-.87.6C650.33,536.1,639.78,544.35,626,544.35Zm-24.32-24.91c.16,0,.48.35.7.6a6.56,6.56,0,0,1,1.85,3.13c1.76,10,10.3,16.48,21.77,16.48s20.36-6.86,21.86-17.08c.23-1.52,1.49-2.43,2.68-3.21-1.19-.75-2.44-1.63-2.65-3.14C646.39,505.73,637.4,498.4,626,498.4c-11.16,0-19.9,6.8-21.75,16.91a6.78,6.78,0,0,1-1.83,3.14,8.79,8.79,0,0,0-.8,1A.07.07,0,0,1,601.65,519.44Zm50.2.83h0Z"/><path class="cls-1" d="M619.33,533.71a2,2,0,0,1-1.64-.71,2.3,2.3,0,0,1-.7-1.64,2.11,2.11,0,0,1,.7-1.64,2.27,2.27,0,0,1,3.29,0,2.11,2.11,0,0,1,.7,1.64A2.3,2.3,0,0,1,621,533,2.28,2.28,0,0,1,619.33,533.71Z"/><path class="cls-1" d="M613.7,528.07a2.4,2.4,0,0,1-1.77-.7,2.83,2.83,0,0,1-.58-1.65,2.32,2.32,0,0,1,.58-1.64,2.41,2.41,0,0,1,3.41,0,2.13,2.13,0,0,1,.71,1.64,2.41,2.41,0,0,1-2.35,2.35Z"/><path class="cls-1" d="M621.57,524.32a1.94,1.94,0,0,1-1.64-.71,2.13,2.13,0,0,1-.71-1.65,2.33,2.33,0,0,1,.71-1.64,2.49,2.49,0,0,1,3.28,0,2.33,2.33,0,0,1,.71,1.64,2.13,2.13,0,0,1-.71,1.65A2.33,2.33,0,0,1,621.57,524.32Z"/><path class="cls-1" d="M401.19,99.65a2.36,2.36,0,0,1-1.66-.69l-7.2-7.2a2.35,2.35,0,0,1,0-3.33l7.2-7.19a2.34,2.34,0,0,1,3.32,0l7.21,7.19a2.35,2.35,0,0,1,0,3.33L402.85,99A2.32,2.32,0,0,1,401.19,99.65Zm-3.88-9.55L401.19,94l3.88-3.88-3.88-3.88Z"/><path class="cls-1" d="M408.43,106.88a2.39,2.39,0,0,1-1.66-.68L399.56,99a2.34,2.34,0,0,1,0-3.32l7.21-7.2a2.36,2.36,0,0,1,1.66-.69h0a2.36,2.36,0,0,1,1.66.69l7.19,7.2a2.34,2.34,0,0,1,0,3.32l-7.19,7.2A2.34,2.34,0,0,1,408.43,106.88Zm-3.88-9.55,3.88,3.88,3.88-3.88-3.88-3.88Z"/><path class="cls-1" d="M415.66,99.65A2.36,2.36,0,0,1,414,99l-7.2-7.2a2.35,2.35,0,0,1,0-3.33l7.2-7.19a2.35,2.35,0,0,1,3.33,0l7.2,7.19a2.35,2.35,0,0,1,0,3.33l-7.2,7.2A2.36,2.36,0,0,1,415.66,99.65Zm-3.88-9.55L415.66,94l3.87-3.88-3.87-3.88Z"/><path class="cls-1" d="M425.86,124a2.36,2.36,0,0,1-1.64-.68l-17.43-17.1a2.35,2.35,0,0,1,0-3.32,2.32,2.32,0,0,1,3.32,0l15.7,15.39,11-12L421.25,91.82a2.36,2.36,0,0,1-.11-3.32,2.34,2.34,0,0,1,3.33-.12l17.18,16a2.35,2.35,0,0,1,.12,3.31L427.6,123.22a2.37,2.37,0,0,1-1.67.76Z"/><polygon class="cls-2" points="424.75 88.97 405.42 107.3 412.39 113.88 416.44 104.65 421.53 109.64 424.75 88.97"/><path class="cls-1" d="M412.39,116.23a2.4,2.4,0,0,1-1.62-.64l-7-6.58a2.38,2.38,0,0,1-.74-1.71,2.34,2.34,0,0,1,.74-1.71l19.31-18.32a2.37,2.37,0,0,1,2.71-.38,2.34,2.34,0,0,1,1.23,2.44L423.85,110a2.34,2.34,0,0,1-1.58,1.87,2.26,2.26,0,0,1-2.38-.55l-2.67-2.61-2.68,6.11a2.34,2.34,0,0,1-1.68,1.36A2.5,2.5,0,0,1,412.39,116.23Zm-3.55-8.93,2.73,2.58,2.71-6.17a2.35,2.35,0,0,1,3.8-.74l1.83,1.79,1.45-9.35Z"/><path class="cls-1" d="M325.59,211.49h-7.36a2.36,2.36,0,0,1-2.35-2.36V199.3a2.35,2.35,0,0,1,2.35-2.35h7.36a2.35,2.35,0,0,1,2.35,2.35v9.83A2.36,2.36,0,0,1,325.59,211.49Zm-5-4.71h2.66v-5.13h-2.66Z"/><path class="cls-1" d="M321.91,201.65a2.35,2.35,0,0,1-2.35-2.35V193a2.35,2.35,0,1,1,4.7,0v6.35A2.35,2.35,0,0,1,321.91,201.65Z"/><path class="cls-2" d="M448.69,304.6a2.17,2.17,0,0,1,2.16,2.35,33.67,33.67,0,0,1-67.17,0,2.19,2.19,0,0,1,2.17-2.35Z"/><path class="cls-1" d="M417.27,340.61a36.08,36.08,0,0,1-35.92-33.5,4.52,4.52,0,0,1,4.5-4.87h62.84a4.53,4.53,0,0,1,3.29,1.44,4.6,4.6,0,0,1,1.21,3.44A36.09,36.09,0,0,1,417.27,340.61ZM385.85,307a31.42,31.42,0,0,0,62.65,0Zm62.84,0h0Z"/><circle class="cls-2" cx="632.71" cy="302.02" r="18.06"/><path class="cls-1" d="M632.72,322.43a20.41,20.41,0,1,1,14.43-34.85h0a20.41,20.41,0,0,1-14.43,34.84Zm0-36.11a15.7,15.7,0,1,0,11.11,4.59A15.67,15.67,0,0,0,632.72,286.32Z"/><circle class="cls-2" cx="614.79" cy="304.3" r="14.84"/><path class="cls-1" d="M614.78,321.49a17.19,17.19,0,0,1-12.15-29.35,17.6,17.6,0,0,1,24.31,0h0a17.19,17.19,0,0,1-12.16,29.35Zm0-29.69a12.38,12.38,0,0,0-8.83,3.67,12.53,12.53,0,0,0,0,17.67,12.81,12.81,0,0,0,17.67,0,12.47,12.47,0,0,0,0-17.67h0A12.42,12.42,0,0,0,614.78,291.8Z"/><path class="cls-2" d="M656.52,301.76a2.2,2.2,0,0,1,2.17,2.36,33.67,33.67,0,0,1-67.17,0,2.18,2.18,0,0,1,2.16-2.36Z"/><path class="cls-1" d="M625.1,337.78a36.1,36.1,0,0,1-35.92-33.5,4.54,4.54,0,0,1,4.5-4.87h62.84a4.52,4.52,0,0,1,4.5,4.88A36.09,36.09,0,0,1,625.1,337.78Zm-31.42-33.67a31.42,31.42,0,0,0,62.65,0Zm62.84,0h0Z"/><path class="cls-1" d="M521,338.33a2.36,2.36,0,0,1-2.35-2.35V304.67a2.35,2.35,0,1,1,4.7,0V336A2.35,2.35,0,0,1,521,338.33Z"/><path class="cls-1" d="M532.75,338.33H509.17a2.35,2.35,0,0,1,0-4.7h23.58a2.35,2.35,0,0,1,0,4.7Z"/><path class="cls-1" d="M514.14,129.32a2.29,2.29,0,0,1-1.58-.62,2.34,2.34,0,0,1-.15-3.32c.07-.07,7-7.67,8.85-14.89,2.07-7.93,5-12.9,10.84-18.33,4.55-4.24,6.69-11.32,6.7-11.39a2.34,2.34,0,0,1,2.92-1.59,2.37,2.37,0,0,1,1.6,2.91c-.1.34-2.5,8.37-8,13.51-4.44,4.13-7.42,8.09-9.51,16.07-2.16,8.37-9.62,16.54-9.93,16.89A2.38,2.38,0,0,1,514.14,129.32Z"/><path class="cls-1" d="M506.92,125.05a2.38,2.38,0,0,1-.86-.16l-8-3.17a2.34,2.34,0,0,1-.87-3.77c.07-.08,7-7.68,8.85-14.9,2.07-7.93,5-12.9,10.85-18.33,4.56-4.23,6.69-11.32,6.7-11.39a2.46,2.46,0,0,1,1.23-1.45,2.29,2.29,0,0,1,1.9-.07l8,3.17a2.36,2.36,0,0,1,1.38,2.85c-.1.33-2.5,8.37-8,13.5-4.44,4.14-7.41,8.1-9.49,16.07-2.19,8.37-9.62,16.55-9.93,16.89A2.35,2.35,0,0,1,506.92,125.05Zm-4.09-6.5,3.41,1.35c2-2.44,6.36-8.17,7.81-13.69,2.34-9,5.88-13.7,10.82-18.32a26.73,26.73,0,0,0,6-9.38l-3.6-1.43a31.37,31.37,0,0,1-7.17,11.09c-4.42,4.12-7.41,8.08-9.49,16.07C509.14,109.87,505.28,115.43,502.83,118.55Z"/><path class="cls-1" d="M210.56,539.92a25,25,0,1,1,25.05-25A25.07,25.07,0,0,1,210.56,539.92Zm0-45.39a20.35,20.35,0,1,0,20.35,20.35A20.37,20.37,0,0,0,210.56,494.53Z"/><path class="cls-1" d="M210.56,511a2.35,2.35,0,0,1-2.35-2.35v-1.91a2.35,2.35,0,0,1,4.7,0v1.91A2.36,2.36,0,0,1,210.56,511Z"/><path class="cls-1" d="M210.56,525.39a2.35,2.35,0,0,1-2.35-2.35v-1.9a2.35,2.35,0,1,1,4.7,0V523A2.35,2.35,0,0,1,210.56,525.39Z"/><path class="cls-1" d="M215.25,513.08a2.35,2.35,0,0,1-1.56-4.11l1.42-1.26a2.35,2.35,0,1,1,3.12,3.51l-1.42,1.26A2.3,2.3,0,0,1,215.25,513.08Z"/><path class="cls-1" d="M204.44,522a2.31,2.31,0,0,1-1.75-.79,2.34,2.34,0,0,1,.19-3.31l1.43-1.26a2.33,2.33,0,0,1,3.31.19,2.35,2.35,0,0,1-.19,3.32L206,521.41A2.32,2.32,0,0,1,204.44,522Z"/><path class="cls-1" d="M218,520.63a2.33,2.33,0,0,1-1-.22l-1.73-.8a2.35,2.35,0,1,1,2-4.26l1.74.79a2.36,2.36,0,0,1-1,4.49Z"/><path class="cls-1" d="M204.87,514.62a2.4,2.4,0,0,1-1-.21l-1.73-.79a2.35,2.35,0,0,1-1.16-3.11,2.38,2.38,0,0,1,3.11-1.17l1.73.79a2.35,2.35,0,0,1-1,4.49Z"/><path class="cls-1" d="M98.37,508a2.28,2.28,0,0,1-1-.25,2.34,2.34,0,0,1-1.06-3.15A16.34,16.34,0,0,1,111,495.5a2.35,2.35,0,1,1,0,4.7,11.67,11.67,0,0,0-10.51,6.51A2.35,2.35,0,0,1,98.37,508Z"/><path class="cls-1" d="M538.45,441.58a2.39,2.39,0,0,1-2-1l-6.5-9.6a2.35,2.35,0,0,1,3.9-2.64l6.5,9.61a2.36,2.36,0,0,1-1.95,3.67Z"/><path class="cls-1" d="M521.32,434.11A30.24,30.24,0,0,1,491.22,406a4.22,4.22,0,0,1,1.11-3.15,4.16,4.16,0,0,1,3-1.31h51.94a4.17,4.17,0,0,1,3,1.33,4.12,4.12,0,0,1,1.09,3.14A30.23,30.23,0,0,1,521.32,434.11Zm-25.54-27.83a25.57,25.57,0,0,0,50.91,0Zm51.51,0h0Z"/><path class="cls-1" d="M504.19,441.58a2.36,2.36,0,0,1-1.95-3.67l6.49-9.6a2.35,2.35,0,0,1,3.9,2.63l-6.49,9.6A2.36,2.36,0,0,1,504.19,441.58Z"/><path class="cls-1" d="M509.52,397.71a2.36,2.36,0,0,1-2.35-2.35v-9.92a2.36,2.36,0,0,1,4.71,0v9.92A2.36,2.36,0,0,1,509.52,397.71Z"/><path class="cls-1" d="M521.24,397.71a2.36,2.36,0,0,1-2.36-2.35v-9.92a2.36,2.36,0,0,1,4.71,0v9.92A2.36,2.36,0,0,1,521.24,397.71Z"/><path class="cls-1" d="M533.11,397.71a2.35,2.35,0,0,1-2.35-2.35v-9.92a2.35,2.35,0,0,1,4.7,0v9.92A2.36,2.36,0,0,1,533.11,397.71Z"/><path class="cls-1" d="M635.43,123h0a15.33,15.33,0,0,1-10.63-4.32L607.3,101.21c-4.8-4.8-6.23-14.11-1-19.39s14.6-3.83,19.39,1l17.49,17.49c4.79,4.8,6.35,13.92.93,19.36h0A12.18,12.18,0,0,1,635.43,123ZM615,83.13a7.42,7.42,0,0,0-5.33,2c-3.32,3.32-2.21,9.57,1,12.73l17.49,17.49a10.65,10.65,0,0,0,7.32,2.95h0a7.47,7.47,0,0,0,5.39-2c3.32-3.32,2.23-9.56-.93-12.71L622.4,86.1A10.8,10.8,0,0,0,615,83.13ZM642.49,118h0Z"/><path class="cls-1" d="M619.56,92.3a2.36,2.36,0,0,1-1.67-4c3.39-3.38,8.68-3.17,9.25-3.16a2.33,2.33,0,0,1,2.21,2.46,2.29,2.29,0,0,1-2.45,2.23,8,8,0,0,0-5.68,1.8A2.36,2.36,0,0,1,619.56,92.3Z"/><path class="cls-1" d="M626.37,99.1a2.37,2.37,0,0,1-1.66-.68,2.34,2.34,0,0,1,0-3.32c3.38-3.41,8.67-3.22,9.23-3.18a2.35,2.35,0,0,1-.14,4.7,2.7,2.7,0,0,1-.38,0c-1.21,0-3.9.31-5.39,1.8A2.34,2.34,0,0,1,626.37,99.1Z"/><path class="cls-1" d="M633.3,106a2.35,2.35,0,0,1-1.66-4c3.38-3.4,8.68-3.2,9.23-3.17a2.35,2.35,0,0,1-.14,4.7h-.38c-1.21,0-3.9.31-5.39,1.8A2.36,2.36,0,0,1,633.3,106Z"/></svg>