<?xml version="1.0" encoding="utf-8"?>
<!-- Generator: Adobe Illustrator 24.1.0, SVG Export Plug-In . SVG Version: 6.00 Build 0)  -->
<svg version="1.1" id="Layer_1" xmlns="http://www.w3.org/2000/svg" xmlns:xlink="http://www.w3.org/1999/xlink" x="0px" y="0px"
	 viewBox="0 0 2500 1125" style="enable-background:new 0 0 2500 1125;" xml:space="preserve">
<style type="text/css">
	.st0{fill:#026CFF;}
	.st1{fill:#FFFFFF;}
</style>
<rect class="st0" width="2500" height="1125"/>
<path class="st1" d="M477,629.5c-4,0-7.8-1.9-10.3-5.1l-28.3-36.5c-4.5-5.8-3.5-14,2.2-18.6c5.6-4.4,13.8-3.5,18.3,2.2
	c0,0,0,0.1,0.1,0.1l28.3,36.5c4.5,5.8,3.5,14-2.2,18.6C482.8,628.5,479.9,629.5,477,629.5"/>
<path class="st1" d="M564.5,548.8c0.1,0.4,0,0.8-0.1,1.2c-0.1,0.5-0.3,0.9-0.5,1.3C564.1,550.6,564.3,549.7,564.5,548.8"/>
<path class="st1" d="M499.2,625.4c-18.6,18.9-41.8,32.7-67.3,40l-15-84.5c-1-6.3-6.8-10.6-13.1-9.6c-0.1,0-0.3,0-0.4,0.1
	c-6.3,1.2-10.5,7.3-9.4,13.7l15,85.1c-43.6,5.8-87.6-7.2-120.9-35.9L507.2,412c28.4,33.6,41.4,77.5,36.1,121.1l-77.9-17.9
	c-6.2-1.5-12.4,2.3-13.9,8.5c0,0.1-0.1,0.2-0.1,0.3c-1.4,6.3,2.6,12.6,8.8,14.1l78.5,18C531.8,582.2,518.2,606.1,499.2,625.4
	 M524.2,396c-4.1-4.8-10-7.7-16.2-7.9c-6.1-1-12.3,2.1-16.5,6.5L271.6,617.4c-8.9,9-8.7,23.5,0.2,32.3c0.3,0.3,0.6,0.6,1,0.9
	c32.2,28.5,73.7,44.2,116.7,44.1c11.5,0,23-1.1,34.2-3.3h0.1c0.8-0.2,1.6-0.4,2.5-0.6c0.1,0,0.2-0.1,0.3-0.1
	c33.8-7.2,64.8-24.1,89-48.8c24.6-24.9,41.3-56.4,48.3-90.6v-0.1c0.2-0.8,0.4-1.6,0.6-2.5c0.2-0.5,0.2-1,0.2-1.5
	C574.3,494.9,561,438.8,524.2,396"/>
<path class="st1" d="M426.4,690.9c-0.6,0.2-1.1,0.4-1.7,0.5c-0.3,0-0.6,0.1-0.8,0.1C424.6,691.3,425.5,691.1,426.4,690.9"/>
<path class="st1" d="M1125.7,547.1L1125.7,547.1z M814.9,547.1c6.5,81.1,74.4,145.2,155.5,145.2c80.8,0,148.5-63.7,154.5-145.2
	H814.9z M970.3,715.9c-93.3,0-171.4-73.8-177.7-167.9c-0.4-6.3,1.7-12.5,6-17.2c4.2-4.6,10.1-7.2,16.3-7.2h310.9
	c6.2,0,12.1,2.6,16.2,7.1c4.3,4.7,6.5,10.9,6.1,17.2C1141.6,642.1,1063.6,715.9,970.3,715.9"/>
<path class="st1" d="M998.3,538.3c-2.7,0-5.3-0.9-7.3-2.6c-5-4.1-5.7-11.5-1.7-16.5l100.9-126.7c4-5,11.2-5.8,16.2-1.9
	c0,0,0.1,0.1,0.1,0.1c5,4.1,5.7,11.5,1.7,16.6l-100.9,126.7C1005.2,536.7,1001.8,538.3,998.3,538.3"/>
<path class="st1" d="M970.9,537c-1.7,0-3.3-0.4-4.8-1.1c-5.9-2.7-8.4-9.7-5.7-15.6l44.3-98.7c2.5-5.8,9.2-8.5,15.1-6
	c0.1,0,0.2,0.1,0.3,0.1c5.9,2.7,8.4,9.7,5.7,15.6l-44.2,98.7C979.6,534.3,975.5,537,970.9,537"/>
<path class="st1" d="M1419.7,595.2h-47.8c-7.3-0.2-13.1-6.3-12.9-13.6c0.2-7,5.9-12.7,12.9-12.9h47.8c7.3,0.2,13.1,6.3,12.9,13.6
	C1432.4,589.3,1426.7,595,1419.7,595.2"/>
<path class="st1" d="M1594.9,672.9h-223c-7.3-0.2-13.1-6.3-12.9-13.6c0.2-7,5.9-12.7,12.9-12.9h223c6.2,0,11.2-5.1,11.1-11.2
	c0,0,0,0,0,0V445.4l-54.6-59l-39.7,19.9l15.8,27.2l3.6,0.6l26.6-0.1c7.2,0.1,13,6,13,13.2v134.7c0,7.3-5.8,13.2-13.1,13.2h-50.8
	c-7.3-0.2-13.1-6.3-12.9-13.6c0.2-7,5.9-12.7,12.9-12.9h37.8V460.4H1529l-11.7-1.7c-3.9-0.6-7.3-3-9.3-6.4l-26-44.9
	c-1.8-3.2-2.3-7-1.2-10.5c1-3.5,3.5-6.4,6.7-8.1l61-30.6c5.2-2.6,11.4-1.4,15.3,2.8l64.7,70c2.3,2.5,3.5,5.7,3.5,9v195
	C1632.1,655.9,1615.4,672.9,1594.9,672.9"/>
<path class="st1" d="M1506.7,595.2c-7.3-0.1-13.1-6-13.1-13.3c0.3-16.8-13.1-30.7-29.9-31s-30.7,13.1-31,29.9c0,0.4,0,0.7,0,1.1
	c0,7.2-5.9,13.1-13.1,13.1c-7.2,0-13.1-5.9-13.1-13.1l0,0c0-31.6,25.4-57.3,56.6-57.3s56.6,25.7,56.6,57.3
	C1519.8,589.2,1514,595.1,1506.7,595.2"/>
<path class="st1" d="M1999.4,415.9c-37.4,0-67.9,30.8-67.9,68.7c0,12.9,3.6,25.5,10.3,36.5c9.2,14.8,70.5,81.7,104,105.1
	c9.5,6.5,22.1,6.5,31.6,0c33.7-23.5,94.9-90.4,104-105.2c6.8-11,10.4-23.6,10.3-36.5c0-37.9-30.4-68.7-67.8-68.7
	c-20,0-38.5,9.5-52.1,26.7c-4.4,5.6-12.5,6.6-18.2,2.2c-0.8-0.7-1.6-1.4-2.2-2.2C2037.9,425.4,2019.4,415.9,1999.4,415.9
	 M2061.7,657.6c-11,0-21.6-3.3-30.6-9.6c-35.5-24.8-99.5-93.9-111.3-112.9c-9.4-15.2-14.3-32.7-14.3-50.6c0-52.5,42.2-95.2,94-95.2
	c23.3,0,44.9,8.9,62.3,25.5c17.3-16.3,39.4-25.5,62.3-25.5c51.8,0,93.9,42.7,93.9,95.2c0,17.9-4.9,35.4-14.3,50.6
	c-11.7,19-75.8,88.1-111.3,112.9C2083.4,654.3,2072.7,657.6,2061.7,657.6"/>
<path class="st1" d="M2053.3,574.8c-5,1.6-9.1-2.6-11.5-6.8l-27.7-50.7l-18.8,25.7c-2.4,3.4-6.3,5.4-10.5,5.4h-49
	c-7.3,0-13.2-5.9-13.2-13.2s5.9-13.2,13.2-13.2h42.4l27-36.9c2.6-3.7,6.5-5.4,11.3-5.4c4.5,0.3,8.5,2.9,10.6,6.8l26.3,48.2l8.1-14.1
	c2.3-4.1,6.6-6.6,11.3-6.6h50.9c7.3,0.2,13.1,6.3,12.9,13.6c-0.2,7-5.9,12.7-12.9,12.9h-43.4l-15.9,27.7
	C2062.3,572.3,2058,574.8,2053.3,574.8"/>
</svg>
