<svg id="Layer_1" data-name="Layer 1" xmlns="http://www.w3.org/2000/svg" viewBox="0 0 734.55 622"><defs><style>.cls-1{fill:#fff;}.cls-2{fill:#010101;}</style></defs><title>KaraHealthIconGallery</title><rect class="cls-1" x="81.86" y="77.72" width="576.2" height="468.55"/><path class="cls-1" d="M211,332.07a19.23,19.23,0,1,1,0-38.46"/><path class="cls-2" d="M211,334.43a21.59,21.59,0,1,1,0-43.17,2.35,2.35,0,0,1,0,4.7,16.88,16.88,0,1,0,0,33.76,2.36,2.36,0,0,1,0,4.71Z"/><circle class="cls-1" cx="524.25" cy="102.76" r="23.4"/><path class="cls-2" d="M524.25,128.8a26,26,0,1,1,26-26A26.08,26.08,0,0,1,524.25,128.8Zm0-46.8A20.76,20.76,0,1,0,545,102.76,20.79,20.79,0,0,0,524.25,82Z"/><path class="cls-2" d="M530.15,105.18h-11.8a2.65,2.65,0,1,1,0-5.29h11.8a2.65,2.65,0,1,1,0,5.29Z"/><path class="cls-2" d="M530.15,114.9a2.65,2.65,0,0,1-2.64-2.65V93.46a2.65,2.65,0,0,1,5.29,0v18.79A2.65,2.65,0,0,1,530.15,114.9Z"/><path class="cls-2" d="M518.35,114.9a2.65,2.65,0,0,1-2.65-2.65V93.46a2.65,2.65,0,0,1,5.29,0v18.79A2.65,2.65,0,0,1,518.35,114.9Z"/><path class="cls-2" d="M331.64,207.38a2.63,2.63,0,0,1-1.87-.77l-13.28-13.29a2.64,2.64,0,1,1,3.74-3.74l13.28,13.29a2.63,2.63,0,0,1,0,3.74A2.6,2.6,0,0,1,331.64,207.38Z"/><path class="cls-2" d="M333.12,199.91a2.61,2.61,0,0,1-1.87-.78L324,191.85a2.64,2.64,0,0,1,3.74-3.74l7.28,7.28a2.65,2.65,0,0,1-1.87,4.52Z"/><path class="cls-2" d="M304.08,228.94a2.63,2.63,0,0,1-1.87-.78l-7.28-7.27a2.64,2.64,0,1,1,3.74-3.74l7.28,7.27a2.65,2.65,0,0,1-1.87,4.52Z"/><path class="cls-2" d="M312,227a2.63,2.63,0,0,1-1.87-.78l-13.29-13.28a2.64,2.64,0,0,1,3.74-3.74l13.29,13.28A2.65,2.65,0,0,1,312,227Z"/><path class="cls-2" d="M301.58,224.16a2.64,2.64,0,0,1-1.87-4.51L325,194.33a2.64,2.64,0,0,1,3.74,3.73l-25.33,25.33A2.66,2.66,0,0,1,301.58,224.16Z"/><path class="cls-2" d="M548.52,430a2.61,2.61,0,0,1-1.32-.35l-8.83-5.09A2.64,2.64,0,1,1,541,420l8.83,5.09a2.64,2.64,0,0,1-1.32,4.93Z"/><path class="cls-2" d="M509,407.23a2.58,2.58,0,0,1-1.32-.36l-8.82-5.09a2.64,2.64,0,0,1,2.64-4.58l8.82,5.1a2.64,2.64,0,0,1-1.32,4.93Z"/><path class="cls-2" d="M539.69,407.94a2.65,2.65,0,0,1-1.32-4.94l8.83-5.1a2.64,2.64,0,0,1,2.64,4.58l-8.83,5.1A2.68,2.68,0,0,1,539.69,407.94Z"/><path class="cls-2" d="M500.17,430.75a2.64,2.64,0,0,1-1.32-4.93l8.82-5.1a2.64,2.64,0,1,1,2.64,4.58l-8.82,5.09A2.53,2.53,0,0,1,500.17,430.75Z"/><path class="cls-2" d="M524.34,444.71a2.64,2.64,0,0,1-2.64-2.64v-10.2a2.64,2.64,0,0,1,5.28,0v10.2A2.64,2.64,0,0,1,524.34,444.71Z"/><path class="cls-2" d="M524.34,399.07a2.64,2.64,0,0,1-2.64-2.64V386.24a2.64,2.64,0,0,1,5.28,0v10.19A2.64,2.64,0,0,1,524.34,399.07Z"/><path class="cls-2" d="M217.36,533.45a2.65,2.65,0,0,1,0-5.29,13.35,13.35,0,1,0-13.12-15.81,2.64,2.64,0,1,1-5.18-1,18.63,18.63,0,1,1,18.3,22.08Z"/><path class="cls-2" d="M218.29,533.45H199.34a12.12,12.12,0,0,1,0-24.23,2.65,2.65,0,0,1,0,5.29,6.83,6.83,0,0,0,0,13.65h18.95a2.65,2.65,0,0,1,0,5.29Z"/><path class="cls-2" d="M319.55,533.43a2.65,2.65,0,0,1,0-5.29,13.35,13.35,0,1,0-13.11-15.81,2.64,2.64,0,1,1-5.18-1,18.62,18.62,0,1,1,18.29,22.08Z"/><path class="cls-2" d="M320.48,533.43H301.55a12.12,12.12,0,1,1,0-24.23,2.64,2.64,0,0,1,0,5.28,6.83,6.83,0,1,0,0,13.66h18.93a2.65,2.65,0,0,1,0,5.29Z"/><path class="cls-2" d="M524.5,424.68A10.51,10.51,0,0,1,517,421.6h0a10.57,10.57,0,0,1,0-14.89,10.79,10.79,0,0,1,14.9,0,10.53,10.53,0,0,1-7.44,18Zm-4.13-6.4a6,6,0,0,0,8.25,0,5.83,5.83,0,0,0,0-8.25,6,6,0,0,0-8.25,0A5.85,5.85,0,0,0,520.37,418.28Z"/><path class="cls-2" d="M436.39,399.38H426.2a2.65,2.65,0,0,1,0-5.29h10.19a2.65,2.65,0,0,1,0,5.29Z"/><path class="cls-2" d="M404.37,425H394.19a2.65,2.65,0,0,1,0-5.29h10.18a2.65,2.65,0,0,1,0,5.29Z"/><path class="cls-2" d="M442.05,434.13H424.68a2.64,2.64,0,0,1,0-5.28h17.37a2.64,2.64,0,0,1,0,5.28Z"/><path class="cls-2" d="M236,394.8H225.77a2.65,2.65,0,0,1,0-5.29H236a2.65,2.65,0,0,1,0,5.29Z"/><path class="cls-2" d="M193.9,413.81H183.72a2.65,2.65,0,0,1,0-5.29H193.9a2.65,2.65,0,0,1,0,5.29Z"/><path class="cls-2" d="M233.76,439.26H216.38a2.65,2.65,0,0,1,0-5.29h17.38a2.65,2.65,0,0,1,0,5.29Z"/><path class="cls-2" d="M419.8,425.11a10.51,10.51,0,0,1-7.46-3.08h0a10.57,10.57,0,0,1,0-14.89,10.79,10.79,0,0,1,14.9,0,10.53,10.53,0,0,1-7.44,18Zm-4.13-6.4a6,6,0,0,0,8.25,0,5.83,5.83,0,0,0,0-8.25,6,6,0,0,0-8.25,0A5.85,5.85,0,0,0,415.67,418.71Z"/><path class="cls-2" d="M312.08,436.86a23.06,23.06,0,0,1-16.33-6.74,2.9,2.9,0,0,1-.52-3.47,3,3,0,0,1,3.22-1.45,18.24,18.24,0,0,0,18.89-28.56,3.24,3.24,0,0,1,0-3.36,2.74,2.74,0,0,1,3.23-.86,22.57,22.57,0,0,1,7.82,5.05h0a23.07,23.07,0,0,1-16.33,39.39Zm-8-6.52a18.38,18.38,0,0,0,21-29.55c-.23-.23-.45-.44-.7-.66a22.91,22.91,0,0,1-20.31,30.21Zm17.06-36.49,0,0Z"/><path class="cls-2" d="M207.29,430.76A20.25,20.25,0,0,1,193,424.85a2.86,2.86,0,0,1-.49-3.4,2.83,2.83,0,0,1,3.12-1.39,15.44,15.44,0,0,0,16-24.17,3.14,3.14,0,0,1,0-3.3,2.68,2.68,0,0,1,3.12-.85,19.78,19.78,0,0,1,6.89,4.45h0a20.24,20.24,0,0,1-14.32,34.57ZM201.63,425a15.57,15.57,0,0,0,17-25.19,20.14,20.14,0,0,1-17,25.19Z"/><path class="cls-2" d="M639.47,426.73a2.64,2.64,0,0,1,0-5.28A10.62,10.62,0,1,0,629,408.86a2.64,2.64,0,1,1-5.19-1,15.9,15.9,0,1,1,15.62,18.84Z"/><path class="cls-2" d="M640.25,426.73H624.54a10.5,10.5,0,0,1,0-21,2.65,2.65,0,0,1,0,5.29,5.22,5.22,0,1,0,0,10.43h15.71a2.64,2.64,0,1,1,0,5.28Z"/><path class="cls-2" d="M607.23,395.45a2.61,2.61,0,0,1-1.32-.35l-6.36-3.68a2.64,2.64,0,1,1,2.63-4.57l6.37,3.67a2.64,2.64,0,0,1-1.32,4.93Z"/><path class="cls-2" d="M629.4,396a2.64,2.64,0,0,1-1.32-4.93l6.37-3.67a2.64,2.64,0,1,1,2.64,4.57l-6.37,3.68A2.61,2.61,0,0,1,629.4,396Z"/><path class="cls-2" d="M600.86,412.44a2.64,2.64,0,0,1-1.31-4.93l6.36-3.68a2.64,2.64,0,0,1,2.64,4.58l-6.37,3.68A2.61,2.61,0,0,1,600.86,412.44Z"/><path class="cls-2" d="M618.31,406.49a7.59,7.59,0,1,1,7.59-7.59,2.35,2.35,0,0,1-4.7,0,2.89,2.89,0,1,0-2.89,2.89,2.35,2.35,0,1,1,0,4.7Z"/><path class="cls-2" d="M443.86,228.85H394.49a2.65,2.65,0,0,1-2.64-2.64V195.44a2.64,2.64,0,0,1,2.64-2.64h11.12l5.67-4.67a2.65,2.65,0,0,1,1.68-.61h12.92a2.67,2.67,0,0,1,1.7.62l5.53,4.66h10.75a2.64,2.64,0,0,1,2.64,2.64v30.77A2.65,2.65,0,0,1,443.86,228.85Zm-46.72-5.29h44.07V198.09h-9.06a2.67,2.67,0,0,1-1.7-.62l-5.53-4.66h-11l-5.66,4.67a2.59,2.59,0,0,1-1.68.61h-9.43Z"/><path class="cls-2" d="M640.23,125.57a2.66,2.66,0,0,1-1.61-.55L627,116l-11.64,9a2.69,2.69,0,0,1-2.78.28,2.62,2.62,0,0,1-1.48-2.37V83.83a2.65,2.65,0,0,1,2.65-2.65h26.51a2.65,2.65,0,0,1,2.65,2.65v39.1a2.64,2.64,0,0,1-1.48,2.37A2.67,2.67,0,0,1,640.23,125.57ZM627,110a2.62,2.62,0,0,1,1.62.55l9,7V86.47H616.36v31.07l9-7A2.61,2.61,0,0,1,627,110Z"/><path class="cls-2" d="M116.49,439.89a2.71,2.71,0,0,1-1.62-.55l-7.74-6-7.75,6a2.64,2.64,0,0,1-4.21-2.58l3.77-20.08a2.64,2.64,0,0,1,2.59-2.16h11.19a2.64,2.64,0,0,1,2.6,2.16l3.77,20.08a2.65,2.65,0,0,1-2.6,3.13Zm-9.36-12.52a2.61,2.61,0,0,1,1.61.55l3.87,3-2.08-11.1h-6.81l-2.08,11.1,3.87-3A2.62,2.62,0,0,1,107.13,427.37Z"/><circle class="cls-1" cx="419.17" cy="209.38" r="7.92"/><path class="cls-2" d="M419.17,220a10.57,10.57,0,1,1,10.57-10.57A10.57,10.57,0,0,1,419.17,220Zm0-15.85a5.28,5.28,0,1,0,5.28,5.28A5.29,5.29,0,0,0,419.17,204.1Z"/><path class="cls-2" d="M314.23,321.72a2.3,2.3,0,0,1-1.18-.32,2.33,2.33,0,0,1-.85-3.21c.4-.7,10.07-17.07,22.27-17.07a2.36,2.36,0,0,1,0,4.71c-9.5,0-18.13,14.58-18.21,14.72A2.33,2.33,0,0,1,314.23,321.72Z"/><path class="cls-2" d="M334.47,299.64h-9a2.36,2.36,0,0,1,0-4.71h9a2.36,2.36,0,0,1,0,4.71Z"/><path class="cls-2" d="M306.44,306.74h-9a2.35,2.35,0,1,1,0-4.7h9a2.35,2.35,0,1,1,0,4.7Z"/><path class="cls-2" d="M334.47,332.27A11.25,11.25,0,1,1,345.71,321,11.27,11.27,0,0,1,334.47,332.27Zm0-17.79A6.55,6.55,0,1,0,341,321,6.56,6.56,0,0,0,334.47,314.48Z"/><path class="cls-2" d="M297,331.66a11.25,11.25,0,1,1,11.25-11.25A11.26,11.26,0,0,1,297,331.66Zm0-17.79a6.54,6.54,0,1,0,6.55,6.54A6.55,6.55,0,0,0,297,313.87Z"/><path class="cls-2" d="M314.23,321.72a2.36,2.36,0,0,1-2.22-1.56,42.15,42.15,0,0,0-4.1-8.35c-3.61-5.26-10.23-5-10.38-5.07a2.16,2.16,0,0,1-2.43-2.26,2.33,2.33,0,0,1,2.26-2.43c.33-.06,9.36-.26,14.42,7.1a46.92,46.92,0,0,1,4.66,9.44,2.35,2.35,0,0,1-1.43,3A2.41,2.41,0,0,1,314.23,321.72Z"/><path class="cls-2" d="M435.7,336.12a11.24,11.24,0,1,1,11.17-12.48h0a11.26,11.26,0,0,1-9.94,12.4A10.26,10.26,0,0,1,435.7,336.12Zm0-17.79a5.79,5.79,0,0,0-.72,0,6.54,6.54,0,1,0,.72,0Z"/><path class="cls-2" d="M401.71,336.77a11.26,11.26,0,1,1,1.25-.07A10.48,10.48,0,0,1,401.71,336.77Zm0-17.8c-.24,0-.48,0-.72,0a6.56,6.56,0,0,0-5.79,7.23,6.5,6.5,0,0,0,2.41,4.39,6.7,6.7,0,0,0,4.81,1.4,6.55,6.55,0,0,0-.71-13.06Z"/><path class="cls-2" d="M416.73,330.2a1.84,1.84,0,0,1-.39,0,2.35,2.35,0,0,1-1.92-2.71l1.81-10.67-6.44-1.53a2.36,2.36,0,0,1-1.29-3.76L419,298.4a2.35,2.35,0,1,1,3.67,2.94l-8.16,10.2,5,1.17a2.35,2.35,0,0,1,1.77,2.68l-2.18,12.85A2.36,2.36,0,0,1,416.73,330.2Z"/><path class="cls-2" d="M424.2,296.65a4.79,4.79,0,0,1-4.76-4.52,4.79,4.79,0,1,1,9.56-.52h0a4.78,4.78,0,0,1-4.53,5Zm0-4.87Z"/><path class="cls-2" d="M430.45,311.81h-.13l-5.59-.31a2.36,2.36,0,0,1-2-1.41l-4-9.27a2.35,2.35,0,1,1,4.3-1.88l3.48,7.95,4.14.23a2.35,2.35,0,0,1-.13,4.7Z"/><path class="cls-2" d="M631.74,335a2.22,2.22,0,0,1-.57-.07,2.33,2.33,0,0,1-1.71-2.84l2.36-9.47-7.39-4.9a2.34,2.34,0,0,1-1-2.59l3.85-13.63a2.35,2.35,0,0,1,4.52,1.27l-3.39,12,7.34,4.85a2.36,2.36,0,0,1,1,2.53L634,333.22A2.34,2.34,0,0,1,631.74,335Z"/><path class="cls-2" d="M613.7,328.71a2.35,2.35,0,0,1-1.23-4.35l9.64-5.93a2.35,2.35,0,1,1,2.46,4l-9.64,5.93A2.3,2.3,0,0,1,613.7,328.71Z"/><path class="cls-2" d="M630.12,298.24a4.79,4.79,0,1,1,4.41-6.63h0a4.79,4.79,0,0,1-4.41,6.63Zm0-4.87Z"/><path class="cls-2" d="M635.18,310.6a2.32,2.32,0,0,1-1.73-.77l-5.6-6.11a2.35,2.35,0,1,1,3.46-3.17l4.62,5,4-1.16a2.35,2.35,0,0,1,1.32,4.51l-5.37,1.57A2.51,2.51,0,0,1,635.18,310.6Z"/><path class="cls-2" d="M617.12,309.81a2.36,2.36,0,0,1-1.77-3.9l5.84-6.66a2.34,2.34,0,0,1,2.23-.76l6.62,1.34a2.35,2.35,0,0,1-.93,4.61l-5.28-1.07-5,5.64A2.36,2.36,0,0,1,617.12,309.81Z"/><path class="cls-2" d="M317.2,105.38a12.9,12.9,0,1,1,12.9-12.9A12.92,12.92,0,0,1,317.2,105.38Zm0-20.51a7.61,7.61,0,1,0,7.61,7.61A7.61,7.61,0,0,0,317.2,84.87Z"/><path class="cls-2" d="M336.12,128.9a2.64,2.64,0,0,1-2.64-2.64c0-8-7.31-14.43-16.28-14.43s-16.27,6.47-16.27,14.43a2.65,2.65,0,0,1-5.29,0c0-10.88,9.67-19.72,21.56-19.72s21.56,8.84,21.56,19.72A2.64,2.64,0,0,1,336.12,128.9Z"/><path class="cls-2" d="M317.2,85.05H308a2.64,2.64,0,0,1-2.36-1.46l-4.88-9.73A2.64,2.64,0,0,1,303.12,70H330a2.64,2.64,0,0,1,2.45,3.63l-3.85,9.55a2.64,2.64,0,0,1-4.9-2l2.38-5.92H307.4l2.23,4.44h7.57a2.65,2.65,0,0,1,0,5.29Z"/><path class="cls-2" d="M324.33,128.66H310.07a2.35,2.35,0,1,1,0-4.7h14.26a2.35,2.35,0,1,1,0,4.7Z"/><path class="cls-2" d="M317.2,136.45a2.35,2.35,0,0,1-2.35-2.35V118.42a2.35,2.35,0,1,1,4.7,0V134.1A2.35,2.35,0,0,1,317.2,136.45Z"/><path class="cls-2" d="M211.51,214.44A16.47,16.47,0,0,1,195.05,198c0-7.34,0-16.47,16.46-16.47S228,190.64,228,198A16.47,16.47,0,0,1,211.51,214.44Zm0-27.05c-10.59,0-10.59,3.1-10.59,10.59a10.59,10.59,0,0,0,21.18,0C222.1,190.49,222.1,187.39,211.51,187.39Z"/><path class="cls-2" d="M97.73,200.38a16.48,16.48,0,0,1-9.44-2.66,2.65,2.65,0,0,1,2.95-4.4c4.57,3.07,10.53,1.58,16.87,0s12.78-3.19,18.33-.14a2.64,2.64,0,1,1-2.54,4.64c-3.75-2.05-9-.74-14.52.63A49.67,49.67,0,0,1,97.73,200.38Z"/><path class="cls-2" d="M97.73,212.71A16.42,16.42,0,0,1,88.29,210a2.64,2.64,0,0,1,2.95-4.39c4.57,3.07,10.53,1.58,16.87,0s12.78-3.18,18.33-.13a2.64,2.64,0,1,1-2.54,4.63c-3.75-2-9-.74-14.52.63A49.17,49.17,0,0,1,97.73,212.71Z"/><path class="cls-2" d="M97.73,225a16.49,16.49,0,0,1-9.44-2.67A2.64,2.64,0,0,1,91.24,218c4.56,3.06,10.52,1.58,16.86,0s12.79-3.17,18.34-.13a2.64,2.64,0,1,1-2.54,4.63c-3.76-2.06-9-.75-14.53.63A49,49,0,0,1,97.73,225Z"/><path class="cls-2" d="M201.34,303.23a9.62,9.62,0,0,1,9.62-9.62A19.2,19.2,0,0,0,211,332V312.84A9.61,9.61,0,0,1,201.34,303.23Z"/><path class="cls-1" d="M211,312.84a9.55,9.55,0,0,1,.77,19.08,19.16,19.16,0,0,0-.77-38.31"/><path class="cls-2" d="M211.73,334.27a2.35,2.35,0,0,1-.2-4.69,7.18,7.18,0,0,0,6.69-7.12,7.27,7.27,0,0,0-7.26-7.27,2.35,2.35,0,1,1,0-4.7,12,12,0,0,1,11.72,14.39,16.68,16.68,0,0,0,5.12-12.07A16.86,16.86,0,0,0,211,296a2.35,2.35,0,0,1,0-4.7,21.51,21.51,0,0,1,.87,43Z"/><path class="cls-2" d="M211,332.07c.27,0,.51-.13.77-.15-.26,0-.5.08-.77.08Z"/><path class="cls-2" d="M220.57,322.46a9.62,9.62,0,0,0-9.61-9.62V332c.27,0,.51-.07.77-.08A9.54,9.54,0,0,0,220.57,322.46Z"/><path class="cls-1" d="M211,293.61a9.62,9.62,0,1,0,0,19.23"/><path class="cls-2" d="M211,315.19a12,12,0,1,1,0-23.93,2.35,2.35,0,0,1,0,4.7,7.27,7.27,0,0,0,0,14.53,2.35,2.35,0,1,1,0,4.7Z"/><circle class="cls-1" cx="626.47" cy="216.47" r="17.6"/><path class="cls-2" d="M626.47,236.42a19.95,19.95,0,1,1,19.95-19.95A20,20,0,0,1,626.47,236.42Zm0-35.2a15.25,15.25,0,1,0,15.25,15.25A15.27,15.27,0,0,0,626.47,201.22Z"/><path class="cls-2" d="M633.16,218.19h-.1a5.94,5.94,0,0,1-5-3.31,2.35,2.35,0,1,1,4.1-2.3c.31.56.79.92,1,.91s.74-.26,1.18-1a2.35,2.35,0,0,1,4,2.44A6.15,6.15,0,0,1,633.16,218.19Z"/><path class="cls-2" d="M619.33,218.19h-.1a6,6,0,0,1-5-3.31,2.35,2.35,0,1,1,4.1-2.3c.31.56.76,1.11,1,.91.36,0,.82-.39,1.18-1a2.35,2.35,0,1,1,4,2.44A6.15,6.15,0,0,1,619.33,218.19Z"/><path class="cls-2" d="M645.7,196.85h-8.37a2.36,2.36,0,0,1-1.66-4l4.37-4.36h-2.12a2.36,2.36,0,0,1,0-4.71h7.78a2.35,2.35,0,0,1,1.66,4L643,192.14h2.71a2.36,2.36,0,0,1,0,4.71Z"/><path class="cls-2" d="M637.33,182H626.47a2.36,2.36,0,0,1-1.66-4l6.85-6.84h-4.41a2.35,2.35,0,1,1,0-4.7h10.08a2.35,2.35,0,0,1,1.66,4l-6.85,6.84h5.19a2.36,2.36,0,0,1,0,4.71Z"/><path class="cls-1" d="M230.7,214.39a19.19,19.19,0,0,0-38.38,0,18.91,18.91,0,0,0,5.81,13.66,12,12,0,0,0,8.33,3.21h10.1a12,12,0,0,0,8.33-3.21A18.91,18.91,0,0,0,230.7,214.39Z"/><path class="cls-2" d="M216.56,234.2h-10.1a15,15,0,0,1-10.37-4,21.78,21.78,0,0,1-6.71-15.77,22.13,22.13,0,0,1,44.26,0,21.78,21.78,0,0,1-6.71,15.77A15,15,0,0,1,216.56,234.2Zm-5.05-36.07a16.28,16.28,0,0,0-16.25,16.26,16,16,0,0,0,4.91,11.55,9.06,9.06,0,0,0,6.29,2.39h10.1a9.06,9.06,0,0,0,6.29-2.39,16,16,0,0,0,4.92-11.55A16.29,16.29,0,0,0,211.51,198.13Z"/><path class="cls-1" d="M513.29,201.63a9.2,9.2,0,0,1-16.92,5c-.17-.27-.47.21-.47.21V222h54.94"/><path class="cls-2" d="M550.84,224.31H495.9a2.36,2.36,0,0,1-2.36-2.35V206.84a2.31,2.31,0,0,1,.37-1.25,3.3,3.3,0,0,1,2.32-1.39h0a2.64,2.64,0,0,1,2.09,1.14,6.84,6.84,0,0,0,12.59-3.71,2.36,2.36,0,0,1,4.71,0,11.56,11.56,0,0,1-17.39,10v8h52.59a2.35,2.35,0,1,1,0,4.7Z"/><path class="cls-2" d="M520.1,211.88a2.35,2.35,0,0,1-2.26-3l1.73-6a2.35,2.35,0,0,1,4.52,1.3l-1.73,6A2.34,2.34,0,0,1,520.1,211.88Z"/><path class="cls-2" d="M529.19,213.93a2.35,2.35,0,0,1-2.26-3l1.56-5.49a2.35,2.35,0,1,1,4.52,1.28l-1.56,5.49A2.35,2.35,0,0,1,529.19,213.93Z"/><path class="cls-2" d="M537.68,223.28h-.27a2.34,2.34,0,0,1-2.07-2.59l1.24-11.14a2.38,2.38,0,0,1,2.59-2.08,2.33,2.33,0,0,1,2.07,2.59L540,221.19A2.35,2.35,0,0,1,537.68,223.28Z"/><path class="cls-2" d="M498.49,227.27a2.35,2.35,0,0,1-1.66-4l2.59-2.6a2.36,2.36,0,0,1,3.32,0l2.59,2.59a2.35,2.35,0,0,1-3.33,3.33l-.92-.93-.93.93A2.34,2.34,0,0,1,498.49,227.27Z"/><path class="cls-2" d="M498.49,227.27a2.34,2.34,0,0,1-1.66-.69L494.24,224a2.35,2.35,0,0,1,3.31-3.33l2.6,2.59a2.36,2.36,0,0,1-1.66,4Z"/><path class="cls-2" d="M503.67,227.27a2.35,2.35,0,0,1-1.67-4l2.6-2.6a2.36,2.36,0,0,1,3.32,0l2.59,2.59a2.35,2.35,0,1,1-3.33,3.33l-.92-.93-.93.93A2.34,2.34,0,0,1,503.67,227.27Z"/><path class="cls-2" d="M508.85,227.27a2.35,2.35,0,0,1-1.67-4l2.6-2.6a2.36,2.36,0,0,1,3.32,0l2.59,2.59a2.35,2.35,0,0,1-3.32,3.33l-.93-.93-.93.93A2.34,2.34,0,0,1,508.85,227.27Z"/><path class="cls-2" d="M514,227.27a2.35,2.35,0,0,1-1.66-4l2.58-2.59a2.35,2.35,0,0,1,3.32,0l2.6,2.59a2.35,2.35,0,0,1-3.32,3.33l-.93-.93-.93.93A2.32,2.32,0,0,1,514,227.27Z"/><path class="cls-2" d="M519.21,227.27a2.35,2.35,0,0,1-1.66-4l2.59-2.6a2.37,2.37,0,0,1,3.33,0l2.58,2.59a2.35,2.35,0,1,1-3.32,3.33l-.93-.93-.93.93A2.34,2.34,0,0,1,519.21,227.27Z"/><path class="cls-2" d="M524.39,227.27a2.35,2.35,0,0,1-1.66-4l2.59-2.6a2.36,2.36,0,0,1,3.32,0l2.59,2.59a2.35,2.35,0,1,1-3.33,3.33l-.92-.93-.93.93A2.34,2.34,0,0,1,524.39,227.27Z"/><path class="cls-2" d="M529.57,227.27a2.35,2.35,0,0,1-1.67-4l2.6-2.6a2.36,2.36,0,0,1,3.32,0l2.59,2.59a2.35,2.35,0,1,1-3.32,3.33l-.93-.93-.93.93A2.34,2.34,0,0,1,529.57,227.27Z"/><path class="cls-2" d="M534.75,227.27a2.35,2.35,0,0,1-1.66-4l2.59-2.6a2.37,2.37,0,0,1,3.33,0l2.58,2.59a2.35,2.35,0,1,1-3.32,3.33l-.93-.93-.92.93A2.36,2.36,0,0,1,534.75,227.27Z"/><path class="cls-2" d="M539.93,227.27a2.35,2.35,0,0,1-1.66-4l2.59-2.6a2.37,2.37,0,0,1,3.33,0l2.58,2.59a2.35,2.35,0,1,1-3.32,3.33l-.93-.93-.93.93A2.32,2.32,0,0,1,539.93,227.27Z"/><path class="cls-2" d="M545.11,227.27a2.35,2.35,0,0,1-1.66-4l2.59-2.6a2.36,2.36,0,0,1,3.32,0l2.59,2.59a2.35,2.35,0,1,1-3.31,3.33l-.94-.93-.93.93A2.34,2.34,0,0,1,545.11,227.27Z"/><path class="cls-2" d="M550.29,227.27a2.35,2.35,0,0,1-1.43-4.22c2.47-1.89,2.41-3.74,2.16-4.67-.85-3.18-3.38-4.54-7.46-5.82l-31-9.72a2.35,2.35,0,1,1,1.41-4.48l31,9.72c3.12,1,8.91,2.79,10.58,9.08.35,1.28,1.12,5.82-3.82,9.62A2.43,2.43,0,0,1,550.29,227.27Z"/><circle class="cls-1" cx="210.96" cy="322.42" r="4.81"/><path class="cls-2" d="M211,329.58a7.16,7.16,0,1,1,7.16-7.16A7.18,7.18,0,0,1,211,329.58Zm0-9.62a2.46,2.46,0,1,0,2.45,2.46A2.46,2.46,0,0,0,211,320Z"/><circle class="cls-2" cx="210.96" cy="303.22" r="4.81"/><path class="cls-1" d="M211,310.38a7.16,7.16,0,1,1,7.16-7.15A7.17,7.17,0,0,1,211,310.38Zm0-9.61a2.46,2.46,0,1,0,2.45,2.46A2.46,2.46,0,0,0,211,300.77Z"/><path class="cls-1" d="M106.2,290.19A21.27,21.27,0,0,0,85.36,313a28.72,28.72,0,0,0,20.84-22.77Z"/><path class="cls-2" d="M85.35,315.31a2.41,2.41,0,0,1-1.36-.43,2.37,2.37,0,0,1-1-1.77,23.63,23.63,0,0,1,23.13-25.26c.8-.25,1.38.28,1.84.82a2.35,2.35,0,0,1,.53,1.94A31.07,31.07,0,0,1,86,315.22,2.3,2.3,0,0,1,85.35,315.31Zm17.79-22.44a18.84,18.84,0,0,0-15.38,16.8A25.92,25.92,0,0,0,96.47,304,26.72,26.72,0,0,0,103.14,292.87Z"/><path class="cls-1" d="M121.92,296.44a21.39,21.39,0,0,0-15.72-6.25A28.72,28.72,0,0,1,85.36,313a21.34,21.34,0,0,0,6.16,13.87Z"/><path class="cls-2" d="M91.52,329.18a2.32,2.32,0,0,1-1.65-.69A23.76,23.76,0,0,1,83,313.11a2.34,2.34,0,0,1,1.71-2.41,26.38,26.38,0,0,0,19.16-20.93,2.35,2.35,0,0,1,2.26-1.92,23.32,23.32,0,0,1,17.44,6.93,2.34,2.34,0,0,1,0,3.32L93.19,328.49A2.35,2.35,0,0,1,91.52,329.18Zm-3.63-14.55a19,19,0,0,0,3.74,8.77l26.86-26.86a18.9,18.9,0,0,0-10.4-4,31.42,31.42,0,0,1-8.29,14.69A30.65,30.65,0,0,1,87.89,314.63Z"/><path class="cls-1" d="M107.24,333.07a21.26,21.26,0,0,0,20.84-22.76,28.69,28.69,0,0,0-20.84,22.76Z"/><path class="cls-2" d="M107.24,335.43a2.36,2.36,0,0,1-2.31-2.77A31.41,31.41,0,0,1,113.64,316a31,31,0,0,1,13.81-7.94,2.31,2.31,0,0,1,2,.34,2.37,2.37,0,0,1,1,1.77,23.63,23.63,0,0,1-23.13,25.26Zm18.44-21.83a25.57,25.57,0,0,0-8.71,5.72,26.59,26.59,0,0,0-6.67,11.08,18.87,18.87,0,0,0,15.38-16.8Z"/><path class="cls-1" d="M91.52,326.83a21.38,21.38,0,0,0,15.72,6.24,28.69,28.69,0,0,1,20.84-22.76,21.32,21.32,0,0,0-6.16-13.87Z"/><path class="cls-2" d="M106.69,335.43a23.57,23.57,0,0,1-16.83-6.94,2.34,2.34,0,0,1,0-3.32l30.39-30.4a2.45,2.45,0,0,1,3.33,0,23.82,23.82,0,0,1,6.85,15.39,2.35,2.35,0,0,1-1.72,2.41,26.42,26.42,0,0,0-19.16,20.92,2.34,2.34,0,0,1-2.25,1.93ZM95,326.73a18.87,18.87,0,0,0,10.4,4,31.35,31.35,0,0,1,8.29-14.7,30.69,30.69,0,0,1,11.9-7.35,19.12,19.12,0,0,0-3.73-8.78Z"/><path class="cls-2" d="M121.92,329.18a2.35,2.35,0,0,1-1.67-.69L89.86,298.1a2.35,2.35,0,0,1,3.32-3.33l30.4,30.4a2.35,2.35,0,0,1-1.66,4Z"/><path class="cls-2" d="M507.65,314.88a2.32,2.32,0,0,1-1.36-.44,2.36,2.36,0,0,1-1-1.76,18.66,18.66,0,0,1,18.27-19.95h.06a2.36,2.36,0,0,1,2.31,2.77,24.71,24.71,0,0,1-6.83,13.07,24.41,24.41,0,0,1-10.82,6.23A2.35,2.35,0,0,1,507.65,314.88Zm12.81-17a13.91,13.91,0,0,0-10.3,11.26,19,19,0,0,0,5.62-3.89A19.76,19.76,0,0,0,520.46,297.86Z"/><path class="cls-2" d="M512.38,325.51a2.38,2.38,0,0,1-1.67-.68,18.87,18.87,0,0,1-5.41-12.16,2.36,2.36,0,0,1,1.71-2.4,19.7,19.7,0,0,0,8.77-5,19.92,19.92,0,0,0,5.54-10.58,2.34,2.34,0,0,1,2.25-1.92,17.69,17.69,0,0,1,13.77,5.47,2.35,2.35,0,1,1-3.32,3.32,13.92,13.92,0,0,0-8.53-4,24.58,24.58,0,0,1-6.38,11.07,24.12,24.12,0,0,1-8.9,5.61A14,14,0,0,0,514,321.5a2.35,2.35,0,0,1-1.66,4Z"/><path class="cls-2" d="M524.43,330.3a2.35,2.35,0,0,1-2.32-2.77A24.66,24.66,0,0,1,529,314.46a24.36,24.36,0,0,1,10.82-6.23,2.29,2.29,0,0,1,2,.35,2.37,2.37,0,0,1,1,1.77,18.67,18.67,0,0,1-18.28,19.95Zm13.48-16.41a19.16,19.16,0,0,0-5.64,3.9,19.69,19.69,0,0,0-4.67,7.37A14,14,0,0,0,534,321.5,13.75,13.75,0,0,0,537.91,313.89Z"/><path class="cls-2" d="M524,330.3a18.67,18.67,0,0,1-13.3-5.47A2.35,2.35,0,0,1,514,321.5a13.93,13.93,0,0,0,8.52,4A24.63,24.63,0,0,1,529,314.46a23.88,23.88,0,0,1,8.9-5.61,14.08,14.08,0,0,0-3.83-7.33,2.35,2.35,0,0,1,3.32-3.32,18.82,18.82,0,0,1,5.42,12.15,2.36,2.36,0,0,1-1.71,2.4,19.69,19.69,0,0,0-14.31,15.62,2.35,2.35,0,0,1-2.26,1.93Z"/><circle class="cls-1" cx="107.13" cy="407.22" r="13.85"/><path class="cls-2" d="M107.13,423.71a16.49,16.49,0,1,1,16.49-16.49A16.51,16.51,0,0,1,107.13,423.71Zm0-27.69a11.21,11.21,0,1,0,11.2,11.2A11.22,11.22,0,0,0,107.13,396Z"/><path class="cls-2" d="M210.77,104.74a12.9,12.9,0,1,1,12.89-12.89A12.9,12.9,0,0,1,210.77,104.74Zm0-20.51a7.62,7.62,0,1,0,7.6,7.62A7.62,7.62,0,0,0,210.77,84.23Z"/><path class="cls-2" d="M229.68,128.27a2.64,2.64,0,0,1-2.64-2.64c0-8-7.3-14.44-16.27-14.44s-16.28,6.47-16.28,14.44a2.65,2.65,0,0,1-5.29,0c0-10.88,9.68-19.73,21.57-19.73s21.55,8.85,21.55,19.73A2.64,2.64,0,0,1,229.68,128.27Z"/><rect class="cls-2" x="213.67" y="117.09" width="7.56" height="5.34" rx="0.06" transform="translate(434.9 239.51) rotate(180)"/><path class="cls-2" d="M220.11,88.94a2.64,2.64,0,0,1-2.64-2.64V78.08l-.29-.08a25.77,25.77,0,0,0-6.37-1,26.5,26.5,0,0,0-6.43,1l-.24.07V86.3a2.65,2.65,0,0,1-5.29,0V77.05A4.36,4.36,0,0,1,202.94,73a27.93,27.93,0,0,1,7.87-1.29,30.47,30.47,0,0,1,7.74,1.21,4.49,4.49,0,0,1,4.21,4.15V86.3A2.65,2.65,0,0,1,220.11,88.94Zm-1.68-10.68h0Z"/><path class="cls-2" d="M210.77,78a4.17,4.17,0,1,1,4.17-4.17A4.18,4.18,0,0,1,210.77,78Zm0-4.7a.54.54,0,0,0-.54.53c0,.59,1.06.59,1.06,0A.52.52,0,0,0,210.77,73.28Z"/><path class="cls-2" d="M106.05,104.74a12.9,12.9,0,1,1,12.89-12.89A12.9,12.9,0,0,1,106.05,104.74Zm0-20.51a7.62,7.62,0,1,0,7.61,7.62A7.62,7.62,0,0,0,106.05,84.23Z"/><path class="cls-2" d="M125,128.27a2.65,2.65,0,0,1-2.65-2.64c0-8-7.3-14.44-16.27-14.44s-16.28,6.47-16.28,14.44a2.65,2.65,0,0,1-5.29,0c0-10.88,9.68-19.73,21.57-19.73s21.56,8.85,21.56,19.73A2.65,2.65,0,0,1,125,128.27Z"/><rect class="cls-2" x="108.95" y="117.09" width="7.56" height="5.34" rx="0.06" transform="translate(225.47 239.51) rotate(180)"/><path class="cls-2" d="M437.28,105.64H402.69a2.65,2.65,0,0,1,0-5.29h34.59a2.65,2.65,0,0,1,0,5.29Z"/><path class="cls-2" d="M420,122.83a2.65,2.65,0,0,1-2.65-2.65V85.59a2.65,2.65,0,0,1,5.29,0v34.59A2.65,2.65,0,0,1,420,122.83Z"/><path class="cls-2" d="M407.83,117.84a2.61,2.61,0,0,1-1.87-.78,2.65,2.65,0,0,1,0-3.74l24.46-24.46a2.64,2.64,0,1,1,3.74,3.74L409.7,117.06A2.64,2.64,0,0,1,407.83,117.84Z"/><path class="cls-2" d="M432.21,117.76a2.68,2.68,0,0,1-1.87-.77L405.88,92.53a2.64,2.64,0,1,1,3.74-3.74l24.46,24.46a2.64,2.64,0,0,1-1.87,4.51Z"/><path class="cls-2" d="M304.91,556.71a3.88,3.88,0,0,1-.48,0,2.65,2.65,0,0,1-2.13-3.08l2.95-16a2.7,2.7,0,0,1,3.09-2.12,2.65,2.65,0,0,1,2.12,3.08l-2.95,16A2.65,2.65,0,0,1,304.91,556.71Z"/><path class="cls-2" d="M296.9,549.34a2.61,2.61,0,0,1-.48-.05,2.64,2.64,0,0,1-2.12-3.07l1.58-8.62a2.7,2.7,0,0,1,3.09-2.13,2.65,2.65,0,0,1,2.12,3.08l-1.59,8.62A2.66,2.66,0,0,1,296.9,549.34Z"/><path class="cls-2" d="M315.85,552.21a2.68,2.68,0,0,1-2.6-3.13l2.12-11.49a2.69,2.69,0,0,1,3.08-2.12,2.65,2.65,0,0,1,2.13,3.08l-2.13,11.5A2.65,2.65,0,0,1,315.85,552.21Z"/><path class="cls-2" d="M326.13,549.34a2.61,2.61,0,0,1-.48-.05,2.64,2.64,0,0,1-2.13-3.07l1.59-8.62a2.69,2.69,0,0,1,3.08-2.13,2.64,2.64,0,0,1,2.12,3.08l-1.58,8.62A2.66,2.66,0,0,1,326.13,549.34Z"/><path class="cls-2" d="M627.46,444.28a2.62,2.62,0,0,1-.55,0,2.65,2.65,0,0,1-2-3.15l2.24-10.43a2.67,2.67,0,0,1,3.13-2,2.63,2.63,0,0,1,2,3.14l-2.23,10.44A2.65,2.65,0,0,1,627.46,444.28Z"/><path class="cls-2" d="M619.11,438.16a2.7,2.7,0,0,1-.49,0,2.66,2.66,0,0,1-2.1-3.1l.83-4.31a2.68,2.68,0,0,1,3.08-2.1,2.64,2.64,0,0,1,2.1,3.1l-.82,4.31A2.64,2.64,0,0,1,619.11,438.16Z"/><path class="cls-2" d="M638.88,440.54a2.38,2.38,0,0,1-.53-.05,2.65,2.65,0,0,1-2.06-3.12l1.37-6.7a2.61,2.61,0,0,1,3.12-2.05,2.65,2.65,0,0,1,2.07,3.12l-1.38,6.69A2.66,2.66,0,0,1,638.88,440.54Z"/><path class="cls-2" d="M421.36,546.35a2.36,2.36,0,0,1-2.05-3.5l3-5.46h-6a2.35,2.35,0,0,1-2-3.6l5.6-8.88a2.35,2.35,0,1,1,4,2.5l-3.33,5.28h5.7a2.34,2.34,0,0,1,2.05,3.49l-5,9A2.36,2.36,0,0,1,421.36,546.35Z"/><path class="cls-2" d="M430.7,531.68a2.65,2.65,0,0,1-.84-5.15,13.34,13.34,0,1,0-17.35-15.12,2.64,2.64,0,1,1-5.19-1,18.63,18.63,0,1,1,24.22,21.11A2.51,2.51,0,0,1,430.7,531.68Z"/><path class="cls-2" d="M409.91,532.51h-2.3a12.12,12.12,0,0,1,0-24.23,2.64,2.64,0,0,1,0,5.28,6.83,6.83,0,1,0,0,13.66h2.3a2.65,2.65,0,0,1,0,5.29Z"/><path class="cls-2" d="M528.88,532.37a2.65,2.65,0,0,1,0-5.29,13.35,13.35,0,1,0-13.11-15.82,2.64,2.64,0,1,1-5.18-1,18.62,18.62,0,1,1,18.29,22.08Z"/><path class="cls-2" d="M529.81,532.37H510.88a12.12,12.12,0,1,1,0-24.24,2.65,2.65,0,0,1,0,5.29,6.83,6.83,0,1,0,0,13.66h18.93a2.65,2.65,0,0,1,0,5.29Z"/><path class="cls-2" d="M638.5,543.19a2.65,2.65,0,0,1,0-5.29,4.55,4.55,0,1,0,0-9.09H605.3a2.65,2.65,0,0,1,0-5.29h33.2a9.84,9.84,0,0,1,0,19.67Z"/><path class="cls-2" d="M507.83,544.9a2.67,2.67,0,0,1-1.89-.71,2.55,2.55,0,0,1,0-3.75,2.87,2.87,0,0,1,3.77,0,2.86,2.86,0,0,1,0,3.75A2.9,2.9,0,0,1,507.83,544.9Z"/><path class="cls-2" d="M518.63,539.62a2.43,2.43,0,0,1-2.58-2.59,2.66,2.66,0,0,1,.7-1.88,2.86,2.86,0,0,1,3.76,0,2.76,2.76,0,0,1,.82,1.88,3,3,0,0,1-.82,1.88A2.68,2.68,0,0,1,518.63,539.62Z"/><path class="cls-2" d="M529.08,544.9a2.68,2.68,0,0,1-1.88-.71,2.55,2.55,0,0,1,0-3.75,2.6,2.6,0,0,1,3.65,0,2.35,2.35,0,0,1,.82,1.88,2.5,2.5,0,0,1-.82,1.87A2.59,2.59,0,0,1,529.08,544.9Z"/><path class="cls-2" d="M540,539.62a2.49,2.49,0,0,1-1.88-.71,2.54,2.54,0,0,1,0-3.76,2.7,2.7,0,0,1,3.64,0,2.35,2.35,0,0,1,.82,1.88,2.54,2.54,0,0,1-.82,1.88A2.4,2.4,0,0,1,540,539.62Z"/><path class="cls-2" d="M638.5,543.19a9.89,9.89,0,0,1-8.52-4.91,2.65,2.65,0,0,1,4.59-2.64,4.56,4.56,0,0,0,8.49-2.28,2.64,2.64,0,1,1,5.27,0A9.84,9.84,0,0,1,638.5,543.19Z"/><path class="cls-2" d="M620.14,521.12H595.41a2.65,2.65,0,0,1,0-5.29h24.73a2.72,2.72,0,1,0,0-5.43,2.65,2.65,0,0,1,0-5.29,8,8,0,0,1,0,16Z"/><path class="cls-2" d="M625.5,515.76a2.64,2.64,0,0,1-2.64-2.64c0-2.48-3.84-3.51-5.06-1.37a2.65,2.65,0,0,1-4.59-2.63,8,8,0,0,1,14.92,4A2.64,2.64,0,0,1,625.5,515.76Z"/><path class="cls-2" d="M645.59,521.62h-14.7a2.65,2.65,0,0,1,0-5.29h14.7a8.47,8.47,0,1,0,0-16.94,2.65,2.65,0,0,1,0-5.29,13.76,13.76,0,0,1,0,27.52Z"/><path class="cls-2" d="M656.71,510.5a2.64,2.64,0,0,1-2.64-2.64,8.48,8.48,0,0,0-17,0,2.64,2.64,0,1,1-5.28,0,13.76,13.76,0,1,1,27.51,0A2.65,2.65,0,0,1,656.71,510.5Z"/><path class="cls-2" d="M118.72,533.38a2.65,2.65,0,0,1,0-5.29,13.35,13.35,0,1,0-13.11-15.82,2.64,2.64,0,1,1-5.19-1,18.63,18.63,0,1,1,18.3,22.08Z"/><path class="cls-2" d="M119.65,533.38H100.71a12.12,12.12,0,0,1,0-24.23,2.65,2.65,0,0,1,0,5.29,6.83,6.83,0,1,0,0,13.65h18.94a2.65,2.65,0,0,1,0,5.29Z"/><path class="cls-2" d="M79.84,495.67a2.61,2.61,0,0,1-1.31-.36l-7.69-4.43a2.64,2.64,0,0,1,2.64-4.58l7.68,4.43a2.65,2.65,0,0,1-1.32,4.94Z"/><path class="cls-2" d="M106.57,496.28a2.64,2.64,0,0,1-1.32-4.93l7.68-4.44a2.64,2.64,0,1,1,2.63,4.58l-7.67,4.43A2.62,2.62,0,0,1,106.57,496.28Z"/><path class="cls-2" d="M72.16,516.15a2.65,2.65,0,0,1-1.32-4.94l7.69-4.43a2.64,2.64,0,1,1,2.63,4.58l-7.68,4.43A2.62,2.62,0,0,1,72.16,516.15Z"/><path class="cls-2" d="M93.21,488.56a2.64,2.64,0,0,1-2.64-2.64v-8.87a2.64,2.64,0,0,1,5.28,0v8.87A2.64,2.64,0,0,1,93.21,488.56Z"/><path class="cls-2" d="M93.21,509a8.67,8.67,0,1,1,8.66-8.67,2.36,2.36,0,0,1-4.71,0,4,4,0,1,0-4,4,2.35,2.35,0,1,1,0,4.7Z"/><path class="cls-2" d="M505.34,554.76a2.66,2.66,0,0,1-1.88-.71,2.55,2.55,0,0,1,0-3.75,2.86,2.86,0,0,1,3.76,0,2.86,2.86,0,0,1,0,3.75A2.88,2.88,0,0,1,505.34,554.76Z"/><path class="cls-2" d="M516.15,549.48a2.43,2.43,0,0,1-2.58-2.59,2.67,2.67,0,0,1,.7-1.88,2.86,2.86,0,0,1,3.76,0,2.66,2.66,0,0,1,.81,1.88,3,3,0,0,1-.81,1.88A2.68,2.68,0,0,1,516.15,549.48Z"/><path class="cls-2" d="M526.6,554.76a2.68,2.68,0,0,1-1.88-.71,2.55,2.55,0,0,1,0-3.75,2.58,2.58,0,0,1,3.64,0,2.33,2.33,0,0,1,.83,1.88,2.48,2.48,0,0,1-.83,1.87A2.59,2.59,0,0,1,526.6,554.76Z"/><path class="cls-2" d="M537.53,549.48a2.66,2.66,0,0,1-1.88-.71,2.54,2.54,0,0,1,0-3.76,2.69,2.69,0,0,1,3.63,0,2.54,2.54,0,0,1,0,3.76A2.38,2.38,0,0,1,537.53,549.48Z"/></svg>