<svg width="44" height="44" viewBox="0 0 44 44" fill="none" xmlns="http://www.w3.org/2000/svg">
<path d="M0 22C0 9.84974 9.84974 0 22 0C34.1503 0 44 9.84974 44 22C44 34.1503 34.1503 44 22 44C9.84974 44 0 34.1503 0 22Z" fill="#898989" fill-opacity="0.54"/>
<path d="M28 18H27V16C27 13.24 24.76 11 22 11C19.24 11 17 13.24 17 16V18H16C14.9 18 14 18.9 14 20V30C14 31.1 14.9 32 16 32H28C29.1 32 30 31.1 30 30V20C30 18.9 29.1 18 28 18ZM22 27C20.9 27 20 26.1 20 25C20 23.9 20.9 23 22 23C23.1 23 24 23.9 24 25C24 26.1 23.1 27 22 27ZM25.1 18H18.9V16C18.9 14.29 20.29 12.9 22 12.9C23.71 12.9 25.1 14.29 25.1 16V18Z" fill="white"/>
</svg>
