<?xml version="1.0" encoding="utf-8"?>
<!-- Generator: Adobe Illustrator 23.0.1, SVG Export Plug-In . SVG Version: 6.00 Build 0)  -->
<svg version="1.1" id="Layer_1" xmlns="http://www.w3.org/2000/svg" xmlns:xlink="http://www.w3.org/1999/xlink" x="0px" y="0px"
	 viewBox="0 0 99 33.6" style="enable-background:new 0 0 99 33.6;" xml:space="preserve">
<g>
	<path d="M79.31,14.32c0-0.32,0.16-0.56,0.4-0.72c0.16-0.08,0.24-0.08,0.4-0.08c0.16,0,0.24,0,0.4,0.08l4.88,2.8
		c0.24,0.08,0.24,0.32,0.24,0.4c0,0.08,0,0.24-0.24,0.4L80.51,20c-0.24,0.16-0.56,0.16-0.8,0c-0.24-0.16-0.4-0.4-0.4-0.72V14.32z
		 M79.31,20.72c0.24,0.16,0.56,0.24,0.8,0.24c0.32,0,0.56-0.08,0.8-0.24l4.88-2.8c0.4-0.24,0.64-0.64,0.64-1.12
		c0-0.48-0.24-0.88-0.64-1.12l-4.88-2.8c-0.48-0.32-1.12-0.32-1.6,0s-0.8,0.8-0.8,1.44v5.04C78.51,19.92,78.83,20.4,79.31,20.72"/>
	<path d="M82.27,3.36c-2.48,0-4.88,0.72-6.88,1.92l0,0c0.24,0,0.4,0.16,0.4,0.4c0,0.16-0.08,0.24-0.24,0.32v0.08
		c2-1.2,4.24-1.92,6.72-1.92c6.88,0,12.56,5.68,12.56,12.64s-5.68,12.64-12.64,12.64c-6.96,0-12.64-5.68-12.64-12.64
		c0-3.68,1.6-6.96,4.16-9.28l-0.08-0.08c-0.08,0.08-0.16,0.08-0.24,0.08c-0.24,0-0.4-0.16-0.4-0.4c0-0.08,0.08-0.16,0.08-0.16
		c-2.64,2.48-4.4,5.92-4.4,9.84c0,7.44,6,13.44,13.44,13.44s13.52-6,13.52-13.44S89.63,3.36,82.27,3.36"/>
	<path d="M75.39,5.28c-0.08,0-0.16,0.08-0.16,0.08l0,0C75.23,5.36,75.31,5.36,75.39,5.28"/>
	<path d="M75.63,6c0.08-0.08,0.24-0.16,0.24-0.32c0-0.24-0.16-0.4-0.4-0.4l0,0c-0.08,0-0.08,0.08-0.16,0.08L75.63,6z"/>
	<path d="M75.07,5.44c0,0,0.08,0,0.08-0.08l0,0C75.15,5.44,75.15,5.44,75.07,5.44"/>
	<path d="M75.07,5.44c-0.08,0.08-0.08,0.16-0.08,0.24c0,0.24,0.16,0.4,0.4,0.4c0.08,0,0.16-0.08,0.24-0.08l-0.4-0.64
		C75.15,5.44,75.15,5.44,75.07,5.44"/>
	<path d="M73.23,6.8c-0.08,0-0.08,0.08-0.08,0.16C73.23,6.88,73.23,6.88,73.23,6.8L73.23,6.8z"/>
	<path d="M73.47,7.52c0.08,0,0.16-0.08,0.24-0.08l-0.4-0.64c-0.08,0-0.08,0.08-0.16,0.08c0,0.08-0.08,0.08-0.08,0.16
		C73.07,7.36,73.31,7.52,73.47,7.52"/>
	<path d="M73.39,6.8c-0.08,0-0.08,0-0.08,0.08l0,0C73.31,6.8,73.39,6.8,73.39,6.8"/>
	<path d="M73.95,7.12c0-0.24-0.16-0.4-0.4-0.4c-0.08,0-0.08,0-0.08,0.08l-0.08,0.08l0.4,0.64C73.79,7.36,73.95,7.28,73.95,7.12"/>
</g>
</svg>
