<?xml version="1.0" encoding="utf-8"?>
<!-- Generator: Adobe Illustrator 23.0.1, SVG Export Plug-In . SVG Version: 6.00 Build 0)  -->
<svg version="1.1" id="Layer_1" xmlns="http://www.w3.org/2000/svg" xmlns:xlink="http://www.w3.org/1999/xlink" x="0px" y="0px"
	 viewBox="0 0 120 56.1" style="enable-background:new 0 0 120 56.1;" xml:space="preserve">
<g>
	<path d="M57.1,22.31c0-0.32,0.16-0.56,0.4-0.72c0.16-0.08,0.24-0.08,0.4-0.08s0.24,0,0.4,0.08l4.88,2.8
		c0.24,0.08,0.24,0.32,0.24,0.4c0,0.08,0,0.24-0.24,0.4l-4.88,2.8c-0.24,0.16-0.56,0.16-0.8,0c-0.24-0.16-0.4-0.4-0.4-0.72V22.31z
		 M57.1,28.71c0.24,0.16,0.56,0.24,0.8,0.24c0.32,0,0.56-0.08,0.8-0.24l4.88-2.8c0.4-0.24,0.64-0.64,0.64-1.12
		c0-0.48-0.24-0.88-0.64-1.12l-4.88-2.8c-0.48-0.32-1.12-0.32-1.6,0s-0.8,0.8-0.8,1.44v5.04C56.22,27.91,56.54,28.39,57.1,28.71"/>
	<path d="M59.98,11.35c-2.48,0-4.88,0.72-6.88,1.92l0,0c0.24,0,0.4,0.16,0.4,0.4c0,0.16-0.08,0.24-0.24,0.32v0.08
		c2.08-1.2,4.32-1.92,6.72-1.92c6.96,0,12.64,5.68,12.64,12.64s-5.68,12.56-12.64,12.56s-12.64-5.68-12.64-12.64
		c0-3.68,1.6-6.96,4.16-9.28l-0.08-0.08c-0.08,0.08-0.16,0.08-0.24,0.08c-0.24,0-0.4-0.16-0.4-0.4c0-0.08,0.08-0.16,0.08-0.16
		c-2.64,2.48-4.4,5.92-4.4,9.84c0,7.44,6,13.44,13.44,13.44s13.44-6,13.44-13.44S67.42,11.35,59.98,11.35"/>
	<path d="M53.1,13.27c-0.08,0-0.16,0.08-0.16,0.08l0,0C53.02,13.35,53.1,13.35,53.1,13.27"/>
	<path d="M53.34,13.99c0.08-0.08,0.24-0.16,0.24-0.32c0-0.24-0.16-0.4-0.4-0.4l0,0c-0.08,0-0.08,0.08-0.16,0.08L53.34,13.99z"/>
	<path d="M52.86,13.43c0,0,0.08,0,0.08-0.08l0,0C52.86,13.43,52.86,13.43,52.86,13.43"/>
	<path d="M52.86,13.43c-0.08,0.08-0.08,0.16-0.08,0.24c0,0.24,0.16,0.4,0.4,0.4c0.08,0,0.16-0.08,0.24-0.08l-0.4-0.64
		C52.94,13.43,52.86,13.43,52.86,13.43"/>
	<path d="M51.02,14.79c-0.08,0-0.08,0.08-0.08,0.16C50.94,14.87,51.02,14.87,51.02,14.79L51.02,14.79z"/>
	<path d="M51.26,15.51c0.08,0,0.16-0.08,0.24-0.08l-0.4-0.64c-0.08,0-0.08,0.08-0.16,0.08c0,0.08-0.08,0.08-0.08,0.16
		C50.86,15.35,51.02,15.51,51.26,15.51"/>
	<path d="M51.1,14.79c0,0-0.08,0-0.08,0.08l0,0C51.1,14.79,51.1,14.79,51.1,14.79"/>
	<path d="M51.66,15.11c0-0.24-0.16-0.4-0.4-0.4c-0.08,0-0.08,0-0.08,0.08l-0.08,0.08l0.4,0.64C51.58,15.35,51.66,15.27,51.66,15.11"
		/>
</g>
</svg>
