<?xml version="1.0" encoding="utf-8"?>
<!-- Generator: Adobe Illustrator 23.0.1, SVG Export Plug-In . SVG Version: 6.00 Build 0)  -->
<svg version="1.1" id="Layer_1" xmlns="http://www.w3.org/2000/svg" xmlns:xlink="http://www.w3.org/1999/xlink" x="0px" y="0px"
	 viewBox="0 0 87.9 19.8" style="enable-background:new 0 0 87.9 19.8;" xml:space="preserve">
<style type="text/css">
	.st0{fill:#FFFFFF;}
</style>
<rect x="22.8" y="0.5" width="18.8" height="18.8"/>
<path d="M9.4,19.3L9.4,19.3C4.2,19.3,0,15.1,0,9.9v0c0-5.2,4.2-9.4,9.4-9.4h0c5.2,0,9.4,4.2,9.4,9.4v0C18.8,15.1,14.6,19.3,9.4,19.3
	z"/>
<rect x="22.6" y="3.5" class="st0" width="19.4" height="2.1"/>
<rect x="45.7" y="8.8" transform="matrix(-1.836970e-16 1 -1 -1.836970e-16 65.2917 -45.5012)" class="st0" width="19.4" height="2.1"/>
<rect x="69.1" y="0.5" transform="matrix(-1.836970e-16 1 -1 -1.836970e-16 88.4265 -68.6359)" width="18.8" height="18.8"/>
<rect x="68.8" y="8.8" transform="matrix(-1.836970e-16 1 -1 -1.836970e-16 88.4265 -68.6359)" class="st0" width="19.4" height="2.1"/>
<polygon points="64.9,10.1 48.1,0.4 48.1,19.8 "/>
<image style="overflow:visible;" width="62" height="62" xlink:href="../../../../Dropbox/Screenshots/Screenshot 2019-02-17 19.42.01.png"  transform="matrix(0.5 0 0 0.5 0 38.296)">
</image>
</svg>
